
<svg xmlns="http://www.w3.org/2000/svg" version="1.1" xmlns:xlink="http://www.w3.org/1999/xlink" preserveAspectRatio="none" x="0px" y="0px" viewBox="0 0 795 127">
<defs>
<linearGradient id="Gradient_1" gradientUnits="userSpaceOnUse" x1="-398.8" y1="-62" x2="-376.40000000000003" y2="-62" spreadMethod="pad">
<stop  offset="65.88235294117646%" stop-color="#83806D"/>

<stop  offset="100%" stop-color="#5B594D"/>
</linearGradient>

<g id="Layer0_0_MEMBER_0_FILL">
<path fill="url(#Gradient_1)" stroke="none" d="
M -398.6 -56.45
L -376.4 -56.45 -376.4 -67.5
Q -387.9 -63.8 -398.8 -56.95
L -398.6 -56.45 Z"/>
</g>

<g id="Layer0_0_MEMBER_1_MEMBER_0_FILL">
<path fill="#BBB7AA" stroke="none" d="
M 391.5 -58.6
L 391.45 -59.6 354.65 -58.55
Q 346.475 -58.399609375 338.3 -58.25 334.45 -58.2 330.5 -58.1 -34.2 -51.65 -398.85 -56.85 -393.7 1.3 -398.85 59.45 72.3 41.45 395.9 49.35 394.6 36.55 393.9 23.75 393.6 18.75 393.45 13.75 393.35 11.6 393.3 9.5
L 393.35 9.5 391.45 -58.6 391.5 -58.6 Z"/>
</g>

<g id="Layer0_0_MEMBER_1_MEMBER_1_FILL">
<path fill="#F4F4F4" stroke="none" d="
M -229.75 -53.3
Q -292 -53.75 -354.25 -54.45 -343.15 -9.6 -308.3 25.4 -291.75 42 -272.95 53.25 -232 51.85 -191.05 50.7 -221.35 3.25 -229.75 -53.3
M 352.8 -57.2
Q 352.5 -57.2 352.25 -57.2 348.15 -57.1 344.05 -57.05 340.25 -56.95 336.45 -56.9 328.4 -56.75 320.4 -56.6 312.75 -0.9 284.1 46.05 310.95 46.25 337.85 46.6
L 337.9 46.5
Q 349.75 30.15 358.4 10.55 371.75 -19.8 377.4 -57.9
L 352.8 -57.2 Z"/>

<path fill="#EEEEEE" stroke="none" d="
M -375.8 -54.75
Q -376.35 -48.25 -376.35 -41.55 -376.35 14.75 -339.4 55.7 -306.2 54.4 -272.95 53.25 -291.75 42 -308.3 25.4 -343.15 -9.6 -354.25 -54.45 -365 -54.6 -375.8 -54.75
M 389.6 -57.25
L 389.65 -57.25 389.6 -58.25 377.4 -57.9
Q 371.75 -19.8 358.4 10.55 349.75 30.15 337.9 46.5
L 337.85 46.6
Q 366.05 46.95 394.25 47.45 392.65 28.8 392.1 10.45
L 392.05 10.45 389.6 -57.25 Z"/>

<path fill="#E0E0E0" stroke="none" d="
M -375.8 -54.75
Q -386.75 -54.9 -397.7 -55.05 -390.6 1.55 -397.45 58.1 -368.45 56.85 -339.4 55.7 -376.35 14.75 -376.35 -41.55 -376.35 -48.25 -375.8 -54.75 Z"/>

<path fill="#FEFEFE" stroke="none" d="
M 284.1 46.05
Q 312.75 -0.9 320.4 -56.6 152.25 -53.55 -15.75 -53 -50.75 -52.9 -85.8 -52.85 -124.75 -52.9 -163.65 -53 -196.7 -53.1 -229.75 -53.3 -221.35 3.25 -191.05 50.7 -155 49.7 -119.05 48.9 -117.75 48.85 -116.45 48.85 -102.6 48.5 -88.75 48.25 97.95 44.45 284.1 46.05 Z"/>
</g>

<path id="Layer0_0_MEMBER_1_MEMBER_1_1_STROKES" stroke="#FF0000" stroke-width="0.05" stroke-linejoin="miter" stroke-linecap="square" stroke-miterlimit="3" fill="none" d="
M 337.9 46.5
L 337.85 46.6"/>
</defs>

<g transform="matrix( 1, 0, 0, 1, 400,68.55) ">
<use xlink:href="#Layer0_0_MEMBER_0_FILL"/>
</g>

<g transform="matrix( 1, 0, 0, 1, 400,68.55) ">
<use xlink:href="#Layer0_0_MEMBER_1_MEMBER_0_FILL"/>
</g>

<g transform="matrix( 1, 0, 0, 1, 400,68.55) ">
<use xlink:href="#Layer0_0_MEMBER_1_MEMBER_1_FILL"/>

<use xlink:href="#Layer0_0_MEMBER_1_MEMBER_1_1_STROKES"/>
</g>
</svg>
