
<svg xmlns="http://www.w3.org/2000/svg" version="1.1" xmlns:xlink="http://www.w3.org/1999/xlink" preserveAspectRatio="none" x="0px" y="0px" width="144px" height="28px" viewBox="0 0 144 28">
<defs>
<g id="Layer0_0_FILL">
<path fill="#000000" stroke="none" d="
M 1424.4 594.3
Q 1424.1 594.3 1424 594.35 1423.9 594.35 1423.85 594.45 1422 594.75 1420.9 595.45 1419.4 596.45 1419.1 598.3 1419 598.8 1419 599.4 1419 601 1419.4 604.35 1419.75 607.75 1419.75 609.75
L 1419.25 616.95
Q 1419.25 617.15 1419.25 617.35 1419.35 618.8 1420.25 619.6 1420.8 620.55 1422.65 621.2
L 1429 621.35
Q 1429.35 621.45 1431.1 621.65 1431.2 621.65 1431.4 621.7
L 1440.9 621.7
Q 1449.1 620.95 1452.15 620.75 1469.6 620.6 1473.25 620.6
L 1505.75 620.6
Q 1506.95 620.75 1509.7 621.2 1512.95 621.55 1518.4 621.35
L 1547.9 621.35
Q 1549.95 621.55 1551.85 621.5 1553.5 621.7 1554.4 621.95
L 1556.15 621.95
Q 1556.6 621.85 1556.75 621.45
L 1557.4 621.45 1557.9 621.35
Q 1557.95 621.3 1558 621.05 1561.35 620.4 1562.4 619.35 1563.1 618.65 1563 616.35
L 1563 610.1
Q 1563.05 604.2 1562.8 601.35 1562.8 599.85 1562.7 599.1 1562.65 598.6 1562.5 598.2
L 1562.5 597.25
Q 1561.95 596.1 1560.45 595.55 1559.95 595.25 1559.4 595.05 1559.1 594.95 1557.45 594.9 1554.7 594.85 1552.4 594.8 1544.05 594.3 1539.4 594.05
L 1525.65 594.05 1525.65 594.1
Q 1517.5 594.45 1516.25 594.6
L 1431.15 594.6
Q 1429.7 594.3 1424.9 594.3 1424.65 594.3 1424.4 594.3
M 1421.25 603.95
Q 1421.1 602.8 1420.4 602.45 1420.25 600.9 1420.25 599.45 1420.25 596.5 1424.8 595.5 1430.1 595.65 1431.15 595.95
L 1516.65 595.95
Q 1525.45 595.45 1525.65 595.35
L 1539.25 595.35
Q 1540.2 595.35 1548.45 595.75 1555.05 596.05 1557.85 596.1 1558.65 596.55 1560.35 597.25 1560.4 597.3 1560.5 597.35 1560.6 597.6 1560.85 598.55 1561 599.2 1561.5 599.4 1561.75 600.6 1561.75 602.85 1562.05 605.3 1561.75 610.1 1561.75 610.45 1561.8 612.5 1561.85 613.7 1561.8 614.6 1561.7 615.4 1561.65 616.6 1561.5 617.65 1558.5 618.85 1555.7 620 1554 620.1
L 1553.45 620.1
Q 1552.05 620 1550.9 619.95 1546.75 619.7 1546.15 619.7
L 1527.15 619.7
Q 1526.9 619.8 1523.3 619.9
L 1516.15 619.85
Q 1511.7 619.65 1509.4 619.5
L 1509.4 619.2 1447.9 619.2
Q 1447.7 619.3 1446.35 619.4 1444.95 619.55 1444.75 619.6
L 1433.65 619.6
Q 1433.55 619.55 1429.4 619.7 1429.1 619.7 1429 619.75 1428.85 619.8 1428.8 619.95
L 1425.4 619.9
Q 1423.35 619.65 1422.25 619.25 1421.7 619.05 1421.35 618.75 1421.25 618.45 1421.25 617.5 1421.75 612.4 1421.75 611.75 1421.75 610.1 1421.25 606.6 1421.35 604.95 1421.25 603.95 Z"/>

<path fill="#FFFFFF" stroke="none" d="
M 1420.4 602.45
Q 1421.1 602.8 1421.25 603.95 1421.35 604.95 1421.25 606.6 1421.75 610.1 1421.75 611.75 1421.75 612.4 1421.25 617.5 1421.25 618.45 1421.35 618.75 1421.7 619.05 1422.25 619.25 1423.35 619.65 1425.4 619.9
L 1428.8 619.95
Q 1428.85 619.8 1429 619.75 1429.1 619.7 1429.4 619.7 1433.55 619.55 1433.65 619.6
L 1444.75 619.6
Q 1444.95 619.55 1446.35 619.4 1447.7 619.3 1447.9 619.2
L 1509.4 619.2 1509.4 619.5
Q 1511.7 619.65 1516.15 619.85
L 1523.3 619.9
Q 1526.9 619.8 1527.15 619.7
L 1546.15 619.7
Q 1546.75 619.7 1550.9 619.95 1552.05 620 1553.45 620.1
L 1554 620.1
Q 1555.7 620 1558.5 618.85 1561.5 617.65 1561.65 616.6 1561.7 615.4 1561.8 614.6 1561.85 613.7 1561.8 612.5 1561.75 610.45 1561.75 610.1 1562.05 605.3 1561.75 602.85 1561.75 600.6 1561.5 599.4 1561 599.2 1560.85 598.55 1560.6 597.6 1560.5 597.35 1560.4 597.3 1560.35 597.25 1558.65 596.55 1557.85 596.1 1555.05 596.05 1548.45 595.75 1540.2 595.35 1539.25 595.35
L 1525.65 595.35
Q 1525.45 595.45 1516.65 595.95
L 1431.15 595.95
Q 1430.1 595.65 1424.8 595.5 1420.25 596.5 1420.25 599.45 1420.25 600.9 1420.4 602.45 Z"/>
</g>
</defs>

<g transform="matrix( 1, 0, 0, 1.0035858154296875, -1419,-596.2) ">
<use xlink:href="#Layer0_0_FILL"/>
</g>
</svg>
