
<svg xmlns="http://www.w3.org/2000/svg" version="1.1" xmlns:xlink="http://www.w3.org/1999/xlink" preserveAspectRatio="none" x="0px" y="0px" width="30px" height="29px" viewBox="0 0 30 29">
<defs>
<g id="Layer0_0_FILL">
<path fill="#000000" stroke="none" d="
M 2084.7 -20.95
Q 2080.55 -20.65 2078.65 -19.55 2078.3 -19.35 2077.95 -19.15 2077.3 -18.8 2076.65 -18.35 2075.5 -17.55 2074.1 -15.8 2073.3 -15 2073 -14.6 2072.6 -14.15 2071.85 -12.75 2071.7 -12.6 2071.65 -12.45
L 2071.65 -12.4
Q 2071.55 -12.25 2071.5 -12.15 2071.2 -11.7 2071.15 -10.95 2071.15 -10.9 2071.15 -10.85 2070.95 -10.1 2070.8 -9.05
L 2070.75 -8.65
Q 2070.05 -5.7 2070.05 -4.7 2070.05 -4.65 2070.1 -3.45 2070.2 -2.85 2070.45 -2.5 2070.55 -1.65 2070.75 -1.2 2070.95 -0.65 2071.2 0.45 2071.4 1.45 2071.95 2.05 2072.4 2.55 2073.35 3.75 2074.3 4.8 2075 5.35 2076.85 6.6 2078.4 7.15 2080.4 7.9 2082.8 7.9 2083 7.9 2083.1 7.9 2084.1 8.05 2085.05 8.05 2088.35 8.05 2089.55 7.5 2090.5 7.05 2091.25 6.8 2092.45 6.45 2094.6 5.1 2096.7 4.05 2098.2 1.45 2099.55 -0.85 2099.75 -2.45 2099.85 -2.95 2099.85 -6.05 2099.85 -8.75 2099.7 -9.8 2099.4 -11.85 2098.25 -13.75 2096.65 -16.3 2095 -17.7 2093.35 -19.05 2091.2 -19.85 2090.7 -20.25 2089.3 -20.45 2089.25 -20.45 2089.2 -20.45
L 2089.15 -20.45
Q 2088.8 -20.55 2088.4 -20.6 2088.2 -20.7 2087.9 -20.75 2087.15 -20.95 2084.7 -20.95
M 2076.45 -16.75
Q 2079.05 -19.35 2084.45 -19.95
L 2086.9 -19.95
Q 2087.35 -19.8 2088.6 -19.5 2089.95 -19.15 2090.95 -18.8 2090.95 -18.75 2091 -18.75 2095.9 -16.1 2097.35 -12.8 2098.2 -10.8 2098.4 -9.5 2098.55 -8.7 2098.55 -6.7
L 2098.55 -5.3 2098.65 -4.5 2098.25 -1.85
Q 2098.15 -1.5 2097.95 -1 2097.75 0.3 2097.05 0.9 2096.95 1 2096.85 1.05 2095.75 2.85 2094.95 3.4 2093.95 4.05 2093.1 4.5 2091.85 5.25 2090.95 5.6 2088.25 6.6 2084.45 6.6 2081 6.6 2078.05 5.5
L 2075.8 4.35
Q 2073.9 2.55 2073.05 1.25 2072.4 0.3 2071.8 -1.85
L 2071.4 -3.35
Q 2071.35 -3.85 2071.2 -4.05
L 2071.2 -4.45
Q 2071.2 -5.5 2071.3 -6.5 2071.45 -7.35 2071.55 -7.95 2071.65 -8.4 2071.75 -8.7 2072.05 -10 2072.2 -10.7 2072.5 -11.85 2073 -12.75 2073.25 -13.25 2073.7 -13.85 2073.85 -14 2074 -14.2 2074.1 -14.3 2074.25 -14.4 2074.3 -14.55 2074.35 -14.6
L 2074.35 -14.65
Q 2075.2 -15.6 2076.45 -16.75
M 2075.5 -6.5
Q 2075.4 -6.5 2075.35 -6.5 2074.85 -6.5 2074.75 -6.25
L 2074.75 -5.8
Q 2074.75 -5.35 2075 -5.05 2075.3 -4.7 2076.3 -4.15 2076.8 -3.85 2077.75 -3.15 2078.65 -2.6 2079.45 -2.6 2080.4 -2.6 2081.45 -4.85 2081.75 -5.3 2082.45 -6.15 2083 -6.9 2083 -7.45 2083 -7.75 2082.95 -7.85 2082.8 -8.1 2082.3 -7.95 2081.05 -7.2 2079.8 -5.15 2079.75 -5.25 2079.7 -5.3 2079.5 -5.75 2079.4 -6.45 2079.45 -6.65 2079.45 -6.8 2079.45 -6.95 2079.5 -7.05
L 2079.9 -8.55
Q 2080 -8.8 2080.35 -9.35 2080.4 -9.4 2080.45 -9.45 2081.15 -10 2082.4 -10.55 2085.35 -11.75 2087.7 -10.4 2090.4 -8.85 2091 -6.35 2091.3 -5.05 2091.05 -4.05 2091.05 -3.05 2090.75 -1.9 2090.75 -1.85 2090.15 -1.1 2089.8 -0.65 2090.05 0.2 2090.75 0.4 2091.3 -0.15 2091.45 -0.3 2091.85 -1 2093.15 -3.25 2092.8 -6.15 2092.3 -10.35 2087.7 -12.15 2084.8 -13.2 2082.05 -12.3 2080.75 -11.85 2079.8 -11.05
L 2079.75 -11.05
Q 2079.65 -10.95 2079.55 -10.85 2078.55 -9.9 2078.4 -9.3 2077.95 -7.55 2077.85 -7.25 2077.8 -7.15 2077.75 -7.05 2077.75 -7 2077.75 -6.95 2077.75 -6.9 2077.75 -6.8 2077.75 -6.05 2077.85 -5.45 2077.35 -5.75 2076.9 -5.95
L 2076.85 -5.95
Q 2076.3 -6.35 2075.8 -6.7 2075.6 -6.6 2075.5 -6.5 Z"/>

<path fill="#FFFFFF" stroke="none" d="
M 2084.45 -19.95
Q 2079.05 -19.35 2076.45 -16.75 2075.2 -15.6 2074.35 -14.65
L 2074.35 -14.6
Q 2074.3 -14.55 2074.25 -14.4 2074.1 -14.3 2074 -14.2 2073.85 -14 2073.7 -13.85 2073.25 -13.25 2073 -12.75 2072.5 -11.85 2072.2 -10.7 2072.05 -10 2071.75 -8.7 2071.65 -8.4 2071.55 -7.95 2071.45 -7.35 2071.3 -6.5 2071.2 -5.5 2071.2 -4.45
L 2071.2 -4.05
Q 2071.35 -3.85 2071.4 -3.35
L 2071.8 -1.85
Q 2072.4 0.3 2073.05 1.25 2073.9 2.55 2075.8 4.35
L 2078.05 5.5
Q 2081 6.6 2084.45 6.6 2088.25 6.6 2090.95 5.6 2091.85 5.25 2093.1 4.5 2093.95 4.05 2094.95 3.4 2095.75 2.85 2096.85 1.05 2096.95 1 2097.05 0.9 2097.75 0.3 2097.95 -1 2098.15 -1.5 2098.25 -1.85
L 2098.65 -4.5 2098.55 -5.3 2098.55 -6.7
Q 2098.55 -8.7 2098.4 -9.5 2098.2 -10.8 2097.35 -12.8 2095.9 -16.1 2091 -18.75 2090.95 -18.75 2090.95 -18.8 2089.95 -19.15 2088.6 -19.5 2087.35 -19.8 2086.9 -19.95
L 2084.45 -19.95
M 2075.35 -6.5
Q 2075.4 -6.5 2075.5 -6.5 2075.6 -6.6 2075.8 -6.7 2076.3 -6.35 2076.85 -5.95
L 2076.9 -5.95
Q 2077.35 -5.75 2077.85 -5.45 2077.75 -6.05 2077.75 -6.8 2077.75 -6.9 2077.75 -6.95 2077.75 -7 2077.75 -7.05 2077.8 -7.15 2077.85 -7.25 2077.95 -7.55 2078.4 -9.3 2078.55 -9.9 2079.55 -10.85 2079.65 -10.95 2079.75 -11.05
L 2079.8 -11.05
Q 2080.75 -11.85 2082.05 -12.3 2084.8 -13.2 2087.7 -12.15 2092.3 -10.35 2092.8 -6.15 2093.15 -3.25 2091.85 -1 2091.45 -0.3 2091.3 -0.15 2090.75 0.4 2090.05 0.2 2089.8 -0.65 2090.15 -1.1 2090.75 -1.85 2090.75 -1.9 2091.05 -3.05 2091.05 -4.05 2091.3 -5.05 2091 -6.35 2090.4 -8.85 2087.7 -10.4 2085.35 -11.75 2082.4 -10.55 2081.15 -10 2080.45 -9.45 2080.4 -9.4 2080.35 -9.35 2080 -8.8 2079.9 -8.55
L 2079.5 -7.05
Q 2079.45 -6.95 2079.45 -6.8 2079.45 -6.65 2079.4 -6.45 2079.5 -5.75 2079.7 -5.3 2079.75 -5.25 2079.8 -5.15 2081.05 -7.2 2082.3 -7.95 2082.8 -8.1 2082.95 -7.85 2083 -7.75 2083 -7.45 2083 -6.9 2082.45 -6.15 2081.75 -5.3 2081.45 -4.85 2080.4 -2.6 2079.45 -2.6 2078.65 -2.6 2077.75 -3.15 2076.8 -3.85 2076.3 -4.15 2075.3 -4.7 2075 -5.05 2074.75 -5.35 2074.75 -5.8
L 2074.75 -6.25
Q 2074.85 -6.5 2075.35 -6.5 Z"/>
</g>
</defs>

<g transform="matrix( 1.0067138671875, 0, 0, 1, -2083.95,20.95) ">
<use xlink:href="#Layer0_0_FILL"/>
</g>
</svg>
