
<svg xmlns="http://www.w3.org/2000/svg" version="1.1" xmlns:xlink="http://www.w3.org/1999/xlink" preserveAspectRatio="none" x="0px" y="0px" width="96px" height="28px" viewBox="0 0 96 28">
<defs>
<g id="Layer0_0_FILL">
<path fill="#000000" stroke="none" d="
M 2047.3 601.35
Q 2047.3 599.85 2047.2 599.1 2047.15 598.6 2047 598.2
L 2047 597.25
Q 2046.45 596.1 2044.95 595.55 2044.45 595.25 2043.9 595.05 2043.6 594.95 2041.95 594.9 2039.2 594.85 2036.9 594.8 2028.55 594.3 2023.9 594.05
L 2010.15 594.05 2010.15 594.1
Q 2002 594.45 2000.75 594.6
L 1963.15 594.6
Q 1961.7 594.3 1956.9 594.3 1956.65 594.3 1956.4 594.3 1956.1 594.3 1956 594.35 1955.9 594.35 1955.85 594.45 1954 594.75 1952.9 595.45 1951.4 596.45 1951.1 598.3 1951 598.8 1951 599.4 1951 601 1951.4 604.35 1951.75 607.75 1951.75 609.75
L 1951.25 616.95
Q 1951.25 617.15 1951.25 617.35 1951.35 618.8 1952.25 619.6 1952.8 620.55 1954.65 621.2
L 1961 621.35
Q 1961.35 621.45 1963.1 621.65 1963.2 621.65 1963.4 621.7
L 1972.9 621.7
Q 1985 620.6 1985.9 620.6
L 1990.25 620.6
Q 1991.45 620.75 1994.2 621.2 1997.45 621.55 2002.9 621.35
L 2032.4 621.35
Q 2034.45 621.55 2036.35 621.5 2038 621.7 2038.9 621.95
L 2040.65 621.95
Q 2041.1 621.85 2041.25 621.45
L 2041.9 621.45 2042.4 621.35
Q 2042.45 621.3 2042.5 621.05 2045.85 620.4 2046.9 619.35 2047.6 618.65 2047.5 616.35
L 2047.5 610.1
Q 2047.55 604.2 2047.3 601.35
M 2045.35 598.55
Q 2045.5 599.2 2046 599.4 2046.25 600.6 2046.25 602.85 2046.55 605.3 2046.25 610.1 2046.25 610.45 2046.3 612.5 2046.35 613.7 2046.3 614.6 2046.2 615.4 2046.15 616.6 2046 617.65 2043 618.85 2040.2 620 2038.5 620.1
L 2037.95 620.1
Q 2036.55 620 2035.4 619.95 2031.25 619.7 2030.65 619.7
L 2011.65 619.7
Q 2011.4 619.8 2007.8 619.9
L 2000.65 619.85
Q 1991.9 619.5 1991.4 619.2
L 1979.9 619.2
Q 1979.7 619.3 1978.35 619.4 1976.95 619.55 1976.75 619.6
L 1965.65 619.6
Q 1965.55 619.55 1961.4 619.7 1961.1 619.7 1961 619.75 1960.85 619.8 1960.8 619.95
L 1957.4 619.9
Q 1955.35 619.65 1954.25 619.25 1953.7 619.05 1953.35 618.75 1953.25 618.45 1953.25 617.5 1953.75 612.4 1953.75 611.75 1953.75 610.1 1953.25 606.6 1953.35 604.95 1953.25 603.95 1953.1 602.8 1952.4 602.45 1952.25 600.9 1952.25 599.45 1952.25 596.5 1956.8 595.5 1962.1 595.65 1963.15 595.95
L 2001.15 595.95
Q 2009.95 595.45 2010.15 595.35
L 2023.75 595.35
Q 2024.7 595.35 2032.95 595.75 2039.55 596.05 2042.35 596.1 2043.15 596.55 2044.85 597.25 2044.9 597.3 2045 597.35 2045.1 597.6 2045.35 598.55 Z"/>

<path fill="#FFFFFF" stroke="none" d="
M 2046 599.4
Q 2045.5 599.2 2045.35 598.55 2045.1 597.6 2045 597.35 2044.9 597.3 2044.85 597.25 2043.15 596.55 2042.35 596.1 2039.55 596.05 2032.95 595.75 2024.7 595.35 2023.75 595.35
L 2010.15 595.35
Q 2009.95 595.45 2001.15 595.95
L 1963.15 595.95
Q 1962.1 595.65 1956.8 595.5 1952.25 596.5 1952.25 599.45 1952.25 600.9 1952.4 602.45 1953.1 602.8 1953.25 603.95 1953.35 604.95 1953.25 606.6 1953.75 610.1 1953.75 611.75 1953.75 612.4 1953.25 617.5 1953.25 618.45 1953.35 618.75 1953.7 619.05 1954.25 619.25 1955.35 619.65 1957.4 619.9
L 1960.8 619.95
Q 1960.85 619.8 1961 619.75 1961.1 619.7 1961.4 619.7 1965.55 619.55 1965.65 619.6
L 1976.75 619.6
Q 1976.95 619.55 1978.35 619.4 1979.7 619.3 1979.9 619.2
L 1991.4 619.2
Q 1991.9 619.5 2000.65 619.85
L 2007.8 619.9
Q 2011.4 619.8 2011.65 619.7
L 2030.65 619.7
Q 2031.25 619.7 2035.4 619.95 2036.55 620 2037.95 620.1
L 2038.5 620.1
Q 2040.2 620 2043 618.85 2046 617.65 2046.15 616.6 2046.2 615.4 2046.3 614.6 2046.35 613.7 2046.3 612.5 2046.25 610.45 2046.25 610.1 2046.55 605.3 2046.25 602.85 2046.25 600.6 2046 599.4
M 2036.15 605.4
Q 2035.7 605 2035.25 604.6 2035 604.55 2034.8 604.4 2034.65 604.25 2034.55 604.15 2034.5 604.05 2034.35 604 2034.1 603.75 2033.95 603.55 2033.8 603.45 2033.65 603.3 2033.65 603.25 2033.65 603.1 2033.65 602.9 2033.65 602.7 2033.65 602.45 2033.75 602.3 2033.85 602.2 2033.95 602.15 2034 602.1 2034.1 602.05 2034.25 602.05 2034.3 602 2034.35 602 2034.35 601.95 2035 602.2 2035.45 602.75 2035.85 603.2 2036.25 603.6 2036.85 603.8 2037.25 604.25 2037.6 604.65 2038 605 2038.3 605.2 2038.65 605.35 2039.1 605.45 2039.4 605.85 2039.45 605.95 2039.5 605.95 2039.6 606.05 2039.8 606.1 2039.95 606.2 2040.05 606.3 2040.1 606.55 2040.15 606.75 2040.2 607.1 2040.15 607.35 2040.15 607.6 2040.1 607.8 2039.95 607.95 2039.7 608.1 2039.4 608.25 2039.05 608.35 2038.65 608.8 2038.1 609.2 2037.65 609.5 2037.1 609.75 2037 609.85 2036.9 609.95 2036.85 610 2036.85 610.1 2036.7 610.1 2036.6 610.15 2036.45 610.2 2036.25 610.25 2036.1 610.5 2035.85 610.65 2035.45 610.9 2035.1 611.15 2034.7 611.55 2034.3 612 2033.85 612.4 2033.4 612.85 2033.3 612.95 2033.2 613 2033.05 613.05 2032.95 613.05 2032.75 613 2032.5 612.9 2032.4 612.8 2032.25 612.7 2032.25 612.65 2032.25 612.5 2032.25 612.4 2032.25 612.25 2032.25 612.2 2032.25 612.05 2032.25 611.95 2032.25 611.85 2032.25 611.75 2032.3 611.65 2032.45 611.55 2032.55 611.4 2032.7 611.35 2032.8 611.25 2033 611.1 2033.25 610.95 2033.65 610.55 2034.1 610.15 2034.55 609.75 2035 609.3 2035.1 609.2 2035.2 609.15 2035.4 609.05 2035.5 609.05 2035.65 608.95 2035.8 608.8 2035.85 608.7 2035.9 608.65 2036.15 608.6 2036.4 608.4 2036.7 608.3 2036.95 608.15 2037.05 608.05 2037.25 607.95
L 2037.3 607.85
Q 2035.95 607.8 2034.7 607.8 2034.6 607.85 2034.55 607.85 2034.45 607.9 2034.35 607.95 2034 607.95 2033.65 607.95 2030.75 607.95 2027.85 607.95 2027.55 607.9 2027.25 607.8 2027 607.7 2026.95 607.6 2026.85 607.5 2026.75 607.35 2026.75 607.25 2026.75 607.2 2026.75 607.1 2026.85 607 2026.95 606.8 2027.15 606.75 2027.25 606.7 2027.45 606.55 2027.65 606.55 2027.85 606.55 2027.9 606.45 2028.2 606.35 2028.25 606.35 2028.35 606.35 2028.55 606.3 2028.8 606.3 2028.85 606.3 2028.85 606.25 2029.3 606.3 2029.8 606.45 2029.9 606.5 2030 606.55 2031.8 606.45 2033.65 606.35 2034.1 606.35 2034.55 606.3 2035.7 606.25 2036.85 606.1 2036.5 605.75 2036.15 605.4 Z"/>

<path fill="#333333" stroke="none" d="
M 2035.25 604.6
Q 2035.7 605 2036.15 605.4 2036.5 605.75 2036.85 606.1 2035.7 606.25 2034.55 606.3 2034.1 606.35 2033.65 606.35 2031.8 606.45 2030 606.55 2029.9 606.5 2029.8 606.45 2029.3 606.3 2028.85 606.25 2028.85 606.3 2028.8 606.3 2028.55 606.3 2028.35 606.35 2028.25 606.35 2028.2 606.35 2027.9 606.45 2027.85 606.55 2027.65 606.55 2027.45 606.55 2027.25 606.7 2027.15 606.75 2026.95 606.8 2026.85 607 2026.75 607.1 2026.75 607.2 2026.75 607.25 2026.75 607.35 2026.85 607.5 2026.95 607.6 2027 607.7 2027.25 607.8 2027.55 607.9 2027.85 607.95 2030.75 607.95 2033.65 607.95 2034 607.95 2034.35 607.95 2034.45 607.9 2034.55 607.85 2034.6 607.85 2034.7 607.8 2035.95 607.8 2037.3 607.85
L 2037.25 607.95
Q 2037.05 608.05 2036.95 608.15 2036.7 608.3 2036.4 608.4 2036.15 608.6 2035.9 608.65 2035.85 608.7 2035.8 608.8 2035.65 608.95 2035.5 609.05 2035.4 609.05 2035.2 609.15 2035.1 609.2 2035 609.3 2034.55 609.75 2034.1 610.15 2033.65 610.55 2033.25 610.95 2033 611.1 2032.8 611.25 2032.7 611.35 2032.55 611.4 2032.45 611.55 2032.3 611.65 2032.25 611.75 2032.25 611.85 2032.25 611.95 2032.25 612.05 2032.25 612.2 2032.25 612.25 2032.25 612.4 2032.25 612.5 2032.25 612.65 2032.25 612.7 2032.4 612.8 2032.5 612.9 2032.75 613 2032.95 613.05 2033.05 613.05 2033.2 613 2033.3 612.95 2033.4 612.85 2033.85 612.4 2034.3 612 2034.7 611.55 2035.1 611.15 2035.45 610.9 2035.85 610.65 2036.1 610.5 2036.25 610.25 2036.45 610.2 2036.6 610.15 2036.7 610.1 2036.85 610.1 2036.85 610 2036.9 609.95 2037 609.85 2037.1 609.75 2037.65 609.5 2038.1 609.2 2038.65 608.8 2039.05 608.35 2039.4 608.25 2039.7 608.1 2039.95 607.95 2040.1 607.8 2040.15 607.6 2040.15 607.35 2040.2 607.1 2040.15 606.75 2040.1 606.55 2040.05 606.3 2039.95 606.2 2039.8 606.1 2039.6 606.05 2039.5 605.95 2039.45 605.95 2039.4 605.85 2039.1 605.45 2038.65 605.35 2038.3 605.2 2038 605 2037.6 604.65 2037.25 604.25 2036.85 603.8 2036.25 603.6 2035.85 603.2 2035.45 602.75 2035 602.2 2034.35 601.95 2034.35 602 2034.3 602 2034.25 602.05 2034.1 602.05 2034 602.1 2033.95 602.15 2033.85 602.2 2033.75 602.3 2033.65 602.45 2033.65 602.7 2033.65 602.9 2033.65 603.1 2033.65 603.25 2033.65 603.3 2033.8 603.45 2033.95 603.55 2034.1 603.75 2034.35 604 2034.5 604.05 2034.55 604.15 2034.65 604.25 2034.8 604.4 2035 604.55 2035.25 604.6 Z"/>
</g>
</defs>

<g transform="matrix( 0.99481201171875, 0, 0, 1.0035858154296875, -1940.9,-596.2) ">
<use xlink:href="#Layer0_0_FILL"/>
</g>
</svg>
