
<svg xmlns="http://www.w3.org/2000/svg" version="1.1" xmlns:xlink="http://www.w3.org/1999/xlink" preserveAspectRatio="none" x="0px" y="0px" width="96px" height="28px" viewBox="0 0 96 28">
<defs>
<g id="Layer0_0_FILL">
<path fill="#000000" stroke="none" d="
M 1780.45 598.2
L 1780.45 597.25
Q 1779.9 596.1 1778.4 595.55 1777.9 595.25 1777.35 595.05 1777.05 594.95 1775.4 594.9 1772.65 594.85 1770.35 594.8 1762 594.3 1757.35 594.05
L 1743.6 594.05 1743.6 594.1
Q 1735.45 594.45 1734.2 594.6
L 1696.6 594.6
Q 1695.15 594.3 1690.35 594.3 1690.1 594.3 1689.85 594.3 1689.55 594.3 1689.45 594.35 1689.35 594.35 1689.3 594.45 1687.45 594.75 1686.35 595.45 1684.85 596.45 1684.55 598.3 1684.45 598.8 1684.45 599.4 1684.45 601 1684.85 604.35 1685.2 607.75 1685.2 609.75
L 1684.7 616.95
Q 1684.7 617.15 1684.7 617.35 1684.8 618.8 1685.7 619.6 1686.25 620.55 1688.1 621.2
L 1694.45 621.35
Q 1694.8 621.45 1696.55 621.65 1696.65 621.65 1696.85 621.7
L 1706.35 621.7
Q 1718.45 620.6 1719.35 620.6
L 1723.7 620.6
Q 1724.9 620.75 1727.65 621.2 1730.9 621.55 1736.35 621.35
L 1765.85 621.35
Q 1767.9 621.55 1769.8 621.5 1771.45 621.7 1772.35 621.95
L 1774.1 621.95
Q 1774.55 621.85 1774.7 621.45
L 1775.35 621.45 1775.85 621.35
Q 1775.9 621.3 1775.95 621.05 1779.3 620.4 1780.35 619.35 1781.05 618.65 1780.95 616.35
L 1780.95 610.1
Q 1781 604.2 1780.75 601.35 1780.75 599.85 1780.65 599.1 1780.6 598.6 1780.45 598.2
M 1778.8 598.55
Q 1778.95 599.2 1779.45 599.4 1779.7 600.6 1779.7 602.85 1780 605.3 1779.7 610.1 1779.7 610.45 1779.75 612.5 1779.8 613.7 1779.75 614.6 1779.65 615.4 1779.6 616.6 1779.45 617.65 1776.45 618.85 1773.65 620 1771.95 620.1
L 1771.4 620.1
Q 1770 620 1768.85 619.95 1764.7 619.7 1764.1 619.7
L 1745.1 619.7
Q 1744.85 619.8 1741.25 619.9
L 1734.1 619.85
Q 1725.35 619.5 1724.85 619.2
L 1713.35 619.2
Q 1713.15 619.3 1711.8 619.4 1710.4 619.55 1710.2 619.6
L 1699.1 619.6
Q 1699 619.55 1694.85 619.7 1694.55 619.7 1694.45 619.75 1694.3 619.8 1694.25 619.95
L 1690.85 619.9
Q 1688.8 619.65 1687.7 619.25 1687.15 619.05 1686.8 618.75 1686.7 618.45 1686.7 617.5 1687.2 612.4 1687.2 611.75 1687.2 610.1 1686.7 606.6 1686.8 604.95 1686.7 603.95 1686.55 602.8 1685.85 602.45 1685.7 600.9 1685.7 599.45 1685.7 596.5 1690.25 595.5 1695.55 595.65 1696.6 595.95
L 1734.6 595.95
Q 1743.4 595.45 1743.6 595.35
L 1757.2 595.35
Q 1758.15 595.35 1766.4 595.75 1773 596.05 1775.8 596.1 1776.6 596.55 1778.3 597.25 1778.35 597.3 1778.45 597.35 1778.55 597.6 1778.8 598.55 Z"/>

<path fill="#FFFFFF" stroke="none" d="
M 1779.45 599.4
Q 1778.95 599.2 1778.8 598.55 1778.55 597.6 1778.45 597.35 1778.35 597.3 1778.3 597.25 1776.6 596.55 1775.8 596.1 1773 596.05 1766.4 595.75 1758.15 595.35 1757.2 595.35
L 1743.6 595.35
Q 1743.4 595.45 1734.6 595.95
L 1696.6 595.95
Q 1695.55 595.65 1690.25 595.5 1685.7 596.5 1685.7 599.45 1685.7 600.9 1685.85 602.45 1686.55 602.8 1686.7 603.95 1686.8 604.95 1686.7 606.6 1687.2 610.1 1687.2 611.75 1687.2 612.4 1686.7 617.5 1686.7 618.45 1686.8 618.75 1687.15 619.05 1687.7 619.25 1688.8 619.65 1690.85 619.9
L 1694.25 619.95
Q 1694.3 619.8 1694.45 619.75 1694.55 619.7 1694.85 619.7 1699 619.55 1699.1 619.6
L 1710.2 619.6
Q 1710.4 619.55 1711.8 619.4 1713.15 619.3 1713.35 619.2
L 1724.85 619.2
Q 1725.35 619.5 1734.1 619.85
L 1741.25 619.9
Q 1744.85 619.8 1745.1 619.7
L 1764.1 619.7
Q 1764.7 619.7 1768.85 619.95 1770 620 1771.4 620.1
L 1771.95 620.1
Q 1773.65 620 1776.45 618.85 1779.45 617.65 1779.6 616.6 1779.65 615.4 1779.75 614.6 1779.8 613.7 1779.75 612.5 1779.7 610.45 1779.7 610.1 1780 605.3 1779.7 602.85 1779.7 600.6 1779.45 599.4 Z"/>
</g>
</defs>

<g transform="matrix( 0.99481201171875, 0, 0, 1.0035858154296875, -1675.7,-596.2) ">
<use xlink:href="#Layer0_0_FILL"/>
</g>
</svg>
