
<svg xmlns="http://www.w3.org/2000/svg" version="1.1" xmlns:xlink="http://www.w3.org/1999/xlink" preserveAspectRatio="none" x="0px" y="0px" width="352px" height="232px" viewBox="0 0 352 232">
<defs>
<filter id="Filter_1" x="-20%" y="-20%" width="140%" height="140%" color-interpolation-filters="sRGB">
<feFlood flood-color="#666666" flood-opacity="1" in="SourceGraphic" result="result1"/>

<feComposite in2="SourceGraphic" in="result1" operator="in" result="result2"/>

<feGaussianBlur in="result2" stdDeviation="1,1" result="result3"/>

<feOffset dx="1.4142135623730951" dy="1.4142135623730951" in="result3" result="result4"/>

<feComposite in2="result4" in="SourceGraphic" operator="over" result="result5"/>
</filter>

<g id="SubinstructionClip_0_Layer2_0_FILL">
<path fill="#FFFFFF" fill-opacity="0.8980392156862745" stroke="none" d="
M 277.5 54.45
Q 273.6 52.45 269.55 50.6
L 265.2 0 219.3 35.2
Q 192.9 30.3 162.55 30.3 95.2 30.3 47.6 54.45 0 78.6 0 112.65 0 146.75 47.6 170.9 95.2 195 162.55 195 229.9 195 277.5 170.9 325.1 146.75 325.1 112.65 325.1 78.6 277.5 54.45 Z"/>
</g>

<g id="CloseButton_0_Layer1_0_FILL">
<path fill="#FFFFFF" fill-opacity="0" stroke="none" d="
M -14.15 -13.75
L -14.15 13.75 14.1 13.75 14.1 -13.75 -14.15 -13.75 Z"/>
</g>

<path id="CloseButton_0_Layer0_0_MEMBER_0_1_STROKES" stroke="#6464BD" stroke-width="3" stroke-linejoin="round" stroke-linecap="round" fill="none" d="
M -6.45 -6.5
L 0 -0.05 6.5 -6.55
M 6.55 6.5
L 0 -0.05 -6.5 6.4"/>
</defs>

<g filter="url(#Filter_1)" transform="matrix( 1, 0, 0, 1, 0,0) ">
<g id="subinstructionClip" transform="matrix( 1, 0, 0, 1, 10.95,10.5) ">
<g transform="matrix( 1, 0, 0, 1, 0,0) ">
<use xlink:href="#SubinstructionClip_0_Layer2_0_FILL"/>
</g>

<g id="textField" transform="matrix( 1, 0, 0, 1, 24,71.5) ">
<clipPath id="Mask_Mask_1">
<rect x="-2" y="-2" width="282.55" height="90.5" fill="#FFFFFF" stroke="none"/>
</clipPath>

<text clip-path="url(#Mask_Mask_1)" writing-mode="lr"/>
</g>

<g id="closeButton" transform="matrix( 1, 0, 0, 1, 245.85,53.3) ">
<g transform="matrix( 1, 0, 0, 1, 0,0) ">
<use xlink:href="#CloseButton_0_Layer1_0_FILL"/>
</g>

<g transform="matrix( 1, 0, 0, 1, 0,0) ">
<use xlink:href="#CloseButton_0_Layer0_0_MEMBER_0_1_STROKES"/>
</g>
</g>
</g>
</g>
</svg>
