
<svg xmlns="http://www.w3.org/2000/svg" version="1.1" xmlns:xlink="http://www.w3.org/1999/xlink" preserveAspectRatio="none" x="0px" y="0px" width="60px" height="55px" viewBox="0 0 60 55">
<defs>
<g id="glosnik_0_Layer0_0_MEMBER_0_FILL">
<path fill="#8B8BCB" stroke="none" d="
M -16.3 -16.3
Q -23.05 -9.6 -23.05 -0.05 -23.05 9.5 -16.3 16.25 -9.55 23.05 -0.05 23.05 9.55 23.05 16.25 16.25 23.05 9.5 23.05 0 23.05 -9.6 16.25 -16.3 9.55 -23.05 -0.05 -23.05 -9.55 -23.05 -16.3 -16.3 Z"/>
</g>

<path id="heroCluodMc_0_Layer0_0_1_STROKES" stroke="#6464BD" stroke-width="2.5" stroke-linejoin="round" stroke-linecap="round" fill="none" d="
M 23.4 15.1
Q 26.45 12.6 26.45 9.2 26.45 5.4 22.55 2.65 18.7 0 13.2 0 7.75 0 3.85 2.65 0 5.4 0 9.2 0 13.1 3.85 15.75 7.75 18.5 13.2 18.5 16.85 18.5 19.7 17.3
L 26.8 22.85
Q 24.35 20.15 23.4 15.1 Z"/>
</defs>

<g id="subinstructionButton" transform="matrix( 1, 0, 0, 1, 30,27.5) ">
<g transform="matrix( 1, 0, 0, 1, 0,0) ">
<use xlink:href="#glosnik_0_Layer0_0_MEMBER_0_FILL"/>
</g>

<g id="heroCloudComp" transform="matrix( 1.1662445068359375, 0, 0, 1.1662445068359375, -16.45,-13.45) ">
<g transform="matrix( 1, 0, 0, 1, 0,0) ">
<use xlink:href="#heroCluodMc_0_Layer0_0_1_STROKES"/>
</g>
</g>
</g>
</svg>
