
<svg xmlns="http://www.w3.org/2000/svg" version="1.1" xmlns:xlink="http://www.w3.org/1999/xlink" preserveAspectRatio="none" x="0px" y="0px" width="24px" height="24px" viewBox="0 0 24 24">
<defs>
<g id="Layer0_0_FILL">
<path fill="#000000" stroke="none" d="
M 2147.1 210.5
Q 2147 209.75 2146.75 209.05 2146.15 206.7 2145.05 204.75 2144.95 204.55 2144.85 204.35 2144.2 203.05 2143.3 202.25 2141.5 200.7 2139.5 200.05 2138.55 199.7 2137.55 199.35 2132.95 198.3 2129.15 200.55 2126.55 202.2 2124.6 204.6 2123.4 206 2123.05 208.2 2122.95 208.9 2122.9 209.75 2122.7 212.9 2123.65 215.7 2124.2 217.4 2124.85 219.1 2125.95 220.8 2127.85 221.7 2129.25 222.35 2130.8 222.5 2134.05 222.85 2137.35 222.85 2142.5 222.6 2145.45 218.6 2145.95 217.85 2146.3 217.05 2146.6 216.3 2146.75 215.7 2147.55 213.3 2147.1 210.5
M 2144.7 207.1
L 2144.7 207.6
Q 2145.8 209 2145.9 210.5 2145.95 211.9 2145.95 213.3 2145.95 213.85 2145.85 214.3 2145.65 215.55 2145.1 216.75 2145 217.15 2144.65 217.55 2143.85 218.85 2142.55 219.6 2141.15 220.45 2139.6 220.85 2134.6 222.55 2129.7 221.2 2127.95 220.65 2127.15 219.45 2126.5 218.3 2125.75 217.2 2125.45 216.8 2125.3 216.2 2125 214.9 2124.6 213.65 2123.9 211.25 2124.25 208.65 2124.3 208.4 2124.35 207.95 2124.55 207 2125.3 205.85 2126.6 204.05 2128.4 202.6 2129.75 201.45 2131.6 200.85 2131.9 200.85 2132.15 200.95 2134.05 201.1 2135.85 200.45 2137.15 201.65 2139.05 202.45 2140.95 203.35 2142.5 204.6
L 2144.7 207.1 Z"/>

<path fill="#AFD67C" stroke="none" d="
M 2144.7 207.6
L 2144.7 207.1 2142.5 204.6
Q 2140.95 203.35 2139.05 202.45 2137.15 201.65 2135.85 200.45 2134.05 201.1 2132.15 200.95 2131.9 200.85 2131.6 200.85 2129.75 201.45 2128.4 202.6 2126.6 204.05 2125.3 205.85 2124.55 207 2124.35 207.95 2124.3 208.4 2124.25 208.65 2123.9 211.25 2124.6 213.65 2125 214.9 2125.3 216.2 2125.45 216.8 2125.75 217.2 2126.5 218.3 2127.15 219.45 2127.95 220.65 2129.7 221.2 2134.6 222.55 2139.6 220.85 2141.15 220.45 2142.55 219.6 2143.85 218.85 2144.65 217.55 2145 217.15 2145.1 216.75 2145.65 215.55 2145.85 214.3 2145.95 213.85 2145.95 213.3 2145.95 211.9 2145.9 210.5 2145.8 209 2144.7 207.6
M 2138.15 203.85
Q 2138.35 203.85 2138.6 203.9 2138.7 204.05 2138.8 204.1 2138.9 204.15 2139 204.25 2139.05 204.35 2139.05 204.45 2139.05 204.55 2139.05 204.6 2139.1 204.7 2139.1 204.85 2139.05 204.85 2139.05 204.9 2139.05 205 2139.1 205.05 2139.1 205.3 2139.1 205.4 2139.1 205.8 2139.1 206.1 2139.1 206.35 2139.1 206.65 2139.05 206.7 2139.05 206.75 2139 206.85 2138.9 206.95 2138.8 207.15 2138.7 207.35 2138.7 207.4 2138.65 207.45 2138.55 207.55 2138.35 207.65 2138.15 207.75 2138 207.85 2137.8 207.9 2137.6 208 2137.45 208 2137.3 208.05 2137.2 208.05 2137.15 208 2136.6 209.1 2136.2 210.15 2135.45 211.9 2134.65 213.5 2134.6 213.65 2134.6 213.75 2134.6 213.8 2134.6 213.85 2134.6 214 2134.6 214.05 2134.6 214.15 2134.6 214.25 2134.5 214.5 2134.4 214.7 2134.2 215.25 2133.9 215.65 2133.85 215.8 2133.8 215.9 2133.8 216.05 2133.8 216.15 2133.8 216.2 2133.8 216.3 2133.8 216.35 2133.8 216.5 2133.75 216.55 2133.7 216.6 2133.65 216.7 2133.6 216.8 2133.5 216.9 2133.5 217 2133.5 217.1 2133.5 217.15 2133.5 217.2 2133.5 217.35 2133.5 217.4 2133.5 217.5 2133.45 217.65 2133.4 217.85 2133.3 218 2133.25 218.2 2133.2 218.35 2133.15 218.55 2133.15 218.6 2132.95 218.7 2132.95 218.75 2132.8 218.85 2132.65 218.9 2132.55 219 2132.4 219 2132.25 219.05 2132.05 219 2131.75 218.9 2131.65 218.8 2131.55 218.75 2131.35 218.7 2131.35 218.6 2131.2 218.4 2131.1 218.25 2131 218.15 2131 218 2130.95 218 2130.95 217.9 2130.95 217.8 2130.95 217.75 2130.95 217.6 2130.95 217.55 2130.95 217.45 2130.9 217.4 2130.85 217.35 2130.8 217.2 2130.75 217.1 2130.7 217.05 2130.7 216.95 2130.7 216.9 2130.7 216.75 2130.7 216.7 2130.7 216.55 2130.5 216.35 2130.45 216.1 2130.35 215.85 2130.3 215.7 2130.15 215.45 2130.15 215.4 2130.15 215.35 2130.15 215.25 2130.15 215.15 2130.15 215.05 2130.15 214.95 2130.05 214.65 2129.85 214.25 2129.6 213.8 2129.55 213.3 2129.5 213.15 2129.5 212.95 2129.25 212.85 2129 212.65 2128.9 212.6 2128.8 212.5 2128.7 212.4 2128.6 212.4 2128.45 212.25 2128.45 212.15 2128.35 212 2128.35 211.8 2128.3 211.5 2128.35 211.15 2128.35 211.1 2128.3 211 2128.3 210.95 2128.3 210.85 2128.3 210.75 2128.35 210.7 2128.35 210.55 2128.45 210.5 2128.45 210.45 2128.5 210.35 2128.65 210.25 2128.75 210.15 2128.85 210.1 2129 210.05 2129.15 210 2129.3 210 2129.5 210 2129.6 210 2129.65 210 2129.75 210.05
L 2129.85 210
Q 2130.05 210.05 2130.35 210.1 2130.45 210.25 2130.6 210.3 2130.7 210.35 2130.7 210.45 2130.75 210.5 2130.8 210.65 2130.8 210.75 2130.85 210.8 2130.85 210.85 2130.85 210.95 2131 211.2 2131.15 211.5 2131.15 211.6 2131.15 211.65 2131.15 211.7 2131.15 211.8 2131.55 212.4 2131.65 213 2131.8 213.75 2132.05 214.45 2132.15 214.5 2132.2 214.55
L 2132.2 214.6
Q 2132.25 214.55 2132.25 214.5 2132.4 214.3 2132.5 214.2 2132.5 214.05 2132.55 213.8 2132.55 213.75 2132.55 213.65
L 2132.55 213.5
Q 2132.55 213.4 2132.55 213.3 2132.55 213.25 2132.55 213.15 2132.6 213.05 2132.65 212.95 2132.75 212.85 2132.8 212.85 2132.95 212.6 2133.05 212.45 2133.15 212.4 2133.2 212.25 2133.75 210 2134.75 207.95 2135.65 206.4 2136.55 205 2136.65 204.75 2136.8 204.6 2137 204.3 2137.2 204.05 2137.2 203.95 2137.4 203.9 2137.45 203.85 2137.5 203.85 2137.65 203.85 2137.85 203.85
L 2137.85 203.8
Q 2138 203.8 2138.15 203.85 Z"/>

<path fill="#3E710F" stroke="none" d="
M 2138.6 203.9
Q 2138.35 203.85 2138.15 203.85 2138 203.8 2137.85 203.8
L 2137.85 203.85
Q 2137.65 203.85 2137.5 203.85 2137.45 203.85 2137.4 203.9 2137.2 203.95 2137.2 204.05 2137 204.3 2136.8 204.6 2136.65 204.75 2136.55 205 2135.65 206.4 2134.75 207.95 2133.75 210 2133.2 212.25 2133.15 212.4 2133.05 212.45 2132.95 212.6 2132.8 212.85 2132.75 212.85 2132.65 212.95 2132.6 213.05 2132.55 213.15 2132.55 213.25 2132.55 213.3 2132.55 213.4 2132.55 213.5
L 2132.55 213.65
Q 2132.55 213.75 2132.55 213.8 2132.5 214.05 2132.5 214.2 2132.4 214.3 2132.25 214.5 2132.25 214.55 2132.2 214.6
L 2132.2 214.55
Q 2132.15 214.5 2132.05 214.45 2131.8 213.75 2131.65 213 2131.55 212.4 2131.15 211.8 2131.15 211.7 2131.15 211.65 2131.15 211.6 2131.15 211.5 2131 211.2 2130.85 210.95 2130.85 210.85 2130.85 210.8 2130.8 210.75 2130.8 210.65 2130.75 210.5 2130.7 210.45 2130.7 210.35 2130.6 210.3 2130.45 210.25 2130.35 210.1 2130.05 210.05 2129.85 210
L 2129.75 210.05
Q 2129.65 210 2129.6 210 2129.5 210 2129.3 210 2129.15 210 2129 210.05 2128.85 210.1 2128.75 210.15 2128.65 210.25 2128.5 210.35 2128.45 210.45 2128.45 210.5 2128.35 210.55 2128.35 210.7 2128.3 210.75 2128.3 210.85 2128.3 210.95 2128.3 211 2128.35 211.1 2128.35 211.15 2128.3 211.5 2128.35 211.8 2128.35 212 2128.45 212.15 2128.45 212.25 2128.6 212.4 2128.7 212.4 2128.8 212.5 2128.9 212.6 2129 212.65 2129.25 212.85 2129.5 212.95 2129.5 213.15 2129.55 213.3 2129.6 213.8 2129.85 214.25 2130.05 214.65 2130.15 214.95 2130.15 215.05 2130.15 215.15 2130.15 215.25 2130.15 215.35 2130.15 215.4 2130.15 215.45 2130.3 215.7 2130.35 215.85 2130.45 216.1 2130.5 216.35 2130.7 216.55 2130.7 216.7 2130.7 216.75 2130.7 216.9 2130.7 216.95 2130.7 217.05 2130.75 217.1 2130.8 217.2 2130.85 217.35 2130.9 217.4 2130.95 217.45 2130.95 217.55 2130.95 217.6 2130.95 217.75 2130.95 217.8 2130.95 217.9 2130.95 218 2131 218 2131 218.15 2131.1 218.25 2131.2 218.4 2131.35 218.6 2131.35 218.7 2131.55 218.75 2131.65 218.8 2131.75 218.9 2132.05 219 2132.25 219.05 2132.4 219 2132.55 219 2132.65 218.9 2132.8 218.85 2132.95 218.75 2132.95 218.7 2133.15 218.6 2133.15 218.55 2133.2 218.35 2133.25 218.2 2133.3 218 2133.4 217.85 2133.45 217.65 2133.5 217.5 2133.5 217.4 2133.5 217.35 2133.5 217.2 2133.5 217.15 2133.5 217.1 2133.5 217 2133.5 216.9 2133.6 216.8 2133.65 216.7 2133.7 216.6 2133.75 216.55 2133.8 216.5 2133.8 216.35 2133.8 216.3 2133.8 216.2 2133.8 216.15 2133.8 216.05 2133.8 215.9 2133.85 215.8 2133.9 215.65 2134.2 215.25 2134.4 214.7 2134.5 214.5 2134.6 214.25 2134.6 214.15 2134.6 214.05 2134.6 214 2134.6 213.85 2134.6 213.8 2134.6 213.75 2134.6 213.65 2134.65 213.5 2135.45 211.9 2136.2 210.15 2136.6 209.1 2137.15 208 2137.2 208.05 2137.3 208.05 2137.45 208 2137.6 208 2137.8 207.9 2138 207.85 2138.15 207.75 2138.35 207.65 2138.55 207.55 2138.65 207.45 2138.7 207.4 2138.7 207.35 2138.8 207.15 2138.9 206.95 2139 206.85 2139.05 206.75 2139.05 206.7 2139.1 206.65 2139.1 206.35 2139.1 206.1 2139.1 205.8 2139.1 205.4 2139.1 205.3 2139.1 205.05 2139.05 205 2139.05 204.9 2139.05 204.85 2139.1 204.85 2139.1 204.7 2139.05 204.6 2139.05 204.55 2139.05 204.45 2139.05 204.35 2139 204.25 2138.9 204.15 2138.8 204.1 2138.7 204.05 2138.6 203.9 Z"/>
</g>
</defs>

<g transform="matrix( 0.983612060546875, 0, 0, 1.00628662109375, -2088.05,-200.25) ">
<use xlink:href="#Layer0_0_FILL"/>
</g>
</svg>
