
<svg xmlns="http://www.w3.org/2000/svg" version="1.1" xmlns:xlink="http://www.w3.org/1999/xlink" preserveAspectRatio="none" x="0px" y="0px" width="24px" height="24px" viewBox="0 0 24 24">
<defs>
<g id="Layer0_0_FILL">
<path fill="#000000" stroke="none" d="
M 2139.5 258.25
Q 2138.55 257.9 2137.55 257.55 2132.95 256.45 2129.15 258.75 2126.55 260.4 2124.6 262.75 2123.4 264.2 2123.05 266.35 2122.95 267.1 2122.9 267.95 2122.7 271.05 2123.65 273.85 2124.2 275.55 2124.85 277.25 2125.95 278.95 2127.85 279.9 2129.25 280.5 2130.8 280.7 2134.05 281 2137.35 281 2142.5 280.8 2145.45 276.75 2145.95 276 2146.3 275.2 2146.6 274.5 2146.75 273.85 2147.55 271.45 2147.1 268.7 2147 267.95 2146.75 267.2 2146.15 264.9 2145.05 262.95 2144.95 262.7 2144.85 262.55 2144.2 261.25 2143.3 260.45 2141.5 258.85 2139.5 258.25
M 2132.15 259.15
Q 2134.05 259.25 2135.85 258.6 2137.15 259.8 2139.05 260.6 2140.95 261.5 2142.5 262.75
L 2144.7 265.3 2144.7 265.8
Q 2145.8 267.15 2145.9 268.7 2145.95 270.05 2145.95 271.45 2145.95 272.05 2145.85 272.5 2145.65 273.75 2145.1 274.95 2145 275.35 2144.65 275.75 2143.85 277.05 2142.55 277.8 2141.15 278.65 2139.6 279.05 2134.6 280.75 2129.7 279.35 2127.95 278.8 2127.15 277.6 2126.5 276.45 2125.75 275.4 2125.45 275 2125.3 274.35 2125 273.05 2124.6 271.8 2123.9 269.4 2124.25 266.8 2124.3 266.6 2124.35 266.15 2124.55 265.15 2125.3 264 2126.6 262.2 2128.4 260.8 2129.75 259.65 2131.6 259 2131.9 259 2132.15 259.15 Z"/>

<path fill="#FFFFFF" stroke="none" d="
M 2135.85 258.6
Q 2134.05 259.25 2132.15 259.15 2131.9 259 2131.6 259 2129.75 259.65 2128.4 260.8 2126.6 262.2 2125.3 264 2124.55 265.15 2124.35 266.15 2124.3 266.6 2124.25 266.8 2123.9 269.4 2124.6 271.8 2125 273.05 2125.3 274.35 2125.45 275 2125.75 275.4 2126.5 276.45 2127.15 277.6 2127.95 278.8 2129.7 279.35 2134.6 280.75 2139.6 279.05 2141.15 278.65 2142.55 277.8 2143.85 277.05 2144.65 275.75 2145 275.35 2145.1 274.95 2145.65 273.75 2145.85 272.5 2145.95 272.05 2145.95 271.45 2145.95 270.05 2145.9 268.7 2145.8 267.15 2144.7 265.8
L 2144.7 265.3 2142.5 262.75
Q 2140.95 261.5 2139.05 260.6 2137.15 259.8 2135.85 258.6
M 2129 268.25
Q 2129.15 268.15 2129.3 268.15 2129.5 268.15 2129.6 268.15 2129.65 268.15 2129.75 268.25
L 2129.85 268.15
Q 2130.05 268.25 2130.35 268.3 2130.45 268.4 2130.6 268.45 2130.7 268.5 2130.7 268.65 2130.75 268.7 2130.8 268.8 2130.8 268.9 2130.85 268.95 2130.85 269.05 2130.85 269.15 2131 269.35 2131.15 269.65 2131.15 269.75 2131.15 269.8 2131.15 269.9 2131.15 270 2131.55 270.55 2131.65 271.2 2131.8 271.95 2132.05 272.6 2132.15 272.65 2132.2 272.7
L 2132.2 272.8
Q 2132.25 272.7 2132.25 272.65 2132.4 272.5 2132.5 272.4 2132.5 272.2 2132.55 272 2132.55 271.95 2132.55 271.8
L 2132.55 271.7
Q 2132.55 271.6 2132.55 271.45 2132.55 271.4 2132.55 271.3 2132.6 271.25 2132.65 271.15 2132.75 271 2132.8 271 2132.95 270.8 2133.05 270.6 2133.15 270.55 2133.2 270.45 2133.75 268.15 2134.75 266.15 2135.65 264.6 2136.55 263.15 2136.65 262.95 2136.8 262.75 2137 262.5 2137.2 262.2 2137.2 262.15 2137.4 262.1 2137.45 262.05 2137.5 262.05 2137.65 262.05 2137.85 262.05
L 2137.85 262
Q 2138 262 2138.15 262.05 2138.35 262.05 2138.6 262.1 2138.7 262.2 2138.8 262.25 2138.9 262.3 2139 262.45 2139.05 262.55 2139.05 262.6 2139.05 262.7 2139.05 262.75 2139.1 262.9 2139.1 263 2139.05 263 2139.05 263.05 2139.05 263.15 2139.1 263.25 2139.1 263.45 2139.1 263.55 2139.1 263.95 2139.1 264.25 2139.1 264.55 2139.1 264.8 2139.05 264.9 2139.05 264.95 2139 265.05 2138.9 265.1 2138.8 265.35 2138.7 265.5 2138.7 265.55 2138.65 265.6 2138.55 265.75 2138.35 265.85 2138.15 265.9 2138 266 2137.8 266.05 2137.6 266.2 2137.45 266.2 2137.3 266.25 2137.2 266.25 2137.15 266.2 2136.6 267.25 2136.2 268.35 2135.45 270.05 2134.65 271.7 2134.6 271.8 2134.6 271.95 2134.6 272 2134.6 272.05 2134.6 272.15 2134.6 272.2 2134.6 272.3 2134.6 272.45 2134.5 272.65 2134.4 272.9 2134.2 273.4 2133.9 273.8 2133.85 273.95 2133.8 274.1 2133.8 274.2 2133.8 274.3 2133.8 274.35 2133.8 274.5 2133.8 274.55 2133.8 274.65 2133.75 274.7 2133.7 274.75 2133.65 274.9 2133.6 275 2133.5 275.05 2133.5 275.15 2133.5 275.3 2133.5 275.35 2133.5 275.4 2133.5 275.5 2133.5 275.55 2133.5 275.7 2133.45 275.85 2133.4 276 2133.3 276.2 2133.25 276.35 2133.2 276.55 2133.15 276.7 2133.15 276.75 2132.95 276.85 2132.95 276.95 2132.8 277.05 2132.65 277.1 2132.55 277.15 2132.4 277.15 2132.25 277.2 2132.05 277.15 2131.75 277.1 2131.65 277 2131.55 276.95 2131.35 276.85 2131.35 276.75 2131.2 276.6 2131.1 276.4 2131 276.3 2131 276.2 2130.95 276.2 2130.95 276.1 2130.95 275.95 2130.95 275.9 2130.95 275.8 2130.95 275.75 2130.95 275.6 2130.9 275.55 2130.85 275.5 2130.8 275.4 2130.75 275.3 2130.7 275.2 2130.7 275.1 2130.7 275.05 2130.7 274.95 2130.7 274.9 2130.7 274.7 2130.5 274.55 2130.45 274.25 2130.35 274.05 2130.3 273.85 2130.15 273.65 2130.15 273.55 2130.15 273.5 2130.15 273.4 2130.15 273.35 2130.15 273.25 2130.15 273.1 2130.05 272.85 2129.85 272.45 2129.6 272 2129.55 271.45 2129.5 271.3 2129.5 271.15 2129.25 271 2129 270.85 2128.9 270.8 2128.8 270.7 2128.7 270.55 2128.6 270.55 2128.45 270.45 2128.45 270.35 2128.35 270.15 2128.35 270 2128.3 269.65 2128.35 269.3 2128.35 269.25 2128.3 269.2 2128.3 269.15 2128.3 269.05 2128.3 268.9 2128.35 268.85 2128.35 268.75 2128.45 268.7 2128.45 268.65 2128.5 268.5 2128.65 268.4 2128.75 268.35 2128.85 268.3 2129 268.25 Z"/>

<path fill="#BCBCBC" stroke="none" d="
M 2129.3 268.15
Q 2129.15 268.15 2129 268.25 2128.85 268.3 2128.75 268.35 2128.65 268.4 2128.5 268.5 2128.45 268.65 2128.45 268.7 2128.35 268.75 2128.35 268.85 2128.3 268.9 2128.3 269.05 2128.3 269.15 2128.3 269.2 2128.35 269.25 2128.35 269.3 2128.3 269.65 2128.35 270 2128.35 270.15 2128.45 270.35 2128.45 270.45 2128.6 270.55 2128.7 270.55 2128.8 270.7 2128.9 270.8 2129 270.85 2129.25 271 2129.5 271.15 2129.5 271.3 2129.55 271.45 2129.6 272 2129.85 272.45 2130.05 272.85 2130.15 273.1 2130.15 273.25 2130.15 273.35 2130.15 273.4 2130.15 273.5 2130.15 273.55 2130.15 273.65 2130.3 273.85 2130.35 274.05 2130.45 274.25 2130.5 274.55 2130.7 274.7 2130.7 274.9 2130.7 274.95 2130.7 275.05 2130.7 275.1 2130.7 275.2 2130.75 275.3 2130.8 275.4 2130.85 275.5 2130.9 275.55 2130.95 275.6 2130.95 275.75 2130.95 275.8 2130.95 275.9 2130.95 275.95 2130.95 276.1 2130.95 276.2 2131 276.2 2131 276.3 2131.1 276.4 2131.2 276.6 2131.35 276.75 2131.35 276.85 2131.55 276.95 2131.65 277 2131.75 277.1 2132.05 277.15 2132.25 277.2 2132.4 277.15 2132.55 277.15 2132.65 277.1 2132.8 277.05 2132.95 276.95 2132.95 276.85 2133.15 276.75 2133.15 276.7 2133.2 276.55 2133.25 276.35 2133.3 276.2 2133.4 276 2133.45 275.85 2133.5 275.7 2133.5 275.55 2133.5 275.5 2133.5 275.4 2133.5 275.35 2133.5 275.3 2133.5 275.15 2133.5 275.05 2133.6 275 2133.65 274.9 2133.7 274.75 2133.75 274.7 2133.8 274.65 2133.8 274.55 2133.8 274.5 2133.8 274.35 2133.8 274.3 2133.8 274.2 2133.8 274.1 2133.85 273.95 2133.9 273.8 2134.2 273.4 2134.4 272.9 2134.5 272.65 2134.6 272.45 2134.6 272.3 2134.6 272.2 2134.6 272.15 2134.6 272.05 2134.6 272 2134.6 271.95 2134.6 271.8 2134.65 271.7 2135.45 270.05 2136.2 268.35 2136.6 267.25 2137.15 266.2 2137.2 266.25 2137.3 266.25 2137.45 266.2 2137.6 266.2 2137.8 266.05 2138 266 2138.15 265.9 2138.35 265.85 2138.55 265.75 2138.65 265.6 2138.7 265.55 2138.7 265.5 2138.8 265.35 2138.9 265.1 2139 265.05 2139.05 264.95 2139.05 264.9 2139.1 264.8 2139.1 264.55 2139.1 264.25 2139.1 263.95 2139.1 263.55 2139.1 263.45 2139.1 263.25 2139.05 263.15 2139.05 263.05 2139.05 263 2139.1 263 2139.1 262.9 2139.05 262.75 2139.05 262.7 2139.05 262.6 2139.05 262.55 2139 262.45 2138.9 262.3 2138.8 262.25 2138.7 262.2 2138.6 262.1 2138.35 262.05 2138.15 262.05 2138 262 2137.85 262
L 2137.85 262.05
Q 2137.65 262.05 2137.5 262.05 2137.45 262.05 2137.4 262.1 2137.2 262.15 2137.2 262.2 2137 262.5 2136.8 262.75 2136.65 262.95 2136.55 263.15 2135.65 264.6 2134.75 266.15 2133.75 268.15 2133.2 270.45 2133.15 270.55 2133.05 270.6 2132.95 270.8 2132.8 271 2132.75 271 2132.65 271.15 2132.6 271.25 2132.55 271.3 2132.55 271.4 2132.55 271.45 2132.55 271.6 2132.55 271.7
L 2132.55 271.8
Q 2132.55 271.95 2132.55 272 2132.5 272.2 2132.5 272.4 2132.4 272.5 2132.25 272.65 2132.25 272.7 2132.2 272.8
L 2132.2 272.7
Q 2132.15 272.65 2132.05 272.6 2131.8 271.95 2131.65 271.2 2131.55 270.55 2131.15 270 2131.15 269.9 2131.15 269.8 2131.15 269.75 2131.15 269.65 2131 269.35 2130.85 269.15 2130.85 269.05 2130.85 268.95 2130.8 268.9 2130.8 268.8 2130.75 268.7 2130.7 268.65 2130.7 268.5 2130.6 268.45 2130.45 268.4 2130.35 268.3 2130.05 268.25 2129.85 268.15
L 2129.75 268.25
Q 2129.65 268.15 2129.6 268.15 2129.5 268.15 2129.3 268.15 Z"/>
</g>
</defs>

<g transform="matrix( 0.983612060546875, 0, 0, 1.0084075927734375, -2088.05,-259.35) ">
<use xlink:href="#Layer0_0_FILL"/>
</g>
</svg>
