
<svg xmlns="http://www.w3.org/2000/svg" version="1.1" xmlns:xlink="http://www.w3.org/1999/xlink" preserveAspectRatio="none" x="0px" y="0px" width="68px" height="30px" viewBox="0 0 68 30">
<defs>
<g id="Layer0_0_FILL">
<path fill="#2C2B30" stroke="none" d="
M 1306.3 85.2
Q 1306.2 85 1306.2 84.7 1306.2 83.3 1306 82.65
L 1306 82.2
Q 1305.55 81 1304.25 80.45 1303.8 80.2 1303.3 79.95 1303.25 79.9 1303.1 79.9 1300.8 78.65 1295.25 78.65 1292.5 78.65 1288.2 79 1287.45 78.9 1286.95 78.65
L 1263.9 78.55
Q 1263.7 78.45 1262.5 78.5 1261.4 78.5 1261.4 78.55 1260.1 78.6 1257.15 79.15 1255.05 79.55 1252.55 79.15
L 1245.8 79.15
Q 1245.55 79.15 1245.25 79.15 1245.1 79.15 1244.85 79.15 1244.6 79.15 1244.5 79.25 1244.4 79.25 1244.35 79.35 1242.8 79.6 1241.85 80.35 1241.2 80.85 1240.8 81.65 1239.7 82.75 1239.7 84.8 1239.7 85.1 1239.85 87.55 1239.9 90.15 1239.7 91.45 1239.55 93.75 1239.55 98.15 1239.55 103 1239.9 104.1 1241 107.3 1245.6 107.75
L 1274.35 107.75
Q 1276.35 107.6 1277.45 107.45
L 1281.85 107.45
Q 1283 107.8 1284.8 107.65 1287.1 107.5 1288.25 107.95
L 1296.05 108.05
Q 1296.35 108.15 1297.75 108.35 1299.05 108.45 1299.5 108.45 1303.65 108.45 1305.25 106.4 1307 104.2 1307 98.5
L 1306.55 89.5
Q 1306.5 86.85 1306.3 85.2
M 1303.3 82.7
Q 1304.35 83.4 1304.7 85.8 1304.8 87.05 1304.95 90.05
L 1305.4 98.6
Q 1305.4 100.85 1305.2 102.3 1304.75 103.2 1302.55 104.25 1300.1 105.45 1298.65 105.55
L 1298.15 105.55
Q 1297 105.45 1296 105.4 1294.75 105.3 1293.9 105.25 1293.1 105.2 1292.55 105.2 1292 105.15 1291.85 105.15
L 1276.55 105.15 1276.55 105 1276.5 105
Q 1274.3 105.65 1268.35 105.65 1262.75 105.65 1262.3 105.5
L 1250.8 105.4
Q 1250.1 105.25 1249.5 105.15 1249.35 105.15 1249.2 105.15 1248.9 105.15 1248.85 105.2 1248.75 105.25 1248.7 105.4
L 1245.7 105.4
Q 1243.9 105.1 1242.95 104.7 1242.5 104.5 1242.2 104.2 1242.15 103.85 1242.15 102.9 1242.6 97.65 1242.6 97 1242.6 95.3 1242.15 91.75 1242.2 90.05 1242.15 89.05 1242.05 88.55 1241.9 88.15 1242 88 1242 87.8 1242.05 86.85 1242.2 86.6 1242.7 85.65 1242.85 84.3 1243.15 82.65 1246 81.8 1247 81.5 1247.6 81.25
L 1252.3 81.25
Q 1254.3 81.85 1257.5 81.25 1258.65 81 1259.5 80.85
L 1273.65 80.85
Q 1273.8 80.25 1274.95 80.2 1276.9 80.05 1283.85 81.15 1284.15 81.2 1284.45 81.25
L 1289.15 81.15
Q 1289.3 81.05 1290.85 80.95 1291.4 80.9 1292.1 80.85 1293.2 80.85 1293.9 80.8 1294.5 80.75 1294.9 80.75 1298.1 80.85 1300.1 80.95 1301.65 81.2 1302.2 81.6 1302.25 81.6 1302.35 81.75
L 1302.35 81.8
Q 1302.35 82 1303.3 82.7 Z"/>

<path fill="#D4D4D4" stroke="none" d="
M 1304.7 85.8
Q 1304.35 83.4 1303.3 82.7 1302.35 82 1302.35 81.8
L 1302.35 81.75
Q 1302.25 81.6 1302.2 81.6 1301.65 81.2 1300.1 80.95 1298.1 80.85 1294.9 80.75 1294.5 80.75 1293.9 80.8 1293.2 80.85 1292.1 80.85 1291.4 80.9 1290.85 80.95 1289.3 81.05 1289.15 81.15
L 1284.45 81.25
Q 1284.15 81.2 1283.85 81.15 1276.9 80.05 1274.95 80.2 1273.8 80.25 1273.65 80.85
L 1259.5 80.85
Q 1258.65 81 1257.5 81.25 1254.3 81.85 1252.3 81.25
L 1247.6 81.25
Q 1247 81.5 1246 81.8 1243.15 82.65 1242.85 84.3 1242.7 85.65 1242.2 86.6 1242.05 86.85 1242 87.8 1242 88 1241.9 88.15 1242.05 88.55 1242.15 89.05 1242.2 90.05 1242.15 91.75 1242.6 95.3 1242.6 97 1242.6 97.65 1242.15 102.9 1242.15 103.85 1242.2 104.2 1242.5 104.5 1242.95 104.7 1243.9 105.1 1245.7 105.4
L 1248.7 105.4
Q 1248.75 105.25 1248.85 105.2 1248.9 105.15 1249.2 105.15 1249.35 105.15 1249.5 105.15 1250.1 105.25 1250.8 105.4
L 1262.3 105.5
Q 1262.75 105.65 1268.35 105.65 1274.3 105.65 1276.5 105
L 1276.55 105 1276.55 105.15 1291.85 105.15
Q 1292 105.15 1292.55 105.2 1293.1 105.2 1293.9 105.25 1294.75 105.3 1296 105.4 1297 105.45 1298.15 105.55
L 1298.65 105.55
Q 1300.1 105.45 1302.55 104.25 1304.75 103.2 1305.2 102.3 1305.4 100.85 1305.4 98.6
L 1304.95 90.05
Q 1304.8 87.05 1304.7 85.8 Z"/>
</g>
</defs>

<g transform="matrix( 1.008148193359375, 0, 0, 1.00164794921875, -1249.65,-78.65) ">
<use xlink:href="#Layer0_0_FILL"/>
</g>
</svg>
