
<svg xmlns="http://www.w3.org/2000/svg" version="1.1" xmlns:xlink="http://www.w3.org/1999/xlink" preserveAspectRatio="none" x="0px" y="0px" width="780px" height="559px" viewBox="0 0 780 559">
<defs>
<g id="Layer0_0_FILL">
<path fill="#2C2B30" stroke="none" d="
M 787.5 17.6
Q 784.7 14.75 778.35 12.9 772.75 11.3 767.65 11.3 752.75 12.05 751.7 12.05 749.45 11.85 745 11.65 735.95 11.2 721.4 11.05 720.3 10.95 719.2 10.95 707.85 11.4 700.4 11.5 685.95 11.4 672.9 11.4 657.8 11.45 651.45 11.65 652.25 11.65 653.2 11.7 656.35 11.8 660.2 12.05 653.55 11.95 647.35 11.9 646.903515625 11.949609375 646.9 12.05 646.901171875 11.949609375 647.05 11.9 637.35 11.75 628.9 11.65 601.65 11.3 590.55 11.55 572.15 12 542.25 12.05 515.75 12 515.25 12 500.6 12 493.55 11.6 486.4 11.2 479.4 11.2 478.45 11.4 476.1 11.65 471.6 12.05 446.15 12.05 419.3 12.05 416.9 11.85 411 11.3 400.4 11.05 399.3 11 396.35 10.65 393.6 10.3 393.15 10.3 391.55 10.3 383.3 11.2 375.15 12.05 361.05 12.05 345.3 11.9 342.65 11.3
L 280.55 11.05
Q 279.6 10.9 274.85 10.6 270.35 10.3 269.5 10.3
L 262.75 10.55
Q 260.4 11 256.35 11.35 248.5 12.05 234.15 12.05
L 198.9 11.3 171 12.05
Q 171.35 12.05 173.35 12.25 159.3 12.25 113.5 11.5 79.9 10.95 40.2 10.25 30.65 10.25 23.55 15.15 18.4 18.75 17.25 22.15 16.05 25.75 15.45 33.05
L 15 33.05
Q 14.95 43.75 14.9 54.15
L 14.95 54.15
Q 14.9 58.3 14.9 62.4 14.85 72 14.8 81.3
L 14.8 81.35
Q 14.65 84.85 14.65 88.05
L 15.45 109
Q 15.2 152.6 14.65 152.6
L 14.65 171.05
Q 15.2 186.55 15.45 220.45 15.45 232.2 14.8 236 14.15 239.8 14.15 239.95 14.15 240.15 14.8 254.25 15.45 274.05 15.45 302.65 15.45 303.15 15.35 301.3 15.2 301.85 15.2 314.55 15.2 316.45 15.4 320.85 16.1 346.95 15.5 349.85 15.35 350.6 14.95 350.75 14.65 351.35 14.65 355.05 14.65 357.6 15.45 359.3
L 15.45 476.3
Q 14.9 492.3 14 507.8 14 508.2 14.3 509.55 14.6 510.95 14.65 512.2 14.75 514.25 15.1 521.3 15.4 528.25 15.45 532.1 15.9 552.35 16.15 553.45 16.3 554.2 17.3 555.65 18.65 557.5 20 560.7 20.1 560.9 22.55 562.65 25.05 564.35 25.65 564.6 30.75 567 40.85 567
L 84.6 567.8 114.4 567
Q 114.7 567 121.75 567.4 128.8 567.8 130.35 567.8 144.75 567.9 150.75 567.65 153.8 567.5 154.55 567.35 155.6 567.35 193 568.15 197.55 568.2 202.75 568.8 205.3 568.8 210.55 568.25 211.8 568.15 236.15 567.6 238.3 567.5 245.35 567.25 252.25 567.05 253.1 567.05 261.7 567.05 273.1 567.3 284.65 567.55 293.35 567.55
L 331.1 568.3
Q 354.25 568.3 358.9 567.7 363.55 567.05 408.5 567.05
L 476.15 567.8 484.25 566.6
Q 484.3 566.6 488.95 566.9 493.15 567.15 494.45 567.05
L 551.55 567.05
Q 561.45 567.4 571.7 568 577.3 568.3 586 568.3 587.1 568.3 605.4 567.3
L 668.7 567.3
Q 668.9 567.25 672.35 567.15 675.55 567.05 676.55 567.05 679.2 567.05 696.95 567.95 714.7 568.8 718.05 568.8 721.4 568.8 725.7 568.65 735.1 568.3 766 567.7 772.25 567.6 776.15 568.35 778.45 568.45 784.9 565.65 789.3 563.7 791.05 558.4 792.25 554.4 792.4 546 792.6 497.7 793.35 480.95 794 465.3 794 464.3 794 464 793.35 461.65 792.7 459.65 793.15 452.05 793.2 450.85 792.9 439.5 792.6 428.15 792.6 427.65
L 793.65 385.45
Q 793.65 379.25 793.05 373.3 792.4 367.3 792.4 360.1 792.4 348.2 793.05 344.6 793.65 341.05 793.65 333.75 793.65 330.05 793.05 324.05 792.4 318.05 792.4 297.9 792.4 268.2 793.05 252.6 793.65 242.4 793.65 239.55 793.35 234.95 793.05 229.55 792.4 218.8 792.4 197 792.4 174.9 793.05 171.1 793.65 167.35 793.65 161.55 793.65 158.8 793.15 150.25 792.55 141.7 792.55 103.3 792.55 102 792.85 97.9 793.15 93.8 793.15 93.45 793.15 86.75 792.9 81.35
L 792.9 81.3
Q 792.9 71.7 792.85 62.4 792.85 58.25 792.85 54.15 792.8 43.45 792.8 33.05
L 792.4 33.05
Q 792 29.3 791.5 26.65 790.3 20.45 787.5 17.6
M 773.35 15.1
Q 776.85 15.45 777.5 15.6 779.45 16 782.2 17.25 787.2 20.9 788.5 25.75 789.25 28.35 789.7 33.05
L 790.1 33.05
Q 790.1 35.65 790.15 38.3
L 790.15 38.35
Q 790.15 46.15 790.15 54.15 790.15 58.25 790.15 62.4 790.2 71.7 790.2 81.3
L 790.2 81.35
Q 790.35 86.2 790.35 92.25 790.2 93.55 790 95.2 789.55 98.5 789.45 103.05 789.35 109.9 789 122.05 789 124.55 789.65 132.05 790.35 142.3 790.35 158.6 790.35 173.7 789.7 178.4 789.35 181.15 788.45 183.55
L 788.45 205.1
Q 789.35 203.15 789.85 214.4 790.1 222.15 790.25 224.8 790.25 225.2 790.3 225.5 790.45 225.25 790.5 225.15 791.2 227.15 790.55 241.95 790.55 242.45 790.55 253.25 790.45 266.1 789.9 277.85 789.65 283.35 789 292.05 789 292.15 789.65 304.1 790.35 319.1 790.35 334.35
L 789.3 370.05
Q 789.3 370.3 789.85 371.9 790.35 373.45 790.35 375.1 790.45 407.5 790.3 418
L 790.35 416.55
Q 790.35 417.05 790.4 431.25 790.4 447.5 790.25 459.15 790.25 459.8 789.9 461.85 789.5 463.95 789.5 464.4 789.5 465.05 789.85 465.4 790 465.6 790.35 465.8
L 790.35 495
Q 788.45 515.75 788.45 527.4 788.45 528.4 789.2 542.05
L 789.5 549.2
Q 789.5 554.85 788.25 556.4 788.75 556.5 788.85 556.75 788.95 556.95 788.8 557.15 788.6 557.35 788.3 557.45 787.95 557.5 787.75 557.45 783.25 562.8 781 563.9 779.5 564.7 774.95 564.8 749.05 565.5 733.25 565.35 714.5 565 697.7 564.85
L 676.3 564.95
Q 678.85 564.85 680.3 564.75 678.65 564.8 675.8 564.7 668.55 564.5 668.45 564.55
L 596.65 564.8
Q 574.6 565.4 546.25 564.55 521.35 563.5 518.55 563.5 503.2 563.5 492.45 564.25 481.75 564.95 475.15 564.95
L 403 564.45
Q 385.3 563.8 384.25 563.8 368.55 563.8 360.75 564.4 352.95 565 329.95 565 302.95 565.05 276.55 564.75 268.55 564.7 261 564.3 254.9 563.9 254.4 563.9 244.9 563.9 239 564.4 234.65 564.95 233.5 565
L 182 565
Q 172.95 564.85 164.4 564.75 157.75 564.65 153.7 564.65 154.7 564.9 158.55 565
L 156.6 565
Q 153.95 565 153.4 564.65 147.2 564.6 146.85 564.7 146.2 564.85 137.65 564.9 128.9 564.95 126.55 564.75 115.65 563.8 114.65 563.8 110.05 564.1 105.1 564.4 95.3 565 84.85 565
L 44.6 564.25
Q 34.3 564.05 32.1 563.85 29.85 563.65 27.2 562.7 26.4 562.3 26.1 562 25.05 561.15 22.65 559.8 21.8 559.3 21.8 557.75 21.8 557.1 23.55 554.95 24.85 553.35 28.8 549.1
L 30.85 546.85
Q 31.65 545.85 32.1 545.25 33 544.1 33 543.6 32.95 543.45 32.85 543.4
L 30.3 545.45
Q 26.3 548.95 24.5 551.05 23.4 552.35 22.9 552.6 21.7 554.35 21.2 555.15
L 20.8 555.85
Q 19.15 552.55 19.1 552.4
L 18.95 551.8
Q 18.85 551.15 19.05 550 19.3 548.75 19.3 548.35 18.85 541.4 18.45 534.4 17.5 520.35 17.5 499.05 17.5 476.3 18.2 471.1 18.8 469.95 18.8 467.55
L 17.75 435.8
Q 17.75 418.15 18.55 405.5 19.3 392.85 19.3 383.8
L 19.2 374.3
Q 19 369.25 18.45 364.1 18.2 361.95 17.95 356.95 17.7 352.75 17.7 351.5 17.7 348.95 18.3 342.2 18.8 336 18.8 335.9 18.8 333.15 18.1 321.95 17.7 314.85 17.8 310.3 18.35 306.5 18.35 282.25 18.3 283.3 18.3 283.55
L 17.5 242.7
Q 17.5 230.7 18.45 225.55 19.3 220.4 19.3 220 17.85 195.35 17.95 188.95 18 185.15 17.7 175.05 17.5 165.55 17.5 165.05 17.5 160.2 17.7 141.8 18 118.9 18.25 116.9 18.8 111.85 18.8 109.55 18.8 108.9 18.2 103.05 17.5 97.2 17.5 86.75 17.5 83.85 17.65 81.35
L 17.65 81.3
Q 17.65 71.6 17.7 62.4 17.7 58.2 17.75 54.15
L 17.7 54.15
Q 17.75 46.05 17.8 38.35
L 17.8 38.3
Q 17.8 35.65 17.85 33.05
L 18.6 33.05
Q 19.6 27.65 19.6 27.45 19.95 23.55 20.45 21.4 22 19.1 26.15 16.8 27.9 15.95 31.25 14.9 35.85 13.45 37.1 14.05
L 110 14.05
Q 118.25 14.5 121.1 14.8
L 138.85 14.8
Q 180.8 15.05 187.7 14.6 195.55 14.05 198.8 14.05
L 234.55 14.8
Q 237.85 14.8 253.05 14.05
L 340.25 14.05
Q 344.9 14.5 371.95 14.85 372.55 14.85 373.35 14.75
L 374.55 14.55
Q 395.1 14.05 396.1 14.05
L 430.25 14.8
Q 430.75 14.8 441 14.3 456.05 13.8 480.75 14.05 482.8 14.05 487.2 14.4 491.5 14.75 493.8 14.75
L 514.95 14.75
Q 552.15 15.35 552.15 14.35 552.15 14.25 552 14.2 558.2 14.2 567.35 14.3 596.85 14.5 605.4 14.3 635.8 13.6 642.05 14.35 650.55 15.3 666.85 15.3 667.35 15.3 674.25 14.95 684.1 14.6 698.95 14.3 726.25 13.9 739.85 13.95 738.25 14 736.45 14.05 743.2 14.05 748.55 14.1 753.35 14.2 753.35 14.5 753.35 14.2 752.05 14.1 765.25 14.1 767.65 14.2 770.6 14.35 773.35 15.1
M 37.15 548.9
Q 37.15 548.3 37.1 548.3 37.05 548.45 37 548.4
L 35 550.55
Q 33.9 553.6 31.7 556.45 30.5 558.1 27.6 561.8 27.6 562.65 27.8 562.75 37.15 549.8 37.15 548.9
M 696.4 102.05
L 669.55 101.3 614.05 102.05
Q 609.6 102.05 594.5 101.3 570.8 100.1 568 99.95
L 566.6 100.2 566.6 101.3
Q 460.95 102.05 459.95 102.05 450.8 101.7 418.45 101.05 415.3 101 408.6 100.7 402.3 100.45 402 100.45 380.7 101.9 368.95 101.9 365.05 101.9 358 101.65 348.1 101.35 343.65 100.8
L 249.35 100.8
Q 247.85 101.4 245.25 101.65 240.65 102.05 229.7 102.05 183.4 102.05 167.85 101.45 152.35 100.8 147.35 100.8 83.95 101.05 64 100.95 61.65 100.75 59.6 100.65 55.65 100.5 52.3 101.1 41.75 102.9 34.8 111.55 33.8 113.65 33.35 115.25 32.4 123.05 31.65 178.4 31.65 179.05 31.95 179.4 32.1 179.55 32.4 179.75 32.15 198.95 32.4 201.9
L 32.4 253.45
Q 31.5 273.4 31.5 278.25 31.5 279.2 31.8 282.6 32.1 286.35 32.4 287.8
L 32.4 395.2
Q 31.6 419.35 31.6 425.7 31.6 427.3 32 433.15 32.4 439 32.4 480 32.4 498.95 32.05 511.75 31.75 523.25 31.35 525.55 31.15 527.45 31.15 532.3 31.15 543.3 37.1 548.05 45.95 555.15 70.1 553.2
L 70.7 553.2
Q 83.9 553.4 112.15 554.15 137.2 554.8 142.5 554.8 147 554.8 150.55 554 154.05 553.2 175 553.2 196 553.2 216.95 554.2 237.9 555.15 254.65 555.15 257.75 555.15 258.7 554.85 260.45 554.25 260.95 554.2 266.7 553.2 296.1 553.2 304.55 553.2 307.5 553.75 310.5 554.3 322.4 554.3 323.45 554.3 348.4 553.8 350.7 553.75 353.55 554.35 355.65 553.9 358.15 553.5 370.15 551.55 380 553.2
L 682.8 553.25
Q 727.05 553.9 739.9 553.85 747.05 553.85 754.05 553.7 755.5 553.7 755.85 554.25 756.15 554.8 756.95 554.8 762.15 554.8 766 551.05 769.6 554.2 774.45 558.6 777 561 778.45 562.05 779.1 561.75 779.1 561.05 768.9 550.6 766.45 550.8 767.8 549.75 770.45 546.75
L 772.85 544
Q 773.9 544 773.45 542.7 773.55 542.45 774.3 540.25 774.95 538.1 774.95 537.95 775.15 536.35 775.4 528.9 775.7 520.75 775.75 520.2 776.1 516.55 776.15 495.55 776.15 475 776.15 474.5
L 775.75 428.3
Q 775.5 412.4 776.1 409.8 776.65 406.85 776.65 402.75 775.6 388.05 775.6 387.05
L 776.6 361.6
Q 776.3 359.9 776.05 356.4 775.4 349.45 775.4 335.8 775.4 321.85 776.05 308.8 776.65 298.3 776.65 297 776.65 294.15 776.5 291.55 776.3 288.35 775.4 276.85
L 775.4 166.9
Q 775.6 161.3 775.6 145.25 776.25 144.5 776.75 143.2 777.15 142.15 777.15 141.9 776.7 140.65 776.25 138.5 775.35 134.3 775.4 123.05 775.4 116.55 773.65 113.15 771.25 106.9 763.95 103.2 758.45 100.45 754.5 100.45 752.5 100.75 749.4 101 743.3 101.6 734.85 101.65
L 734.1 101.65
Q 697.4 102.05 696.4 102.05
M 696.15 105.3
Q 698.35 105.3 708.5 104.75 749.65 104.05 750.7 104.05 760.3 104.05 763.1 105.55 765.1 106.65 770.4 113.65 771.25 114.8 771.8 121.75 772 125.35 772.2 130.25 772.35 132.1 772.9 134.8 773.3 137 773.3 138.85 773.3 160.2 772 196.55
L 773 224.9
Q 773 225.25 772.5 231.75 772 239.65 772 246.85 772 246.95 772.65 264.4 773.3 284.7 773.3 299
L 772.5 334.6
Q 772.5 341.75 772.95 348.45 773.15 352.45 773.2 355.55 773.35 362.5 773.3 381.5
L 773.3 382.05
Q 773.3 382.55 773.4 389.8 773.45 399.35 773.25 411.8 773.25 414.3 772.5 420.8 772.5 421.8 773.3 433.5
L 772.3 457.75 773.3 514.1
Q 773.3 523.5 772.5 530.65 771 543.5 767.25 547 762.9 551 757.6 551.55 757.4 551.55 746.5 551.55
L 743.3 551.55
Q 680.15 550.65 669.05 550.35
L 637.25 549.4
Q 615.55 550.2 595.3 550.8 554.95 552 554.95 551.05 554.95 550.9 555.45 550.8 545.25 550.6 542.65 550.5 526.35 550.05 521.1 549.7 512.05 549 511.05 549 498.55 549 493.85 550.05 490.75 550.7 478.75 550.9 478.8 550.85 478.8 550.8
L 452.75 550.6
Q 425.25 550.45 419.6 550.05 416.75 549.85 409.75 549.55 403.25 549.25 402.25 549.25 400.95 549.25 396.85 549.45 391.85 549.65 389.55 549.9
L 371.95 550.4
Q 371.55 550.4 371.3 551.05 356.5 550.9 338.95 551.05 324.1 551.2 323.6 551.2 300.75 551.2 297.9 550.7 297.85 550.65 297.15 550.3 296.85 550.15 294.2 550.15 290.7 550.55 289.8 550.55 268.3 550.8 264.75 550.9 260.85 551 260.6 551.2
L 205.55 551.2
Q 188.8 550.35 176.5 550.4 168.2 550.45 163.1 549.8
L 152.65 551.2 94.3 551.2
Q 72.4 550.25 64.95 549.15 60.8 548.55 43.15 548.55 40.1 548.55 37.65 544.4 34.45 539 34.45 528.9 34.45 523.8 35.1 521.55 35.7 519.3 35.7 517.7
L 34.8 484.3 35.8 448.6
Q 35.8 443.9 35.15 436.75 34.45 429.6 34.45 417.7 34.45 416.6 34.75 407.4 34.95 397.4 35.1 394.35 35.8 378.85 35.4 367.15 35.1 359.45 36.6 344.5 36.95 341.4 36.95 328.8 36.95 316.6 36.95 316.1 36.95 315.6 36.5 312.75 36.05 309.9 36.05 309.4 36.85 299.65 36.85 298.65 36.85 297.35 35.65 290.25 34.45 283.1 34.45 269.7 34.45 260.5 35.4 251.65 36.3 242.8 36.3 235.05 36.3 234.75 35.8 231.85 35.3 228.95 35.3 227.55
L 34.8 197.15 35.15 163.9
Q 35.2 161.55 35.5 158.35 35.8 155.25 35.8 155 35.8 148 35.3 141.35 34.75 134.7 34.75 132.6 34.75 128.45 35.25 125.05 36.25 119.3 37.3 113.5 37.85 110.25 45.55 106.9 49.35 105.2 53.4 104.05
L 171 104.05
Q 172.95 104.05 174.9 104.1 174.35 103.9 172.5 103.85
L 173 103.75
Q 174.85 103.6 175.05 104.1 209.15 104.15 211.25 104.3
L 226.15 105.3
Q 245.6 104.2 246.95 104.05
L 350.85 104.05
Q 357.25 104.4 369.05 104.7 371 104.15 398.1 103.95 412.8 103.85 428.15 103.9 428.65 103.9 525.75 104.3 630.1 104.6 667.25 104.3
L 669.1 104.3
Q 674.25 104.45 696.15 105.3
M 771.1 547.05
Q 774.1 550.4 775.6 551.75 778.65 554.5 785.15 559.05 785.8 559.35 785.8 558.35 785.8 556.6 782.75 553.25 779.7 550 776.2 547.85 775.55 547.5 773.95 547.3 772.05 547.15 771.1 547.05 Z"/>

<path fill="#C6C6C6" stroke="none" d="
M 18.95 551.8
L 19.1 552.4 20.3 551.45
Q 19.65 551.65 18.95 551.8
M 34.8 548.05
L 33.8 548.1
Q 32.8 551.75 32.7 551.95 31.6 554.1 26.1 561.65
L 26.1 562
Q 26.4 562.3 27.2 562.7
L 27.6 561.8
Q 30.5 558.1 31.7 556.45 33.9 553.6 35 550.55 35.1 549.9 35.1 548.9 35.1 548.3 34.95 548.1
L 34.8 548.05
M 31.4 548.4
L 30.85 546.85 28.8 549.1 31.4 548.4
M 783.45 431.65
Q 783.45 433.75 783.6 439.2 783.8 446.3 784.05 448.05
L 784.05 419.1
Q 783.9 420.75 783.65 425.9 783.45 430.6 783.45 431.65 Z"/>

<path fill="#949597" stroke="none" d="
M 21.1 551.15
L 20.35 551.4 20.3 551.45 19.1 552.4
Q 19.15 552.55 20.8 555.85
L 21.2 555.15
Q 21.7 554.35 22.9 552.6 21.05 553.25 20.4 552.8
L 22.15 550.75 21.1 551.15 Z"/>

<path fill="#CDE3F3" stroke="none" d="
M 37.45 97.45
L 36.3 97.3
Q 34.15 97.15 33.35 99.85 32.7 102.2 32.7 108.65 32.7 112 33.35 115.25 33.8 113.65 34.8 111.55
L 34.75 108.1
Q 34.75 100.75 38.35 97.8
L 37.45 97.45
M 17.8 38.3
L 17.8 38.35
Q 17.75 46.05 17.7 54.15
L 17.75 54.15
Q 17.7 58.2 17.7 62.4 17.65 71.6 17.65 81.3
L 17.65 81.35
Q 17.5 83.85 17.5 86.75 17.5 97.2 18.2 103.05 18.8 108.9 18.8 109.55 18.8 111.85 18.25 116.9 18 118.9 17.7 141.8 17.5 160.2 17.5 165.05 17.5 165.55 17.7 175.05 18 185.15 17.95 188.95 17.85 195.35 19.3 220 19.3 220.4 18.45 225.55 17.5 230.7 17.5 242.7
L 18.3 283.55
Q 18.3 283.3 18.35 282.25 18.35 306.5 17.8 310.3 17.7 314.85 18.1 321.95 18.8 333.15 18.8 335.9 18.8 336 18.3 342.2 17.7 348.95 17.7 351.5 17.7 352.75 17.95 356.95 18.2 361.95 18.45 364.1 19 369.25 19.2 374.3
L 19.3 383.8
Q 19.3 392.85 18.55 405.5 17.75 418.15 17.75 435.8
L 18.8 467.55
Q 18.8 469.95 18.2 471.1 17.5 476.3 17.5 499.05 17.5 520.35 18.45 534.4 18.85 541.4 19.3 548.35 19.3 548.75 19.05 550 18.85 551.15 18.95 551.8 19.65 551.65 20.3 551.45
L 20.35 551.4 21.1 551.15
Q 22.55 550.45 23.65 549.15 25.75 546.85 25.75 543.65 25.75 542.4 23.65 532.85 21.65 523.3 21.65 516.15 21.65 509.45 23.65 490.35 25.75 471.25 25.75 467.05 25.75 462.8 24.7 441.6 23.65 420.35 23.65 408.15
L 24.7 349.05
Q 24.7 326.9 23.8 323.45 23.3 322.45 23.15 321.75 22.85 320.5 22.85 316.2 22.85 313.35 24.3 296.4 25.75 279.45 25.75 266.55 25.75 247.85 23.85 214.65 21.95 181.4 21.95 166.95 21.95 163.7 22.6 157.5 23.2 151.3 23.2 149.75 23.2 146.55 22.45 136.9 21.65 127.85 21.65 127.65 21.65 127.6 22.65 108.55 23.65 89.55 23.65 88.1 23.65 85.05 23.1 81.35
L 23.1 81.3
Q 23 72.05 22.9 62.4 22.85 59.35 22.8 56.25
L 22.85 54.15 22.9 54.15
Q 22.9 53.6 22.9 53.05 22.85 50.55 22.8 48
L 23.25 33.05 25.35 33.05 25.75 32.05
Q 26 29.5 23.95 28.15 22.1 26.85 19.6 27.45 19.6 27.65 18.6 33.05
L 17.85 33.05
Q 17.8 35.65 17.8 38.3
M 40.5 19.85
Q 42.4 19.8 43 19.3 43.8 18.75 43.8 16.95 43.4 14.55 41.2 14.55 27.85 16.25 26.15 16.8 22 19.1 20.45 21.4 21 22 21.35 22.2 21.9 22.55 23.4 22.55 23.55 22.55 25.5 22.1 27.7 21.6 29.25 21.15 33.4 20 40.5 19.85
M 146.6 16.8
Q 139.5 14.9 138.85 14.8
L 121.1 14.8 46.35 14.8
Q 44.05 14.8 44.05 16.95 44.05 17.85 44.25 18.45 46.8 17.2 53.1 17.25 56.4 17.3 65.2 17.5 64.9 17.6 64.9 17.85 64.9 17.9 73.9 17.95 84.1 18 88 18.25 90.1 18.4 96.45 18.85 102.9 19.3 108.55 19.3 110.2 19.3 118.05 18.45 128.05 17.55 139.85 17.55 140.25 17.55 141.65 17.8 143.4 18.15 145.75 18.3 145.75 18.15 146.6 16.8
M 784.15 275.05
L 782.15 275.05
Q 781.8 280.9 780.8 306.35 779.8 331.5 779.8 333.9 779.8 335.2 780.3 343.55 780.95 354.95 781.4 366.2 781.85 371.45 781.85 380.8 781.6 418.75 781.2 428.15 780.85 435.8 780.85 439.9 780.85 442.1 782 447.35 783.15 452.6 783.15 454.6 783.15 457.5 783.3 458.8 783.6 462.35 784.8 463.45 786.5 464.15 786.5 463.15 786.5 459.8 784.05 448.05 783.8 446.3 783.6 439.2 783.45 433.75 783.45 431.65 783.45 430.6 783.65 425.9 783.9 420.75 784.05 419.1 784.25 417.9 784.5 393.9 783.85 361.7 783.45 354.8
L 782.45 333.55
Q 782.45 320.9 783.45 301.8 784.5 282.7 784.5 281.7 784.5 279 784.15 275.05
M 26.3 185.05
L 24.7 185.05 24.45 192.15
Q 24.45 194.95 24.7 197.6 25 201 26.55 212.8
L 26.55 313.3 27.05 314.05 28.35 314.05
Q 28.65 307.15 28.9 292.45 29.1 283.15 29.1 258.85
L 29.1 251.6
Q 29.1 225.7 28.95 219.3 28.45 199.2 26.3 185.05
M 743.95 89.1
Q 744.05 89.05 744.3 89.05 768 89.05 773.4 96.05 775.3 98.5 776.4 103.7 777.8 110.7 778.75 113.15
L 779.05 114.05
Q 779.7 113.25 779.95 112.35 780.35 111.2 780.35 109.2 780.35 101 777 96.4 774 92.85 772 92 770.05 91.15 769.9 90.55 770.05 90 770.05 89.8 770.05 89.55 767.7 88.8 765.1 87.95 763.55 87.9 763.3 87.9 760 87.55 756.65 87.2 754.5 87.15 751.9 87.6 749.7 87.65 745.55 87.75 746.35 85.8 744.85 85.6 735.1 85.3 720.7 84.9 710.4 84.55 709.75 84.8 709.75 85.95 709.75 86.95 709.85 87.45
L 710 87.45 710.25 87.05
Q 743.85 87.3 743.8 87.95 743.85 88.7 743.95 89.1 Z"/>

<path fill="#EEEEEE" stroke="none" d="
M 788.25 556.4
Q 783.5 551.4 783.3 551.2 779.55 547.6 775.35 544.85 775.1 545.1 774.75 545.55 780.1 550.25 784.05 554 787.4 557.15 787.75 557.45 787.95 557.5 788.3 557.45 788.6 557.35 788.8 557.15 788.95 556.95 788.85 556.75 788.75 556.5 788.25 556.4
M 768.65 549.85
Q 768.4 550.1 768.05 550.55 770.55 551.95 774.95 556.4 779 560.55 779.1 561.05
L 780.15 560.55
Q 779.7 559.95 775 555.15 770.2 550.35 769.95 550.05
L 768.65 549.85 Z"/>

<path fill="#B4B4B4" stroke="none" d="
M 781.2 376.05
Q 781.45 379.35 781.85 380.8 781.85 371.45 781.4 366.2
L 780.95 372.15
Q 780.95 373.4 781.2 376.05 Z"/>

<path fill="#FFFFFF" stroke="none" d="
M 708.5 104.75
Q 698.35 105.3 696.15 105.3 674.25 104.45 669.1 104.3
L 667.25 104.3
Q 630.1 104.6 525.75 104.3 428.65 103.9 428.15 103.9 412.8 103.85 398.1 103.95 371 104.15 369.05 104.7 357.25 104.4 350.85 104.05
L 246.95 104.05
Q 245.6 104.2 226.15 105.3
L 211.25 104.3
Q 209.15 104.15 175.05 104.1 174.85 103.6 173 103.75
L 172.5 103.85
Q 174.35 103.9 174.9 104.1 172.95 104.05 171 104.05
L 53.4 104.05
Q 49.35 105.2 45.55 106.9 37.85 110.25 37.3 113.5 36.25 119.3 35.25 125.05 34.75 128.45 34.75 132.6 34.75 134.7 35.3 141.35 35.8 148 35.8 155 35.8 155.25 35.5 158.35 35.2 161.55 35.15 163.9
L 34.8 197.15 35.3 227.55
Q 35.3 228.95 35.8 231.85 36.3 234.75 36.3 235.05 36.3 242.8 35.4 251.65 34.45 260.5 34.45 269.7 34.45 283.1 35.65 290.25 36.85 297.35 36.85 298.65 36.85 299.65 36.05 309.4 36.05 309.9 36.5 312.75 36.95 315.6 36.95 316.1 36.95 316.6 36.95 328.8 36.95 341.4 36.6 344.5 35.1 359.45 35.4 367.15 35.8 378.85 35.1 394.35 34.95 397.4 34.75 407.4 34.45 416.6 34.45 417.7 34.45 429.6 35.15 436.75 35.8 443.9 35.8 448.6
L 34.8 484.3 35.7 517.7
Q 35.7 519.3 35.1 521.55 34.45 523.8 34.45 528.9 34.45 539 37.65 544.4 40.1 548.55 43.15 548.55 60.8 548.55 64.95 549.15 72.4 550.25 94.3 551.2
L 152.65 551.2 163.1 549.8
Q 168.2 550.45 176.5 550.4 188.8 550.35 205.55 551.2
L 260.6 551.2
Q 260.85 551 264.75 550.9 268.3 550.8 289.8 550.55 290.7 550.55 294.2 550.15 296.85 550.15 297.15 550.3 297.85 550.65 297.9 550.7 300.75 551.2 323.6 551.2 324.1 551.2 338.95 551.05 356.5 550.9 371.3 551.05 371.55 550.4 371.95 550.4
L 389.55 549.9
Q 391.85 549.65 396.85 549.45 400.95 549.25 402.25 549.25 403.25 549.25 409.75 549.55 416.75 549.85 419.6 550.05 425.25 550.45 452.75 550.6
L 478.8 550.8
Q 478.8 550.85 478.75 550.9 490.75 550.7 493.85 550.05 498.55 549 511.05 549 512.05 549 521.1 549.7 526.35 550.05 542.65 550.5 545.25 550.6 555.45 550.8 554.95 550.9 554.95 551.05 554.95 552 595.3 550.8 615.55 550.2 637.25 549.4
L 669.05 550.35
Q 680.15 550.65 743.3 551.55
L 746.5 551.55
Q 757.4 551.55 757.6 551.55 762.9 551 767.25 547 771 543.5 772.5 530.65 773.3 523.5 773.3 514.1
L 772.3 457.75 773.3 433.5
Q 772.5 421.8 772.5 420.8 773.25 414.3 773.25 411.8 773.45 399.35 773.4 389.8 773.3 382.55 773.3 382.05
L 773.3 381.5
Q 773.35 362.5 773.2 355.55 773.15 352.45 772.95 348.45 772.5 341.75 772.5 334.6
L 773.3 299
Q 773.3 284.7 772.65 264.4 772 246.95 772 246.85 772 239.65 772.5 231.75 773 225.25 773 224.9
L 772 196.55
Q 773.3 160.2 773.3 138.85 773.3 137 772.9 134.8 772.35 132.1 772.2 130.25 772 125.35 771.8 121.75 771.25 114.8 770.4 113.65 765.1 106.65 763.1 105.55 760.3 104.05 750.7 104.05 749.65 104.05 708.5 104.75 Z"/>

<path fill="#9AC0D4" stroke="none" d="
M 747.25 92.35
Q 743.7 91.7 736.35 91.35 730.9 91.05 726.85 91.05 725.95 91.05 720.8 91.65 714.95 92.35 711.65 92.95 710.5 93.15 709.35 94 708.4 94.6 706 94.65 672.5 95.15 667.75 95.6 664.95 95.75 663.95 95.75 656.15 94.95 655.15 94.95 654.35 94.95 651.5 96.05 648.55 97.15 646.5 97.15 637.3 97.15 621.3 95.3 605.65 93.3 602.3 92.95 598.75 92.6 597.2 92.15 595.45 91.65 594.7 91.55 590.85 91.05 565.25 91.05
L 542.05 91.55 511.6 92.8
Q 510.65 92.85 508.45 93.25 506.35 93.7 505.25 93.7 470.4 94.35 468.6 94.55
L 401.9 95.05
Q 395.3 96.1 384.9 96.9 376.2 97.55 373.15 97.55
L 357.25 97.3
Q 355.3 94.05 352.4 94.05 349 94.05 347.65 94.2 346.25 94.35 307.65 95.15 305.25 95.45 298.8 95.45 292.3 95.45 289.55 95.05
L 172.05 95.05
Q 162.2 95.25 157.65 94.85 152.25 94.35 144.1 94.35 120 94.35 90.55 95.75 58.35 97.25 37.45 97.45
L 38.35 97.8
Q 34.75 100.75 34.75 108.1
L 34.8 111.55
Q 41.75 102.9 52.3 101.1 55.65 100.5 59.6 100.65 61.65 100.75 64 100.95 83.95 101.05 147.35 100.8 152.35 100.8 167.85 101.45 183.4 102.05 229.7 102.05 240.65 102.05 245.25 101.65 247.85 101.4 249.35 100.8
L 343.65 100.8
Q 348.1 101.35 358 101.65 365.05 101.9 368.95 101.9 380.7 101.9 402 100.45 402.3 100.45 408.6 100.7 415.3 101 418.45 101.05 450.8 101.7 459.95 102.05 460.95 102.05 566.6 101.3
L 566.6 100.2 568 99.95
Q 570.8 100.1 594.5 101.3 609.6 102.05 614.05 102.05
L 669.55 101.3 696.4 102.05
Q 697.4 102.05 734.1 101.65
L 734.85 101.65
Q 743.3 101.6 749.4 101 752.5 100.75 754.5 100.45 758.45 100.45 763.95 103.2 771.25 106.9 773.65 113.15 773.75 112.8 773.75 111.8 773.75 107.4 772.7 104.3 771.7 101.2 771.7 100.05 771.7 95.5 766.55 95.5 766 95.5 764.55 95.9 763.15 96.25 762.6 96.25 762.05 96.25 760.15 95.5 757.8 94.6 757.15 94.45 754.1 93.6 747.25 92.35
M 782.2 17.25
Q 782 17.95 782 18.95 782 19.05 782.65 21.85 783.25 24.7 783.3 31.65 783.3 32.35 783.3 33.05
L 783.2 33.05
Q 783.2 35.05 783.2 37
L 783.2 41.3
Q 783.2 47.8 783.2 54.15 783.2 58.3 783.2 62.4 783.2 72 783.2 81.3
L 783.2 81.35
Q 783.1 85.55 783.1 88.9 783.05 101.7 783.5 109.2 784 117.85 786.2 131.7 788.15 143.8 788.15 149.2 788.15 153.7 786.1 182.85 784.05 212 784.05 219.9 784.05 222.95 785.1 239.6 786.1 256.2 786.1 260.9 786.1 269.35 784.6 294.6 783.05 319.8 783.05 325.3
L 784.05 332.65
Q 785.1 340.3 785.1 341.8 785.1 341.9 784.85 346.1 784.45 351 783.45 354.8 783.85 361.7 784.5 393.9 784.25 417.9 784.05 419.1
L 784.05 448.05
Q 786.5 459.8 786.5 463.15 786.5 464.15 784.8 463.45 785.05 467.3 785.1 471.75
L 785.1 473.9
Q 785.1 479.2 783.05 512.4 783.05 523.95 783.75 528.95 784.95 537.15 788.75 542.1
L 785 543.55
Q 784.85 541.75 783.8 540.8 782.95 540 781.6 540 780.35 540 778.3 540.55 775.3 541.3 773.45 542.7 773.9 544 772.85 544
L 770.45 546.75
Q 767.8 549.75 766.45 550.8 768.9 550.6 779.1 561.05 779 560.55 774.95 556.4 770.55 551.95 768.05 550.55 768.4 550.1 768.65 549.85
L 769.95 550.05
Q 770.2 550.35 775 555.15 779.7 559.95 780.15 560.55
L 779.1 561.05
Q 779.1 561.75 778.45 562.05 777 561 774.45 558.6 769.6 554.2 766 551.05 762.15 554.8 756.95 554.8 756.15 554.8 755.85 554.25 755.5 553.7 754.05 553.7 747.05 553.85 739.9 553.85 727.05 553.9 682.8 553.25
L 380 553.2
Q 370.15 551.55 358.15 553.5 355.65 553.9 353.55 554.35 350.7 553.75 348.4 553.8 323.45 554.3 322.4 554.3 310.5 554.3 307.5 553.75 304.55 553.2 296.1 553.2 266.7 553.2 260.95 554.2 260.45 554.25 258.7 554.85 257.75 555.15 254.65 555.15 237.9 555.15 216.95 554.2 196 553.2 175 553.2 154.05 553.2 150.55 554 147 554.8 142.5 554.8 137.2 554.8 112.15 554.15 83.9 553.4 70.7 553.2
L 70.1 553.2
Q 45.95 555.15 37.1 548.05 31.15 543.3 31.15 532.3 31.15 527.45 31.35 525.55 29.55 526.35 27.6 529.65 25.75 532.8 25.75 534.55 25.75 535.75 26.95 538.4 27.35 539.35 29.1 542.9 30.55 542.15 31.3 542
L 31.95 541.85
Q 31.8 542.1 31.15 543.05 30.5 544.2 30.3 545.45
L 32.85 543.4
Q 32.95 543.45 33 543.6 33 544.1 32.1 545.25 31.65 545.85 30.85 546.85
L 31.4 548.4 28.8 549.1
Q 24.85 553.35 23.55 554.95 21.8 557.1 21.8 557.75 21.8 559.3 22.65 559.8 25.05 561.15 26.1 562
L 26.1 561.65
Q 31.6 554.1 32.7 551.95 32.8 551.75 33.8 548.1
L 34.8 548.05 34.95 548.1
Q 35.1 548.3 35.1 548.9 35.1 549.9 35 550.55
L 37 548.4
Q 37.05 548.45 37.1 548.3 37.15 548.3 37.15 548.9 37.15 549.8 27.8 562.75 27.6 562.65 27.6 561.8
L 27.2 562.7
Q 29.85 563.65 32.1 563.85 34.3 564.05 44.6 564.25
L 84.85 565
Q 95.3 565 105.1 564.4 110.05 564.1 114.65 563.8 115.65 563.8 126.55 564.75 128.9 564.95 137.65 564.9 146.2 564.85 146.85 564.7 147.2 564.6 153.4 564.65 153.95 565 156.6 565
L 158.55 565
Q 154.7 564.9 153.7 564.65 157.75 564.65 164.4 564.75 172.95 564.85 182 565
L 233.5 565
Q 234.65 564.95 239 564.4 244.9 563.9 254.4 563.9 254.9 563.9 261 564.3 268.55 564.7 276.55 564.75 302.95 565.05 329.95 565 352.95 565 360.75 564.4 368.55 563.8 384.25 563.8 385.3 563.8 403 564.45
L 475.15 564.95
Q 481.75 564.95 492.45 564.25 503.2 563.5 518.55 563.5 521.35 563.5 546.25 564.55 574.6 565.4 596.65 564.8
L 668.45 564.55
Q 668.55 564.5 675.8 564.7 678.65 564.8 680.3 564.75 678.85 564.85 676.3 564.95
L 697.7 564.85
Q 714.5 565 733.25 565.35 749.05 565.5 774.95 564.8 779.5 564.7 781 563.9 783.25 562.8 787.75 557.45 787.4 557.15 784.05 554 780.1 550.25 774.75 545.55 775.1 545.1 775.35 544.85 779.55 547.6 783.3 551.2 783.5 551.4 788.25 556.4 789.5 554.85 789.5 549.2
L 789.2 542.05
Q 788.45 528.4 788.45 527.4 788.45 515.75 790.35 495
L 790.35 465.8
Q 790 465.6 789.85 465.4 789.5 465.05 789.5 464.4 789.5 463.95 789.9 461.85 790.25 459.8 790.25 459.15 790.4 447.5 790.4 431.25 790.35 417.05 790.35 416.55
L 790.3 418
Q 790.45 407.5 790.35 375.1 790.35 373.45 789.85 371.9 789.3 370.3 789.3 370.05
L 790.35 334.35
Q 790.35 319.1 789.65 304.1 789 292.15 789 292.05 789.65 283.35 789.9 277.85 790.45 266.1 790.55 253.25 790.55 242.45 790.55 241.95 791.2 227.15 790.5 225.15 790.45 225.25 790.3 225.5 790.25 225.2 790.25 224.8 790.1 222.15 789.85 214.4 789.35 203.15 788.45 205.1
L 788.45 183.55
Q 789.35 181.15 789.7 178.4 790.35 173.7 790.35 158.6 790.35 142.3 789.65 132.05 789 124.55 789 122.05 789.35 109.9 789.45 103.05 789.55 98.5 790 95.2 790.2 93.55 790.35 92.25 790.35 86.2 790.2 81.35
L 790.2 81.3
Q 790.2 71.7 790.15 62.4 790.15 58.25 790.15 54.15 790.15 46.15 790.15 38.35
L 790.15 38.3
Q 790.1 35.65 790.1 33.05
L 789.7 33.05
Q 789.25 28.35 788.5 25.75 787.2 20.9 782.2 17.25
M 775.6 551.75
Q 774.1 550.4 771.1 547.05 772.05 547.15 773.95 547.3 775.55 547.5 776.2 547.85 779.7 550 782.75 553.25 785.8 556.6 785.8 558.35 785.8 559.35 785.15 559.05 778.65 554.5 775.6 551.75 Z"/>

<path fill="#ADCCDE" stroke="none" d="
M 777.5 15.6
Q 776.85 15.45 773.35 15.1 770.6 14.35 767.65 14.2 765.25 14.1 752.05 14.1 753.35 14.2 753.35 14.5 753.35 14.2 748.55 14.1 743.2 14.05 736.45 14.05 738.25 14 739.85 13.95 726.25 13.9 698.95 14.3 684.1 14.6 674.25 14.95 667.35 15.3 666.85 15.3 650.55 15.3 642.05 14.35 635.8 13.6 605.4 14.3 596.85 14.5 567.35 14.3 558.2 14.2 552 14.2 552.15 14.25 552.15 14.35 552.15 15.35 514.95 14.75
L 493.8 14.75
Q 491.5 14.75 487.2 14.4 482.8 14.05 480.75 14.05 456.05 13.8 441 14.3 430.75 14.8 430.25 14.8
L 396.1 14.05
Q 395.1 14.05 374.55 14.55
L 373.35 14.75
Q 372.55 14.85 371.95 14.85 344.9 14.5 340.25 14.05
L 253.05 14.05
Q 237.85 14.8 234.55 14.8
L 198.8 14.05
Q 195.55 14.05 187.7 14.6 180.8 15.05 138.85 14.8 139.5 14.9 146.6 16.8 145.75 18.15 145.75 18.3 143.4 18.15 141.65 17.8 140.25 17.55 139.85 17.55 128.05 17.55 118.05 18.45 110.2 19.3 108.55 19.3 102.9 19.3 96.45 18.85 90.1 18.4 88 18.25 84.1 18 73.9 17.95 64.9 17.9 64.9 17.85 64.9 17.6 65.2 17.5 56.4 17.3 53.1 17.25 46.8 17.2 44.25 18.45 44.05 17.85 44.05 16.95 44.05 14.8 46.35 14.8
L 121.1 14.8
Q 118.25 14.5 110 14.05
L 37.1 14.05
Q 35.85 13.45 31.25 14.9 27.9 15.95 26.15 16.8 27.85 16.25 41.2 14.55 43.4 14.55 43.8 16.95 43.8 18.75 43 19.3 42.4 19.8 40.5 19.85 33.4 20 29.25 21.15 27.7 21.6 25.5 22.1 23.55 22.55 23.4 22.55 21.9 22.55 21.35 22.2 21 22 20.45 21.4 19.95 23.55 19.6 27.45 22.1 26.85 23.95 28.15 26 29.5 25.75 32.05
L 25.35 33.05 23.25 33.05 22.8 48
Q 22.85 50.55 22.9 53.05 22.9 53.6 22.9 54.15
L 22.85 54.15 22.8 56.25
Q 22.85 59.35 22.9 62.4 23 72.05 23.1 81.3
L 23.1 81.35
Q 23.65 85.05 23.65 88.1 23.65 89.55 22.65 108.55 21.65 127.6 21.65 127.65 21.65 127.85 22.45 136.9 23.2 146.55 23.2 149.75 23.2 151.3 22.6 157.5 21.95 163.7 21.95 166.95 21.95 181.4 23.85 214.65 25.75 247.85 25.75 266.55 25.75 279.45 24.3 296.4 22.85 313.35 22.85 316.2 22.85 320.5 23.15 321.75 23.3 322.45 23.8 323.45 24.7 326.9 24.7 349.05
L 23.65 408.15
Q 23.65 420.35 24.7 441.6 25.75 462.8 25.75 467.05 25.75 471.25 23.65 490.35 21.65 509.45 21.65 516.15 21.65 523.3 23.65 532.85 25.75 542.4 25.75 543.65 25.75 546.85 23.65 549.15 22.55 550.45 21.1 551.15
L 22.15 550.75 20.4 552.8
Q 21.05 553.25 22.9 552.6 23.4 552.35 24.5 551.05 26.3 548.95 30.3 545.45 30.5 544.2 31.15 543.05 31.8 542.1 31.95 541.85
L 31.3 542
Q 30.55 542.15 29.1 542.9 27.35 539.35 26.95 538.4 25.75 535.75 25.75 534.55 25.75 532.8 27.6 529.65 29.55 526.35 31.35 525.55 31.75 523.25 32.05 511.75 32.4 498.95 32.4 480 32.4 439 32 433.15 31.6 427.3 31.6 425.7 31.6 419.35 32.4 395.2
L 32.4 287.8
Q 32.1 286.35 31.8 282.6 31.5 279.2 31.5 278.25 31.5 273.4 32.4 253.45
L 32.4 201.9
Q 32.15 198.95 32.4 179.75 32.1 179.55 31.95 179.4 31.65 179.05 31.65 178.4 32.4 123.05 33.35 115.25 32.7 112 32.7 108.65 32.7 102.2 33.35 99.85 34.15 97.15 36.3 97.3
L 37.45 97.45
Q 58.35 97.25 90.55 95.75 120 94.35 144.1 94.35 152.25 94.35 157.65 94.85 162.2 95.25 172.05 95.05
L 289.55 95.05
Q 292.3 95.45 298.8 95.45 305.25 95.45 307.65 95.15 346.25 94.35 347.65 94.2 349 94.05 352.4 94.05 355.3 94.05 357.25 97.3
L 373.15 97.55
Q 376.2 97.55 384.9 96.9 395.3 96.1 401.9 95.05
L 468.6 94.55
Q 470.4 94.35 505.25 93.7 506.35 93.7 508.45 93.25 510.65 92.85 511.6 92.8
L 542.05 91.55 565.25 91.05
Q 590.85 91.05 594.7 91.55 595.45 91.65 597.2 92.15 598.75 92.6 602.3 92.95 605.65 93.3 621.3 95.3 637.3 97.15 646.5 97.15 648.55 97.15 651.5 96.05 654.35 94.95 655.15 94.95 656.15 94.95 663.95 95.75 664.95 95.75 667.75 95.6 672.5 95.15 706 94.65 708.4 94.6 709.35 94 710.5 93.15 711.65 92.95 714.95 92.35 720.8 91.65 725.95 91.05 726.85 91.05 730.9 91.05 736.35 91.35 743.7 91.7 747.25 92.35 754.1 93.6 757.15 94.45 757.8 94.6 760.15 95.5 762.05 96.25 762.6 96.25 763.15 96.25 764.55 95.9 766 95.5 766.55 95.5 771.7 95.5 771.7 100.05 771.7 101.2 772.7 104.3 773.75 107.4 773.75 111.8 773.75 112.8 773.65 113.15 775.4 116.55 775.4 123.05 775.35 134.3 776.25 138.5 776.7 140.65 777.15 141.9 777.15 142.15 776.75 143.2 776.25 144.5 775.6 145.25 775.6 161.3 775.4 166.9
L 775.4 276.85
Q 776.3 288.35 776.5 291.55 776.65 294.15 776.65 297 776.65 298.3 776.05 308.8 775.4 321.85 775.4 335.8 775.4 349.45 776.05 356.4 776.3 359.9 776.6 361.6
L 775.6 387.05
Q 775.6 388.05 776.65 402.75 776.65 406.85 776.1 409.8 775.5 412.4 775.75 428.3
L 776.15 474.5
Q 776.15 475 776.15 495.55 776.1 516.55 775.75 520.2 775.7 520.75 775.4 528.9 775.15 536.35 774.95 537.95 774.95 538.1 774.3 540.25 773.55 542.45 773.45 542.7 775.3 541.3 778.3 540.55 780.35 540 781.6 540 782.95 540 783.8 540.8 784.85 541.75 785 543.55
L 788.75 542.1
Q 784.95 537.15 783.75 528.95 783.05 523.95 783.05 512.4 785.1 479.2 785.1 473.9
L 785.1 471.75
Q 785.05 467.3 784.8 463.45 783.6 462.35 783.3 458.8 783.15 457.5 783.15 454.6 783.15 452.6 782 447.35 780.85 442.1 780.85 439.9 780.85 435.8 781.2 428.15 781.6 418.75 781.85 380.8 781.45 379.35 781.2 376.05 780.95 373.4 780.95 372.15
L 781.4 366.2
Q 780.95 354.95 780.3 343.55 779.8 335.2 779.8 333.9 779.8 331.5 780.8 306.35 781.8 280.9 782.15 275.05
L 784.15 275.05
Q 784.5 279 784.5 281.7 784.5 282.7 783.45 301.8 782.45 320.9 782.45 333.55
L 783.45 354.8
Q 784.45 351 784.85 346.1 785.1 341.9 785.1 341.8 785.1 340.3 784.05 332.65
L 783.05 325.3
Q 783.05 319.8 784.6 294.6 786.1 269.35 786.1 260.9 786.1 256.2 785.1 239.6 784.05 222.95 784.05 219.9 784.05 212 786.1 182.85 788.15 153.7 788.15 149.2 788.15 143.8 786.2 131.7 784 117.85 783.5 109.2 783.05 101.7 783.1 88.9 783.1 85.55 783.2 81.35
L 783.2 81.3
Q 783.2 72 783.2 62.4 783.2 58.3 783.2 54.15 783.2 47.8 783.2 41.3
L 783.2 37
Q 783.2 35.05 783.2 33.05
L 783.3 33.05
Q 783.3 32.35 783.3 31.65 783.25 24.7 782.65 21.85 782 19.05 782 18.95 782 17.95 782.2 17.25 779.45 16 777.5 15.6
M 744.3 89.05
Q 744.05 89.05 743.95 89.1 743.85 88.7 743.8 87.95 743.85 87.3 710.25 87.05
L 710 87.45 709.85 87.45
Q 709.75 86.95 709.75 85.95 709.75 84.8 710.4 84.55 720.7 84.9 735.1 85.3 744.85 85.6 746.35 85.8 745.55 87.75 749.7 87.65 751.9 87.6 754.5 87.15 756.65 87.2 760 87.55 763.3 87.9 763.55 87.9 765.1 87.95 767.7 88.8 770.05 89.55 770.05 89.8 770.05 90 769.9 90.55 770.05 91.15 772 92 774 92.85 777 96.4 780.35 101 780.35 109.2 780.35 111.2 779.95 112.35 779.7 113.25 779.05 114.05
L 778.75 113.15
Q 777.8 110.7 776.4 103.7 775.3 98.5 773.4 96.05 768 89.05 744.3 89.05
M 24.7 185.05
L 26.3 185.05
Q 28.45 199.2 28.95 219.3 29.1 225.7 29.1 251.6
L 29.1 258.85
Q 29.1 283.15 28.9 292.45 28.65 307.15 28.35 314.05
L 27.05 314.05 26.55 313.3 26.55 212.8
Q 25 201 24.7 197.6 24.45 194.95 24.45 192.15
L 24.7 185.05 Z"/>
</g>
</defs>

<g transform="matrix( 1, 0, 0, 1.00079345703125, -14,-10.25) ">
<use xlink:href="#Layer0_0_FILL"/>
</g>
</svg>
