
<svg xmlns="http://www.w3.org/2000/svg" version="1.1" xmlns:xlink="http://www.w3.org/1999/xlink" preserveAspectRatio="none" x="0px" y="0px" width="30px" height="29px" viewBox="0 0 30 29">
<defs>
<g id="Layer0_0_FILL">
<path fill="#000000" stroke="none" d="
M 2148.15 231.6
Q 2148 231.4 2147.85 231.15 2147.05 229.5 2146 228.6 2143.8 226.6 2141.3 225.9 2140.15 225.5 2138.9 225.1 2133.2 223.75 2128.55 226.5 2125.4 228.55 2122.95 231.45 2121.45 233.1 2121.05 235.75 2120.95 236.65 2120.85 237.7 2120.6 241.5 2121.8 244.8 2122.5 246.95 2123.3 249 2124.65 251.05 2127 252.2 2128.7 252.95 2130.6 253.15 2134.6 253.65 2138.65 253.65 2144.95 253.3 2148.6 248.35 2149.2 247.5 2149.7 246.55 2150 245.65 2150.2 244.8 2151.15 242.05 2150.6 238.6 2150.5 237.7 2150.2 236.75 2149.45 233.95 2148.15 231.6
M 2146.5 238.75
Q 2146.55 240.1 2146.55 241.55 2146.55 242.15 2146.45 242.6 2146.25 243.85 2145.7 245.05 2145.6 245.45 2145.25 245.85 2144.9212890625 246.4046875 2144.5 246.85 2143.9947265625 247.352734375 2143.35 247.7 2141.95 248.55 2140.4 248.95 2135.4 250.6 2130.5 249.3 2128.75 248.7 2127.95 247.5 2127.7029296875 247.1009765625 2127.45 246.7 2127.060546875 246.0748046875 2126.65 245.5 2126.5970703125 245.429296875 2126.55 245.35 2126.3234375 244.98515625 2126.2 244.45 2125.95 243.15 2125.55 241.9 2124.85 239.45 2125.2 236.85 2125.25 236.65 2125.3 236.2 2125.4947265625 235.2259765625 2126.15 234.05 2127.444140625 232.315625 2129.2 230.95 2130.55 229.8 2132.4 229.2 2132.7 229.2 2132.95 229.3 2134.85 229.4 2136.65 228.85 2137.95 230 2139.85 230.8 2141.7064453125 231.679296875 2143.2 232.85
L 2145.3 235.35 2145.3 235.85
Q 2146.4 237.2 2146.5 238.75 Z"/>
</g>
</defs>

<g transform="matrix( 1, 0, 0, 1, -2120.8,-224.65) ">
<use xlink:href="#Layer0_0_FILL"/>
</g>
</svg>
