
<svg xmlns="http://www.w3.org/2000/svg" version="1.1" xmlns:xlink="http://www.w3.org/1999/xlink" preserveAspectRatio="none" x="0px" y="0px" width="50px" height="41px" viewBox="0 0 50 41">
<defs>
<g id="Layer0_0_FILL">
<path fill="#6A6A6A" stroke="none" d="
M 1996.35 10.25
L 1996.55 12.05 1997.2 12.5 1997.95 11.8
Q 1998 10.7 1997.25 9.7 1997 9.4 1996.7 9.65
L 1996.35 10.25
M 1998.15 8.25
Q 1998.1 8.35 1998 8.45 1997.75 9.7 1998.6 10.55 1998.75 10.75 1999 10.95
L 1999.9 10.3
Q 1999.95 10.25 2000 10.15 2000.05 10.05 2000.05 9.95 2000.15 10 2000.2 10.1 2000.45 10.15 2000.7 10.1 2000.85 10.1 2000.9 9.95 2000.95 9.95 2001 9.9
L 2001.65 9.7 2001.95 9.05 2001.6 6.6 2001.15 6.15 2000.05 6.65 2000 8.25 2000.15 8.75 1999.85 9.5 1999.55 7.85
Q 1998.85 7.65 1998.15 8.25
M 1997.25 4.75
L 1997.15 4.15 1994.1 3.55 1993.95 4.55 1997.25 4.75
M 1995.8 6
Q 1995.85 5.75 1995.5 5.5 1995.05 5.2 1994.5 5.15 1993.9 5.1 1993.5 5.25 1993.05 5.4 1993 5.7 1993 6 1993.4 6.2 1993.75 6.5 1994.3 6.55 1994.9 6.6 1995.35 6.45 1995.8 6.3 1995.8 6
M 1999.2 2.95
Q 1999.25 2.7 1998.65 2.45 1998.1 2.1 1997.25 2.05 1996.4 1.95 1995.85 2.1 1995.25 2.25 1995.2 2.5 1995.15 2.8 1995.75 3.1 1996.25 3.4 1997.1 3.5 1997.95 3.55 1998.55 3.45 1999.15 3.25 1999.2 2.95
M 2033.7 -27.45
Q 2033.3 -27.35 2033.25 -27 2033.25 -26.15 2034.2 -26.25 2034.2 -26.2 2034.25 -26.2 2034.25 -26.05 2034.35 -25.95 2034.9 -25.85 2035.5 -25.65 2034.7 -25.15 2034.05 -24.45 2033.8693359375 -24.2693359375 2033.7 -24.1 2033.6693359375 -24.0693359375 2033.65 -24.05 2032.9564453125 -23.5298828125 2032.2 -23.15 2032.1130859375 -23.1033203125 2032 -23.05 2031.15 -22.65 2030.85 -21.85
L 2030.45 -21.8
Q 2030.15 -21.5 2029.85 -21.2 2030.15 -20.9 2030.35 -20.5 2030.6 -19.8 2030.75 -19.15 2031.2 -19.45 2031.7 -19.8 2032.35 -20.25 2032.8 -20.85 2033.0501953125 -21.1001953125 2033.3 -21.3 2033.7501953125 -21.603515625 2034.2 -21.7 2034.536328125 -21.748046875 2034.8 -21.9 2035.0921875 -22.0162109375 2035.3 -22.25
L 2035.25 -23 2037.4 -23.95 2037.25 -20.85 2038.45 -20.7 2041.8 -26.75 2042.7 -27.85 2042.4 -28.25 2042 -28.45
Q 2038.05 -28.4 2033.7 -27.45
M 2006.5 -1.65
Q 2005.603515625 -1.223046875 2004.75 -0.75 2004.071875 -0.35625 2003.4 0.05 2002.0640625 0.981640625 2000.85 2.05 1999.75 3.05 1998.6 3.9 1997.3 4.8 1996.35 5.95 1995.9 6.55 1995.35 7 1995.3 7.15 1995.3 7.3 1995.25 7.45 1995.3 7.6 1995.35 7.65 1995.4 7.75 1995.5 7.85 1995.7 7.85 1995.75 7.85 1995.9 7.85
L 1995.95 8.45 1996.55 8.95
Q 1997.2 8.85 1997.55 8.25 1997.8 7.7 1998.2 7.3 1999 6.6 1999.65 6 2001.4 4.6 2003 3.05 2003.73359375 2.3896484375 2004.55 1.65 2004.84375 1.41640625 2005.15 1.15 2005.25 1.1 2005.4 0.95 2005.6310546875 0.800390625 2005.85 0.65 2006.467578125 0.209765625 2007.05 -0.3 2007.15 -0.3 2007.2 -0.4
L 2007.45 -1
Q 2007.5 -1.15 2007.5 -1.25 2007.45 -1.4 2007.3 -1.5 2007.1 -1.65 2006.9 -1.75
L 2006.5 -1.65 Z"/>

<path fill="#000000" stroke="none" d="
M 2035.15 -14.65
Q 2035.95 -17.35 2035.45 -20.3
L 2035.15 -20.75 2034.8 -21.9
Q 2034.536328125 -21.748046875 2034.2 -21.7 2033.7501953125 -21.603515625 2033.3 -21.3 2034.1984375 -19.0779296875 2033.8 -16.35 2033.7 -15.4 2033.5 -14.45 2032.9 -12.05 2031.9 -10.15 2030.6 -7.7 2029.05 -5.45 2028.95 -5.05 2028.75 -4.8 2028.45 -4.2 2027.85 -3.5 2026.3 -1.7 2024.9 0 2024.6 0.35 2024.25 0.8 2023.3 2 2022.2 3.1 2019 6.2 2015.7 9.25 2014.9 9.95 2013.85 10.3 2013.1 10.2 2012.65 9.55 2012.15 8.8 2011.55 8.1 2010.05 6.25 2008.55 4.25 2007.2205078125 2.47734375 2005.85 0.65 2005.6310546875 0.800390625 2005.4 0.95 2005.25 1.1 2005.15 1.15 2004.84375 1.41640625 2004.55 1.65 2004.9650390625 2.2439453125 2005.4 2.8 2005.9 3.5 2006.45 4.2 2009.15 7.8 2011.9 11.35 2012.7 12.45 2014.05 12.4 2014.8 11.7 2015.75 11.05 2016.75 10.5 2017.55 9.75 2019.85 7.55 2022.1 5.4 2023.05 4.45 2023.9 3.5 2024.35 2.95 2025.1 2.3 2025.7 1.75 2026.1 1.15 2027.5 -0.55 2028.8 -2.25 2030 -3.85 2031.2 -5.35 2031.55 -6.55 2032.2 -7.6 2033.3 -9.25 2034.1 -11.1 2034.7 -12.5 2034.95 -13.95 2035 -14.3 2035.15 -14.65
M 2021.8 -26.5
Q 2020.2 -25.8 2018.7 -24.85 2017 -23.8 2015.95 -22.45 2015.4 -23.3 2014.5 -23.9 2013.65 -24.5 2012.95 -25.05 2010.8 -26.55 2008.15 -26.8 2005.95 -26.7 2003.85 -26.05 2001.1 -25.35 1998.95 -23.2 1997.75 -21.65 1997.7 -19.85 1997.65 -19.4 1997.55 -19 1997.55 -18.85 1997.5 -18.75 1997.05 -16.2 1997.55 -13.75 1997.6 -13.45 1997.7 -13.1 1998 -12 1998.25 -10.7 1998.55 -9.4 1999 -8.3 2000.8056640625 -3.8412109375 2003.4 0.05 2004.071875 -0.35625 2004.75 -0.75 2004.7298828125 -0.7701171875 2004.7 -0.8 2004.3 -1.1 2004.05 -1.8 2003.6 -2.9 2002.9 -3.95 2001.1 -7.05 2000.1 -10.1
L 2000.1 -10.85 1999.15 -14.4 1998.8 -14.8
Q 1998.8 -15.45 1998.8 -16 1998.8 -17.55 1999 -18.85 1999.15 -20.15 1999.65 -21.25 2000.5 -22.7 2002.05 -23.8 2004.6 -25.45 2007.8 -25.1 2010.35 -24.65 2012.35 -23.4 2014.2 -22.1 2015.35 -20.05
L 2016.5 -20.15
Q 2019.35 -24.65 2024.4 -25.75 2027.25 -26.5 2029.95 -25.05 2030.95 -24.6 2031.65 -23.85 2031.9587890625 -23.513671875 2032.2 -23.15 2032.9564453125 -23.5298828125 2033.65 -24.05 2033.6693359375 -24.0693359375 2033.7 -24.1 2033.5984375 -24.209375 2033.5 -24.35 2033.3 -24.65 2033 -25 2031.15 -26.8 2028.7 -27.45 2025 -28.15 2021.8 -26.5 Z"/>

<path fill="#FFFFFF" stroke="none" d="
M 1999.65 -21.25
Q 1999.15 -20.15 1999 -18.85 1998.8 -17.55 1998.8 -16 1998.8 -15.45 1998.8 -14.8
L 1999.15 -14.4 2000.1 -10.85 2000.1 -10.1
Q 2001.1 -7.05 2002.9 -3.95 2003.6 -2.9 2004.05 -1.8 2004.3 -1.1 2004.7 -0.8 2004.7298828125 -0.7701171875 2004.75 -0.75 2005.603515625 -1.223046875 2006.5 -1.65
L 2006.9 -1.75
Q 2007.1 -1.65 2007.3 -1.5 2007.45 -1.4 2007.5 -1.25 2007.5 -1.15 2007.45 -1
L 2007.2 -0.4
Q 2007.15 -0.3 2007.05 -0.3 2006.467578125 0.209765625 2005.85 0.65 2007.2205078125 2.47734375 2008.55 4.25 2010.05 6.25 2011.55 8.1 2012.15 8.8 2012.65 9.55 2013.1 10.2 2013.85 10.3 2014.9 9.95 2015.7 9.25 2019 6.2 2022.2 3.1 2023.3 2 2024.25 0.8 2024.6 0.35 2024.9 0 2026.3 -1.7 2027.85 -3.5 2028.45 -4.2 2028.75 -4.8 2028.95 -5.05 2029.05 -5.45 2030.6 -7.7 2031.9 -10.15 2032.9 -12.05 2033.5 -14.45 2033.7 -15.4 2033.8 -16.35 2034.1984375 -19.0779296875 2033.3 -21.3 2033.0501953125 -21.1001953125 2032.8 -20.85 2032.35 -20.25 2031.7 -19.8 2031.2 -19.45 2030.75 -19.15 2030.6 -19.8 2030.35 -20.5 2030.15 -20.9 2029.85 -21.2 2030.15 -21.5 2030.45 -21.8
L 2030.85 -21.85
Q 2031.15 -22.65 2032 -23.05 2032.1130859375 -23.1033203125 2032.2 -23.15 2031.9587890625 -23.513671875 2031.65 -23.85 2030.95 -24.6 2029.95 -25.05 2027.25 -26.5 2024.4 -25.75 2019.35 -24.65 2016.5 -20.15
L 2015.35 -20.05
Q 2014.2 -22.1 2012.35 -23.4 2010.35 -24.65 2007.8 -25.1 2004.6 -25.45 2002.05 -23.8 2000.5 -22.7 1999.65 -21.25 Z"/>
</g>
</defs>

<g transform="matrix( 1.00604248046875, 0, 0, 1.001220703125, -2005.05,28.5) ">
<use xlink:href="#Layer0_0_FILL"/>
</g>
</svg>
