
<svg xmlns="http://www.w3.org/2000/svg" version="1.1" xmlns:xlink="http://www.w3.org/1999/xlink" preserveAspectRatio="none" x="0px" y="0px" width="253px" height="261px" viewBox="0 0 253 261">
<defs>
<linearGradient id="Gradient_1" gradientUnits="userSpaceOnUse" x1="59.225" y1="74.77499999999999" x2="60.275" y2="101.325" spreadMethod="pad">
<stop  offset="0%" stop-color="#FFFFFF" stop-opacity="0.07058823529411765"/>

<stop  offset="100%" stop-color="#FFFFFF" stop-opacity="0"/>
</linearGradient>

<linearGradient id="Gradient_2" gradientUnits="userSpaceOnUse" x1="33.0125" y1="74.76249999999999" x2="33.3875" y2="101.3375" spreadMethod="pad">
<stop  offset="0%" stop-color="#FFFFFF" stop-opacity="0.07058823529411765"/>

<stop  offset="100%" stop-color="#FFFFFF" stop-opacity="0"/>
</linearGradient>

<linearGradient id="Gradient_3" gradientUnits="userSpaceOnUse" x1="86.7375" y1="74.77499999999999" x2="86.8625" y2="101.325" spreadMethod="pad">
<stop  offset="0%" stop-color="#FFFFFF" stop-opacity="0.07058823529411765"/>

<stop  offset="100%" stop-color="#FFFFFF" stop-opacity="0"/>
</linearGradient>

<linearGradient id="Gradient_4" gradientUnits="userSpaceOnUse" x1="126.725" y1="61.58749999999999" x2="126.775" y2="114.5125" spreadMethod="pad">
<stop  offset="0%" stop-color="#FFFFFF" stop-opacity="0.07058823529411765"/>

<stop  offset="100%" stop-color="#FFFFFF" stop-opacity="0"/>
</linearGradient>

<filter id="Filter_1" x="-26.81973908028215%" y="-44.12095060358843%" width="153.6394781605643%" height="188.24190120717685%" color-interpolation-filters="sRGB">
<feGaussianBlur in="SourceGraphic" stdDeviation="6.666666666666667,1.3333333333333333" result="result1"/>

<feColorMatrix in="result1" type="matrix" values="1 0 0 0 0 0 1 0 0 0 0 0 1 0 0 0 0 0 0.16 0" result="result2"/>
</filter>

<filter id="Filter_2" x="-20%" y="-20%" width="140%" height="140%" color-interpolation-filters="sRGB">
<feColorMatrix in="SourceGraphic" type="matrix" values="0.8 0 0 0 0 0 0.8 0 0 0 0 0 0.8 0 0 0 0 0 1 0" result="result1"/>
</filter>

<g id="Folder_zduplikowanych_element_w_start_0_Layer3_0_MEMBER_0_MEMBER_0_FILL">
<path fill="#5366C1" stroke="none" d="
M 106.75 33.9
L 107.25 24.45 97.75 23.95 106.75 33.9 Z"/>
</g>

<g id="Folder_zduplikowanych_element_w_start_0_Layer3_0_MEMBER_0_MEMBER_1_FILL">
<path fill="#6767B4" stroke="none" d="
M 106.95 33.9
L 113.75 45.5 116.2 36.3 106.95 33.9 Z"/>
</g>

<g id="Folder_zduplikowanych_element_w_start_0_Layer3_0_MEMBER_0_MEMBER_2_FILL">
<path fill="#999900" stroke="none" d="
M 95.9 14.35
L 86.5 16.3 97.75 23.75 95.9 14.35 Z"/>
</g>

<g id="Folder_zduplikowanych_element_w_start_0_Layer3_0_MEMBER_0_MEMBER_3_FILL">
<path fill="#0099CC" stroke="none" d="
M 86.25 16.1
L 82.05 7.5 73.4 11.45 86.25 16.1 Z"/>
</g>

<g id="Folder_zduplikowanych_element_w_shadow_0_Layer0_0_FILL">
<path fill="#000000" stroke="none" d="
M 34.4 -4.05
Q 20.15 -6.55 0 -7.1 -20.15 -7.7 -34.4 -6.05 -48.65 -4.4 -48.65 -1.45 -48.65 1.45 -34.4 3.95 -20.15 6.45 0 7.05 20.15 7.6 34.4 5.95 48.65 4.3 48.65 1.4 48.65 -1.55 34.4 -4.05 Z"/>
</g>

<g id="Folder_zduplikowanych_element_w_start_0_Layer2_0_MEMBER_1_MEMBER_0_FILL">
<path fill="#6464BD" stroke="none" d="
M 117.1 65
Q 117.1 42.35 101.15 26.3 85.1 10.25 62.35 10.25 39.7 10.25 23.6 26.3 7.65 42.35 7.65 65 7.65 87.75 23.6 103.8 39.7 119.8 62.35 119.8 85.1 119.8 101.15 103.8 117.1 87.75 117.1 65 Z"/>
</g>

<g id="Folder_zduplikowanych_element_w_start_0_Layer2_0_MEMBER_3_MEMBER_0_MEMBER_0_FILL">
<path fill="#FFFFFF" fill-opacity="0.06666666666666667" stroke="none" d="
M 100.4 117
L 100.7 117 100.7 116.75 100.4 117
M 73.05 116.95
L 59.85 103.8 46.65 116.95 33.45 103.8 28.45 108.7
Q 34.05 114.05 41.75 117.15 51.4 120.9 61.55 120.85 67.2 120.8 73.4 119.8 79.8 118.75 82.4 117.3 88.8 115.8 93.75 111.35
L 86.3 103.8 73.05 116.95 Z"/>
</g>

<g id="Folder_zduplikowanych_element_w_start_0_Layer2_0_MEMBER_3_MEMBER_0_MEMBER_1_FILL">
<path fill="url(#Gradient_1)" stroke="none" d="
M 59.75 81.4
L 46.45 94.65 73 94.65 59.75 81.4 Z"/>

<path fill="url(#Gradient_2)" stroke="none" d="
M 33.2 81.4
L 19.85 94.65 46.45 94.65 33.2 81.4 Z"/>

<path fill="url(#Gradient_3)" stroke="none" d="
M 100.15 94.65
L 86.8 81.4 73.5 94.65 100.15 94.65 Z"/>

<path fill="url(#Gradient_4)" stroke="none" d="
M 113.4 81.4
L 100.15 94.65 126.1 94.65 126.1 94.15 113.4 81.4 Z"/>
</g>

<g id="ogon_kopia_0_Layer0_0_MEMBER_0_MEMBER_0_FILL">
<path fill="#666600" stroke="none" d="
M 46.3 46.9
L 41.6 46.95
Q 37.7 46.8 36.15 46.65 34.9 46.55 33.8 46.35 33.75 46.25 33.75 46.2 31.9 46.15 30.5 45.8 29.45 45.45 29.2 45.45
L 29.2 45.5
Q 29.35 45.7 29.8 45.95 29 45.75 28.3 45.65 24.25 44.45 22.05 43.8 21.25 43.55 20.55 43.35 19.75 42.95 18.95 42.6 18.65 42.4 18.3 42.25 17.3 41.75 16.65 41.45
L 16.8 41.35
Q 16.8 41.25 16.8 41.1 16.65 40.9 15.85 40.7 15.7 40.65 15.6 40.65 15.5 40.5 15.4 40.35 14.65 39.8 14.45 39.5 14.4 39.45 14.35 39.45 14.3 39.4 14.2 39.4 14 39.3 13.8 39.3 12.9 39.2 12.5 39.9 12 40.7 12.25 42.3 12.5837890625 43.9314453125 11.25 46.75 14.5560546875 47.990234375 17.75 48.95 25.9015625 48.909765625 34.15 49.15 54.007421875 49.72890625 66.55 40.6 65.6046875 40.9322265625 64.5 41.45 64.35 41.5 64.25 41.55 63 42.15 61.5 43 59.5 44.3 58.4 45 56.95 45.4 55.05 45.85 53.25 45.85 51.5 45.95 46.5 46.25 46.3 46.9
M 85.7 9.2
Q 84.7572265625 8.258984375 83.7 7.4 83.1 6.1 80.6 4.8 80.3 4.65 79.95 4.5 79.25 2.55 75.3 1.6 72.9 1.05 67.2 0.65
L 61.45 0.6 61.45 0.75
Q 57.6 1.05 57.4 1.05 55.25 1.35 54.7 2.1 55 2.2 55.45 2.25 55.45 2.75 58.55 3.6 62.65 4.7 65.25 6.1 65.25 6.15 65.25 6.2 65.25 6.45 67.5 8.65 70.1 11.1 70.65 11.85 70.95 12.3 72.1 14.05
L 72.45 14.05 72.6 14
Q 72.65 14 72.7 14.2 72.85 14.2 72.85 14.6 72.85 14.7 72.7 14.9 72.7 14.95 72.75 15 73.1 15.6 73.45 16.05 73.8 16.55 74.1 16.95 74.55 18.3 74.8 19.85 74.85 20 74.85 20.15 75.2 22.05 75.25 24.1
L 75.3 24.15
Q 75.25 24.2 75.25 24.25 75.35 24.3 75.4 24.35 75.35 24.4 75.3 24.45 75.3 25 75.3 25.6 75.3 26.1 75.3 26.6 75.2 26.75 75.1 26.9 74.8 27.55 74.95 28.05 74.6 28.7 74.2 29.35 74.5 29.85 74.5 30.1 74.5 30.15 74.5 30.2 74.5 30.55 74.4 30.6
L 74.35 30.6
Q 74.25 30.6 74.15 30.6 73.85 30.6 73.55 30.6 72.7 32.2 71.8 34.05 71.65 34.4 71.5 34.75 71.6 35.15 71.75 35.65 71.65 35.85 71.55 35.9 71.5 36 71.3 36.05 71.2 36 70.95 35.9 70.4431640625 36.9595703125 70.2 37.6 79.7279296875 28.7794921875 84.15 13.25 84.7853515625 11.03125 85.7 9.2 Z"/>
</g>

<g id="ogon_kopia_0_Layer0_0_MEMBER_0_MEMBER_0_MEMBER_0_FILL">
<path fill="#555500" stroke="none" d="
M 63.95 6.05
Q 62.35 5.4 61.85 5.2 58.4 2.85 56.4 3.05
L 53.25 2.4 52.5 2.45
Q 52.45 2.15 52.45 2.65 52.45 4 52.5 4.5 52.65 5.15 53 5.15 53.3 5.15 53.9 4.4 54.5 3.65 54.55 3.65 54.8 3.65 55.3 3.8 55.8 4 56 4.05 55.7 5.05 55.8 5.75 55.85 5.75 56.1 5.85 56.4 5.9 56.65 5.9 56.8 5.9 57.3 5.55 58 5.25 59.05 5.25 59.95 5.25 60.2 5.45 60.35 5.55 60.35 5.95 60.35 6.75 60.1 7.3 59.85 7.8 59.35 8.25 59.65 8.45 60.3 8.45 60.65 8.45 61.65 8.25 62.15 8.1 63.65 7.7 63.9 7.65 64.3 7.65 64.35 7.65 64.45 7.65 65.1 8.15 65.75 8.65 65.4 9.1 64.95 9.85 64.5 10.6 64.5 10.7 64.5 11.1 65.1 11.1 66.6 11.2 68.85 11.9 68.6 12.25 68.4 12.9 68.2 13.55 68.2 14 68.2 14.6 69.9 14.7 70.9 14.75 71.3 15 71.55 15.2 71.55 15.45 71.55 15.5 71 16.1 70.4 16.75 70.4 17.05 70.4 17.15 72.1 18.35 73.75 19.45 73.75 20.1 73.75 20.2 73.35 20.5 72.85 20.8 72.2 20.85 72.2 20.95 72.15 21 72.1 21.05 72.1 21.3 72.1 21.55 73.05 22.45 74.05 23.4 74.5 23.4 74.6 24.1 74.45 24.5 74.05 24.6 73.35 24.9 72.9 25.05 72.6 25.25
L 71.5 25.05 70.95 25.1 70.85 25.3
Q 70.75 25.55 70.75 25.8 73.5 28.7 73.5 28.75 73.5 29.15 73.2 29.75 72.85 30.35 72.55 30.35 72.3 30.35 72.05 30.15 71.75 29.95 71.5 29.95 70.2 29.95 70.2 31.25 70.2 32.9 70.95 34.7
L 70.6 35.3
Q 68.7 33.5 68.25 33.4 67.85 33.65 67.85 34.25 67.85 35 68.4 37.55
L 67.75 38
Q 65.35 37 65.35 38.6 65.35 38.65 65.35 38.75 65.3 39 65.2 39.25 64.65 40.7 64.3 40.7 62.15 39.95 61.1 39.7 60.7 40.2 60.7 41.8 60.7 42.85 59.4 42.85 59.3 42.85 57.1 41.9 57 41.9 56.4 42.85 55.75 43.8 54.75 43.8 54.6 43.8 54.1 43.25 53.6 42.6 52.95 42.5 52.8 42.65 52.35 43.65 51.9 44.6 51.4 44.95 50.7 43.95 49.3 43.2 48.25 42.7 47.95 42.7 47.5 42.7 46.65 44.05 45.8 45.45 44.9 45.45 44.65 45.45 44 44.6
L 43.35 43.7 42.1 44.55
Q 40.9 45.35 40.75 45.35
L 39.5 45.3
Q 39.55 44.6 39.4 44.05 39.2 43.45 38.8 43.45
L 38.75 43.5
Q 38.4 43.35 37.7 43.95
L 36.55 45.1 35.2 44.95
Q 35.3 44.25 35 43.75 34.7 43.2 34.05 43.2 33.65 43.2 33.3 43.45 32.7 43.8 32.95 44.6 31.15 44.3 30.4 43.3 30 42.8 29.75 42.55
L 29.7 42.45
Q 29.6 42.45 29.55 42.45 29.5 42.4 29.45 42.4 29 41.95 29 42.75 28.65 43.05 28.05 43.6 26.4 43.6 26.05 42.25 25.7 40.9 25 40.9 24.85 40.9 24 41.7 23.15 42.45 22.55 42.45 22.45 42.45 22 41.3 21.4 40.05 20.3 39.45 20.1 39.55 19.4 40.1 18.7 40.65 18.45 40.7 18.35 39.9 18 37.3 17.95 37.3 17.85 37.25 17.8 37.2 17.5 37.2 16.45 37.85 15.7 38.25 15.6 38.05 15.3 36.8 15.05 35.65 14.7 35.3
L 14.6 35.3 14.6 35.35 14.5 35.3
Q 13.95 35.85 13.95 38 13.95 38.35 14.05 38.8 14.2 39.45 14.55 39.5 16.25 42.25 25 44.35 34.65 46.7 45.1 46.7 47.3 46.7 49.9 46.2 51.45 45.9 54 45.55 56.5 45.2 60.6 43.35 64.7 41.5 67.05 39.9 68.65 39.9 71.3 35.9 73.8 32.1 73.8 30.5 73.8 30 74.55 27.45 75.3 24.95 75.3 24.15 75.3 23 74.75 21.15 74.2 19.35 74.2 18.55 74.2 17.6 73.35 16.2 72.3 13.05 68.95 9.9 65.55 6.75 63.95 6.05 Z"/>
</g>

<g id="ogon_kopia_0_Layer0_0_MEMBER_0_MEMBER_0_MEMBER_1_FILL">
<path fill="#1F1513" stroke="none" d="
M 85.95 10
Q 86.149609375 9.558984375 86.35 9.1 79.1384765625 0.96328125 68.1 0
L 60.4 0 60.4 0.15
Q 55.75 0.6 54.3 0.8 52.05 1.05 51.75 2.35 63.3 3.7 69.65 11.4 74.55 17.35 74.55 23.75 74.55 30.6 70.85 35.6 63.05 46.05 41.5 46.05 29.1 46.05 20.4 42.5 17.65 41.4 15.55 40.05 14.55 39.4 13.85 38.75 13.55 39.1 13.5 39.1 16.25 41.7 20.6 43.45 29.5 47 43.65 47 63.85 47 71.55 36.2 75.45 30.75 75.45 23.75 75.45 17.45 70.8 11.2 64.85 3.3 54.75 2.05
L 55.3 1.95
Q 55.6 1.9 57.5 1.5 59.4 1.1 60.3 1
L 68.4 1
Q 78.867578125 1.579296875 85.95 10 Z"/>
</g>

<g id="ogon_kopia_0_Layer0_0_MEMBER_0_MEMBER_0_MEMBER_2_FILL">
<path fill="#1F1513" stroke="none" d="
M 65 10.55
L 65 10.5
Q 65.4 9.95 65.75 9.15 66.05 8.3 66.05 7.85 66.05 7.7 65.95 7.6 65.9 7.45 65.4 7.05 63.5 7.1 61.65 7.45 60.85 7.6 59.9 7.85
L 60 7.7
Q 60.65 6.45 60.65 5.5 60.65 5.1 60.6 5 60.45 4.7 59.8 4.6 56.45 5.75 56 5.75 56 3.8 55.8 2.85 54.5 3.1 54.15 3.7 53.65 4.45 52.9 4.85
L 52.9 4.7
Q 52.9 2.95 52.7 2.2
L 52.45 2.2
Q 52.3 5 52.3 5.25 52.3 5.7 52.45 5.7 52.55 5.75 53.15 5.75 53.35 5.55 54.15 4.75 54.95 4.05 55.4 4 55.35 4.95 55.3 5.45 55.3 6.3 55.95 6.75 56.45 6.6 59.85 5.25 59.95 5.35 59.95 5.3 60 5.3 60 5.7 60 5.95 59.3 7.1 58.65 8.3 58.65 8.65 58.65 9.1 58.8 9.1 58.9 9.15 59.25 9.1 59.95 8.9 61.85 8.55 63.75 8.25 65 8.15 65 8.9 64.65 9.6 64.25 10.3 64.25 10.65 64.25 11.15 64.3 11.3 64.3 11.5 64.45 11.6 64.7 11.55 65.6 11.4 66.8 11.3 68.6 11.3 68.6 11.8 67.7 13.2
L 66.85 14.55
Q 66.85 15 66.95 15 67 15 67 14.95
L 68.25 15
Q 68.9 15 71.4 14.8 70.75 15.25 70.05 16.2 69.3 17.25 69.15 17.4 69.4 17.8 71.2 18.6 73.25 19.55 73.7 19.85 73.45 20.1 72.2 20.4 71.1 20.65 70.65 21.4 71.95 22.15 74.15 24.05 72.9 24.85 72.45 24.8 70.95 24.7 70.25 24.8 70.15 24.7 70.15 25.4 70.15 25.85 71.7 27.75 72.45 28.7 73.35 29.7
L 71.85 29.75
Q 71.55 29.75 70.7 29.55 70 29.45 69.9 29.5
L 69.9 31.8
Q 70.4 33.35 70.4 33.95
L 70.4 34.3 70.35 34.2
Q 69.8 34.05 69 33.25 68.2 32.45 67.7 32.35
L 67.35 32.6 67.35 36.2
Q 67.5 36.5 67.6 37.1 67.75 37.7 67.85 37.95 67.3 37.8 66.45 37.25 65.8 36.75 65.15 36.75 64.75 36.75 64.7 36.8
L 64.75 36.85
Q 64.55 38.45 64.4 39.1 64.2 40.25 63.85 40.75 63.55 40.55 62.2 39.5 61.05 38.6 60.8 38.6 60.4 38.6 60.35 38.7 60.3 38.8 60.25 38.8 60.2 40.15 60.15 40.75 60.05 41.9 59.85 42.6 56.8 40.3 56.7 40.3 56.3 40.3 56.3 40.4 56.4 40.5 56.35 40.5 56.5 41.15 56.05 42.3 55.55 43.55 55.55 43.8 55.1 43.65 53.85 42.25 52.7 40.9 52.45 40.9 52.05 40.9 51.95 41
L 52 41.1
Q 52 42.25 51.45 44.55 51.2 44.35 49.6 42.9 48.2 41.6 48.05 41.6 47.8 41.6 46.7 43.1 45.5 44.85 44.9 45.3 44.65 44.2 44.55 43.95 44.1 42.9 43.15 42.9 42.8 42.9 41.75 43.9 40.5 45.1 40.2 45.2 39.9 44.25 39.65 43.7 39.1 42.65 38.05 42.65 37.95 42.65 35.75 44.85 35.35 44.6 35.05 43.6 34.7 42.55 34.2 42.1 33.8 42.4 32.85 43.45 31.9 44.5 31.85 44.55 31.6 43.65 30.85 42.6 30 41.3 29.35 41.3 29.05 41.3 28.15 42.35 27.15 43.45 26.95 43.65 26.4 41 25.25 39.8 24.45 40.25 23.45 41.25 22.55 42.2 22.3 42.25 22.2 42.15 21.65 40.3 20.95 38.55 20.4 38.55 20.25 38.55 19.55 39.35 18.75 40.2 18.7 40.2
L 18.55 40.1
Q 18.5 40.1 18.45 38.15 18.45 36.9 17.3 36.2 16.25 36.9 15.6 37.35 15.55 37 15.5 36.6 15.35 35.7 15.35 35.25 15.1 33.8 14.35 34.15 13.65 34.55 13.65 35.4 13.65 35.5 13.7 35.6 13.8 35.75 14 35.75 14.35 35.75 14.55 35.45 14.7 37.05 14.75 37.2 14.8 37.6 14.85 37.85
L 14.85 37.9
Q 14.8 38.15 14.95 38.35 14.55 38.8 14.55 39.25 14.55 39.35 14.55 39.45 14.65 39.6 14.9 39.6 15.1 39.6 15.65 38.55 15.85 38.4 16.1 38.25 17.1 37.45 17.35 37.3 17.4 37.45 17.55 37.6 17.65 37.7 17.7 37.7 17.7 40.1 17.95 41.55
L 18.6 41.6
Q 18.9 41.5 19.5 40.75
L 20.3 39.75
Q 20.7 40.8 21.1 41.7 21.85 43.4 22.4 43.4 22.8 43.4 23.7 42.45 24.75 41.25 25.25 40.95 25.65 41.45 25.95 43.1 26.25 44.6 26.75 45.15 27.6 44.7 28.25 43.75 29 42.7 29.4 42.35 29.9 42.9 30.65 44.2 31.2 45.2 31.9 45.7 32.45 45.25 33.25 44.35 33.65 43.85 34.05 43.3 34.2 43.8 34.6 44.75 35.2 46.05 35.25 46.2 36.1 45.75 37 44.85 37.5 44.35 38.25 43.6 38.55 44.05 39.2 45.35 39.8 46.4 40.15 46.4 41.25 46.4 42 45.35 43 44 43.2 43.9 43.25 43.95 43.8 45.2 44.45 46.45 44.95 46.45 45.3 46.45 46.5 44.9 47.8 43.1 48.15 42.85 48.6 43.1 50.05 44.45 51.35 45.65 51.55 45.65 51.95 45.65 52.05 45.55 52.15 45.45 52.2 45.45 52.25 44.3 52.75 42.75 53 42.9 54.2 43.95 55.4 44.95 55.7 44.95 56.05 44.95 56.5 43.6 56.75 42.9 57 41.9 57.35 42.1 58.5 42.9 59.7 43.65 60.3 43.65 61.05 43.65 61.05 42.1 61.05 41.25 61 39.9 61.25 40.1 62.5 40.8 63.8 41.55 64.1 41.55 64.15 41.55 64.25 41.55 64.35 41.5 64.5 41.45 64.95 41.15 65.25 40.1 65.55 39 65.55 37.9 65.9 37.9 66.85 38.5 67.85 39.1 68.15 39.1 68.25 39.1 68.4 39.1 68.55 39.05 68.65 38.95 68.65 38.9 68.7 38.85 68.7 38.75 68.7 38.6 68.65 38 68.35 36.55 68.1 35.15 68.1 34.85 68.1 34.2 68.15 33.85 68.55 34.25 69.7 35.05 70.5 35.65 70.95 35.9 71.2 36 71.3 36.05 71.5 36 71.55 35.9 71.65 35.85 71.75 35.65 71.6 35.15 71.5 34.75 70.65 31.8 70.65 30.95 70.65 30.25 70.7 30.15 71.05 30.35 71.5 30.4 72.15 30.5 73.55 30.6 73.85 30.6 74.15 30.6 74.25 30.6 74.35 30.6
L 74.4 30.6
Q 74.5 30.55 74.5 30.2 74.5 30.15 74.5 30.1 74.5 29.85 74.2 29.35 73.85 28.75 73 27.8 71.3 25.85 71.2 25.65 73.2 25.4 74.25 24.9 74.7 24.7 75.2 24.3 75.2 24.25 75.25 24.25 75.25 24.2 75.3 24.15
L 75.25 24.1
Q 75.2 24.1 75.15 24.05 74.05 22.75 74.05 22.7 73.2 21.85 72.25 21.45 72.6 21.25 74.25 20.35 74.75 20.05 74.75 19.95 74.75 19.8 74.7 19.65 74.5 19.1 73.45 18.55 71.55 17.75 70.4 17.1 70.6 16.9 71.7 15.75 72.3 15.1 72.6 14.75 72.7 14.5 72.7 14.45 72.7 14.3 72.7 14.2 72.65 14 72.6 14
L 72.45 14.05 68.35 13.9
Q 68.35 13.1 68.85 12.4 69.4 11.75 69.4 11.4 69.4 10.9 69.35 10.75 69.3 10.6 69.15 10.5
L 65.7 10.4
Q 65.3 10.4 65.1 10.5
L 65 10.55 Z"/>
</g>

<g id="ogon_kopia_0_Layer0_0_MEMBER_1_FILL">
<path fill="#777700" stroke="none" d="
M 33.5 48.9
Q 32.8349609375 46.2140625 32.45 48.9 33.006640625 48.928515625 33.5 48.9
M 20.45 48.05
Q 20.8576171875 48.1048828125 21.25 48.15 22.0826171875 48.2529296875 22.9 48.35 22.8603515625 47.933984375 22.8 47.5 22.5 45.25 22 44.8 20.899609375 45.5466796875 20.45 48.05
M 76.8 30.75
Q 75.15 29.714453125 75.15 30.5 75.15 30.63359375 75.9 31.7 76.3646484375 31.2435546875 76.8 30.75
M 43.65 48.2
Q 43.342578125 47.8150390625 43.25 48.25 43.4525390625 48.2224609375 43.65 48.2
M 72.75 3.6
Q 73.45 3.6 74.5 3.9 75.55 4.2 75.9 4.2 76.4 4.2 76.7 3.75 74 1.5 70.05 2.1 66.35 2.65 66.35 4.1 66.35 4.3 66.9 4.85 67.3 4.8 68.15 4.2 69.55 3.6 72.75 3.6
M 81.05 22.85
Q 81.6587890625 23.2375 82.2 23.6 82.834375 22.6212890625 83.45 21.6 81.044921875 20.089453125 78.95 19.35 76.4 18.55 76.4 19.55 76.4 19.9 81.05 22.85
M 84.3 15.25
Q 85.5109375 16.0384765625 86.3 16.35 86.959765625 15.043359375 87.55 13.65 85.810546875 11.8951171875 80.4 10.45 72.35 8.25 72.35 10.9 72.35 12 75.35 12.45 80.1 13.1 80.75 13.3 81.9 13.65 84.3 15.25 Z"/>
</g>

<g id="krokodyl_kopia_2_0_Layer0_1_MEMBER_0_MEMBER_0_MEMBER_0_FILL">
<path fill="#555500" stroke="none" d="
M 95.45 134.3
Q 95.35 134.4 95.3 135.2 95.25 135.7 92.05 137.95
L 92 138.75 93 138.95
Q 94.5 139.15 96.05 138.65 97.55 138.2 100.05 136.85
L 97.45 140.9
Q 97.5 141.4 98.55 141.5 98.85 141.6 103.05 140.2
L 103.3 140.1
Q 102 142.3 101.8 143.65
L 101.8 143.85
Q 101.9 144 102.55 144.15 104.5 144.3 107.35 140.05 109.8 135.65 109.8 135.55
L 109.8 134.75
Q 109.65 134.8 109.55 134.75 107.55 136.05 106.65 135.9 106.6 135.9 105.75 135.35
L 105.6 135.35 105.45 135.25 105.45 135.2
Q 103.25 134.7 100.5 132.9 98.55 131.75 97.7 130.5 97.05 130.15 96.35 129.75 94.75 129.55 92.75 130.85 90.5 132.2 89.5 134.15 89.45 134.75 89.6 134.75 89.7 134.9 90.4 134.95 90.55 135.05 92.25 134.8 94.2 134.65 95.45 134.3 Z"/>

<path fill="#666600" stroke="none" d="
M 102.15 92.95
Q 93.4 84.35 87.35 78.35
L 87.15 78.4
Q 87 78.65 86.7 80.85 86.3 82.7 86.25 83.75 85.4 91.45 85.9 95.05 86.15 96.95 86.45 97.85 86.4 98.35 87 98.9 87.2 98.9 88.4 99.45 89.65 99.8 92.5 101.1 95.3 102.3 95.95 103.4 102.15 109.45 102.05 114.95 101.85 120.95 100 123.7 98.25 126.5 96.95 128.3 96.9 129.35 97.7 130.5 98.55 131.75 100.5 132.9 103.25 134.7 105.45 135.2
L 105.45 135.25 105.6 135.35 105.75 135.35 107.05 135.65
Q 108.3 135.75 110 134.35 111.6 133.2 111.65 132.75 111.8 132.55 111.9 132.4 112.05 132.15 112.2 132 112.55 131.4 113.1 131.1 113.95 129.3 114.35 128.45 115.4 126 115.4 125.8 115.55 125.55 115.75 125.25 116.4 117.7 115.55 112.9 114.55 107.8 111.35 103.25 108.6 99.35 102.15 92.95 Z"/>
</g>

<g id="krokodyl_kopia_2_0_Layer0_1_MEMBER_0_MEMBER_0_MEMBER_1_FILL">
<path fill="#1F1513" stroke="none" d="
M 103.45 97.6
Q 103.35 97.75 103.3 98.95 102.95 101.3 104 103.55 105.05 105.95 107.1 107.6 105.25 105.8 104.3 103.5 103.15 101.15 103.35 99.2 103.5 97.5 104.55 96.25 103.65 97.05 103.45 97.6
M 86.95 76.55
Q 86.65 80.25 91.35 84.6 94.05 87.2 101.85 93 108.8 98.9 112 104.6 112.25 105.1 112.55 105.75
L 114.15 111.6
Q 115.75 118.2 115.4 121.7 114.95 125.1 114.15 127.15 112.75 130.05 111.45 133 111 133.5 110.7 133.65 108.6 135.4 105.95 135.1 103.65 134.9 100.2 132.15 97 129.6 97.05 128.45 97.05 128.05 97.85 127.1 99.35 125.15 99.55 124.85 102.1 121.3 102.5 117.5 103.05 112.7 100.4 108 96.4 100.85 86.8 98.9 86.25 99.1 85.7 99.55 94.55 100 99 107.55 100.55 110.3 101.3 113.4 101.85 115.95 101.75 117.35 101.3 121.5 98.7 124.8 97.35 126.25 96.85 126.95 96 128 95.95 128.8 95.85 129.7 98.95 132.65 102.55 135.7 105.1 136.05 108.4 136.35 110.7 134.35 112.05 133.3 112.7 131.85
L 112.65 131.7
Q 114.9 128.15 115.2 127.45 116.1 125.65 116.45 121.95 117.05 116 115.5 110.8 113.9 104.95 109.35 99.2 107.85 97.2 104 93.75 99.3 89.7 97 87.5 88.2 79.35 87.6 74.85
L 87.35 74.9
Q 87 76 86.95 76.55 Z"/>
</g>

<g id="krokodyl_kopia_2_0_Layer0_1_MEMBER_0_MEMBER_0_MEMBER_1_MEMBER_0_FILL">
<path fill="#1F1513" stroke="none" d="
M 105.5 98.05
Q 105.85 97.25 105.9 97.05 106.05 96.9 106.3 96.6 106.3 96.5 106.25 96.45 105.5 97.4 105.05 99.2 104.65 100.7 105.6 102.8 107.15 105.95 111.3 107 112.55 107.3 113.35 107 113.4 106.9 113.5 107 113.5 106.9 113.5 106.8 112.95 106.95 111.35 106.55 106.9 105.55 105.75 102.05 105.1 100.2 105.5 98.05 Z"/>
</g>

<g id="krokodyl_kopia_2_0_Layer0_1_MEMBER_0_MEMBER_0_MEMBER_2_FILL">
<path fill="#1F1513" stroke="none" d="
M 94.35 134.9
L 94.2 135.1
Q 94 135.75 92.55 137.05 90.35 138.65 90.25 138.75 90.4 138.9 91.95 139.2 93.2 139.25 94 139.45 94.85 139.45 96.85 138.8 98.8 138.2 99.1 138.25
L 98.95 138.35
Q 98.85 138.9 97.3 140.15 95.7 141.25 95.75 141.65 95.6 142.1 95.85 142.15 96.05 142.2 96.9 142.25 98.7 141.45 100.25 141.1 101.95 140.9 102.5 140.65 102.55 140.8 102.6 140.95 100.9 143.7 100.9 144.2 100.85 144.7 100.9 144.85 101 144.9 101.35 144.95 105.45 143.3 107.4 140.1 108.5 138.3 110.3 134.55 109.4 135.15 108.6 136.55 107.7 138.1 107.2 138.9 105.1 142.25 102.1 143.6
L 102.1 143.45
Q 102.15 143.35 103.1 141.6 104 139.75 104.1 139.35 104.25 138.85 104.1 138.85 104.05 138.85 103.95 138.8 102.55 139.45 101.45 140.15 99.3 141.2 97.55 141
L 97.85 140.8
Q 98.9 140.05 99.55 139.1 100.3 138.15 100.4 137.4 100.45 137.05 100.35 136.85
L 100 136.55
Q 98.1 137.55 97.25 137.85 95.85 138.3 92.45 138.3
L 92.95 137.85
Q 95.85 135.15 95.9 134.3 95.9 133.85 95.8 133.8 95.7 133.75 95.55 133.65 93.75 134.15 92.9 134.35 91.35 134.7 89.9 134.65
L 90.35 134.4
Q 91.25 133.65 93.8 131.6 96.05 129.8 96.7 129.35
L 96.55 129.25
Q 94.8 129.3 92.2 131.1 88.85 133.7 86.75 135.25 86.95 135.55 89.35 135.75 89.6 135.8 91.45 135.45 93.15 135.25 94.35 134.9 Z"/>
</g>

<g id="krokodyl_kopia_2_0_Layer0_1_MEMBER_0_MEMBER_1_MEMBER_0_MEMBER_0_MEMBER_0_FILL">
<path fill="#666600" stroke="none" d="
M 14.75 90.65
Q 13.35 91.7 12.3 91.9 12.1 92 11.95 92.2 10.7 93.2 9.9 94.8 7.95 97.95 8.3 100.3 8.45 100.55 8.5 100.95 9.75 105.3 17.15 108.65 24.6 112.05 33.25 110.55 40.45 109.2 47.55 105.1 47.9 104.45 51.1 101.85 54.15 99.4 56.35 97.9 58.75 96.05 61.6 94.3 62.95 93.55 64.15 93 65.95 91.4 67.75 89.85 65.7 88.3 57 86.8 49.35 85.35 48.6 85.45 47.95 85.65 47.25 86.3 46.9 88 44.55 90.8 42.25 93.65 39.75 95 36.85 97.3 33.35 97.9 27.65 98.85 21.8 94.45 17.05 89.9 16.6 90 15.75 90.15 15 90.45 14.85 90.45 14.75 90.65 Z"/>

<path fill="#555500" stroke="none" d="
M 15.25 85.65
Q 14.2 83.95 13.5 81.8 12.85 81.65 12.45 81.6 12.15 82.1 11.95 83.45 11.65 86.35 11.5 87.3 9.75 86.65 8.55 83.4
L 8.15 83.25
Q 7.6 84.45 7.45 86.35 7.2 88.8 7.75 89.9
L 8.15 91.55
Q 5.25 88.45 4.55 88.1 3.85 89.5 4.5 93.8
L 4.5 93.95
Q 1.7 91.95 1.25 91.85 0.9 91.9 0.85 91.95 0.6 92.05 0.65 92.75 0.85 93.2 0.95 93.65 1.05 93.95 1.2 94.25 1.65 95.05 2.6 96.9 3 97.8 4.95 99.1 6.9 100.45 7.55 101.05 7.95 101.1 8.5 101.15 8.5 101.1 8.5 100.95 8.45 100.55 8.3 100.3 7.95 97.95 9.9 94.8 10.7 93.2 11.95 92.2 12.05 92 12.15 91.9
L 12.3 91.9
Q 13.35 91.7 14.75 90.65 14.85 90.45 15 90.45 16.1 89.5 16.05 89.2
L 15.8 88.6 15.95 88.6
Q 15.55 86.3 15.25 85.65 Z"/>
</g>

<g id="krokodyl_kopia_2_0_Layer0_1_MEMBER_0_MEMBER_1_MEMBER_0_MEMBER_0_MEMBER_1_FILL">
<path fill="#1F1513" stroke="none" d="
M 12 85.1
Q 11.85 83.6 12.25 82.15
L 12.5 82.6
Q 13.1 83.65 14.55 86.5 15.8 89.15 16.15 89.7
L 16.35 89.65
Q 16.65 87.8 15.25 85 13.35 81.25 12.35 78.9 12.05 79.1 11.35 81.3 11.25 81.65 11.15 83.55 11.1 85.1 11.2 86.3
L 11.05 86.2
Q 10.5 85.95 9.5 84.25 8.2 81.85 8.2 81.75 8.1 81.85 7.5 83.3 7.1 84.35 6.9 85.25 6.65 85.95 6.8 88.1 7.15 90.05 7.1 90.45
L 6.95 90.25
Q 6.3 90.05 5.6 88.25 4.75 86.6 4.35 86.4 3.95 86.3 3.9 86.5 3.7 86.6 3.55 87.6 3.1 90.3 3.9 93.3 3.75 93.25 3.7 93.25 1.85 91.65 1.15 91.15 1 91 0.9 90.95 0.55 90.8 0.35 90.85 0.15 90.9 0.05 91.35
L 0 91.4
Q 0.95 95.6 3.7 98.2 5.2 99.5 8.5 101.95 8.15 101.05 6.95 100.05 5.65 98.85 4.75 98.2 1.95 95.6 1.2 92.4
L 1.25 92.4
Q 1.5 92.45 3.05 93.8 4.65 95 5.05 95.05 5.45 95.25 5.5 95.2 5.55 95.05 5.6 94.95 5.15 93.55 4.75 92.35 4.15 90.15 4.65 88.45
L 4.7 88.7
Q 5.3 89.85 6.15 90.7 6.8 91.65 7.55 91.85 8 91.95 8.2 91.85
L 8.5 91.7
Q 7.9 89.65 7.75 88.65 7.6 87.25 8.25 83.9
L 8.55 84.5
Q 10.8 87.8 11.55 88 12.05 88.15 12.05 88.1 12.1 87.95 12.2 87.85 12.05 85.9 12 85.1 Z"/>
</g>

<g id="krokodyl_kopia_2_0_Layer0_1_MEMBER_0_MEMBER_1_MEMBER_0_MEMBER_0_MEMBER_2_FILL">
<path fill="#555500" stroke="none" d="
M 47.6 85.65
L 47.45 86.1
Q 47.25 86.75 46.8 87.5 45.65 89.35 42.7 93.3 39.7 97.25 28.65 98.1 29.5 101.15 32.7 104 36.45 107.4 40.75 107.4 41.5 107.4 43.05 103.95 46.6 96.05 52.1 86.2 48.95 85.65 47.6 85.65 Z"/>
</g>

<g id="krokodyl_kopia_2_0_Layer0_1_MEMBER_0_MEMBER_1_MEMBER_0_MEMBER_0_MEMBER_3_FILL">
<path fill="#1F1513" stroke="none" d="
M 30.65 104.45
Q 31.65 106.5 32.3 106.85 30.15 103.4 29.8 101.1
L 29.7 99.4
Q 29.7 99.25 29.65 99.25 29.2 99.8 29.6 102.1 29.7 102.65 30.65 104.45
M 34.15 105.95
Q 34.45 105.95 34.3 105.85 31.75 102.15 31.6 99.2
L 31.45 99.2 31.5 100.55
Q 31.6 100.6 32.35 103.35 33.3 106.15 34.15 105.95
M 12.6 91.4
Q 8.9 94.2 8.1 96.7 7.15 99.9 8.65 102.45 9.45 103.95 10.7 104.9
L 14.6 108.1
Q 16.1 109.2 19.75 110.4 25.4 112.05 30.7 111.6 36.8 111.1 43.25 107.65 45.5 106.6 49.6 103.55 54.5 99.85 57 97.9 66.5 90.85 71.1 91.05
L 71.1 90.8
Q 70.05 90.3 69.55 90.05 66.05 89.1 60.9 92.9 57.85 95.2 50.7 101.5 43.7 107.2 37.45 109.4 29.1 112.15 20.1 109.4 16.8 108.45 15.05 107.15 12.55 105.3 10 103.45 9.5 102.85 9.3 102.6 8.05 100.35 8.8 97.8 9.5 95.5 12.75 92.65 15.85 89.95 16.9 90.25 17.3 90.35 18.05 91.25 19.7 93.15 20.05 93.35 22.9 96.6 26.65 97.7 31.25 99.05 36.35 97.4 44.1 94.75 47.75 85.75 47.6 85.3 47.35 84.65 45.15 93.2 37.05 96.05 34.2 97.05 30.95 97.25 28.4 97.3 26.95 96.85 22.95 95.7 20.35 92.45 19.1 91 18.55 90.3 17.65 89.35 16.8 89.15 15.95 88.8 12.6 91.4 Z"/>
</g>

<g id="krokodyl_kopia_2_0_Layer0_1_MEMBER_0_MEMBER_1_MEMBER_0_MEMBER_0_MEMBER_4_FILL">
<path fill="#1F1513" stroke="none" d="
M 7.4 95.45
L 7.4 94.85
Q 7.65 93.55 9.15 92.15 10.95 90.45 12.65 90.65 11 90.25 9.05 92 7.45 93.55 7.15 94.85 7 95.45 7.25 95.5
L 7.4 95.45 Z"/>
</g>

<g id="krokodyl_kopia_2_0_Layer0_1_MEMBER_0_MEMBER_1_MEMBER_0_MEMBER_1_MEMBER_0_MEMBER_0_MEMBER_0_MEMBER_0_MEMBER_0_FILL">
<path fill="#666600" stroke="none" d="
M 19.15 157.6
Q 19.175390625 157.704296875 19.2 157.8 19.47578125 157.8419921875 19.75 157.85 19.449609375 157.7427734375 19.15 157.6
M 87.9 70.2
Q 87.1 65.7 86.15 67.45 82.8 69.75 74.7 73.9 63.8 79.55 58.5 80.7 58.45 81.1 58.4 81.75 58.4 82.2 58.4 82.45 58.35 83.85 57.4 88.15 56.45 92.4 56.1 93.05 55.85 93.45 55.5 93.9 55.6 94 55.7 94.25 55.9 94.5 55.9 94.7 55.85 95.5 53.4 97.8 53.3 96.55 51.3 98.6
L 47.1 102.75
Q 43.8 105.25 39.5 106.3 37.95 106.65 37.55 107 37.2 107.15 37.05 107.55 36.35 108.1 35.4 109.4 35 109.9 34.55 110.6 32.95 113.25 32.25 114.85 25.45 127.65 24.7 128.75 23.3 130.9 20.8 137.3 20.661328125 137.6625 20.5 138 54.0595703125 153.7916015625 91.05 159.1 91.2330078125 157.0359375 91.3 154.8 91.4 150.2 91.15 133.65
L 90.8 118.1
Q 90.65 115.85 88.8 98.8 88.35 94.3 88.15 82.4
L 88 71.5 88.25 70.25 88.25 70.2 88.2 70.1 88.1 70.1
Q 87.95 70.15 87.9 70.2 Z"/>

<path fill="#555500" stroke="none" d="
M 90.85 43.3
Q 90.85 43.1 90.8 42.95 90.5 42.35 89.9 41.75 88.75 40.75 88.7 42.35 88.65 42.9 88.9 43.75 87.2 47.95 87.2 48 87.1 48.25 87.15 48.4 84.7 51.05 82.35 54.1 81.2 55.8 77.4 58.9 73.3 62.25 72.35 63.4 68.05 68.5 57.6 74.6 52.6 77.6 51.45 78.4 48.9 80.25 48.85 81.3 49.05 82.65 49.1 83.2 48.85 84.1 48.5 85.15 47.65 87.95 45.5 92.25 44.3 94.8 40.55 100.9 37.4 106.15 37.4 106.45 37.4 106.65 37.55 107 37.95 106.65 39.5 106.3 43.8 105.25 47.1 102.75
L 51.3 98.6
Q 53.3 96.55 53.4 97.8 55.85 95.5 55.9 94.7 55.9 94.5 55.7 94.25 55.6 94 55.5 93.9 55.85 93.45 56.1 93.05 56.45 92.4 57.4 88.15 58.35 83.85 58.4 82.45 58.4 82.2 58.4 81.75 58.45 81.1 58.5 80.7 63.8 79.55 74.7 73.9 82.8 69.75 86.15 67.45 87.1 65.7 87.9 70.2 87.95 70.15 88.1 70.1
L 88.2 70.1 88.25 70.2
Q 88.25 70.05 88.3 69.8
L 88.45 63.75
Q 88.7 62.15 89.85 55.2 90.45 51.7 90.8 49.95
L 90.8 49.9
Q 90.7 47.4 90.85 43.3 Z"/>
</g>

<g id="krokodyl_kopia_2_0_Layer0_1_MEMBER_0_MEMBER_1_MEMBER_0_MEMBER_1_MEMBER_0_MEMBER_0_MEMBER_0_MEMBER_0_MEMBER_1_FILL">
<path fill="#1F1513" stroke="none" d="
M 90.3 162.75
Q 90.3716796875 161.784375 90.45 160.65 90.333984375 161.6365234375 90.2 162.7 90.2486328125 162.740234375 90.3 162.75
M 49.55 81.9
Q 49.55 80.75 49.4 80.05
L 49.05 80.05
Q 48 86.2 42.95 95.75 40.85 99.75 32.6 113.35 25.65 124.7 22.65 131.3 20.4904296875 136.026953125 19.3 140.1 19.878125 140.3810546875 20.4 140.65 21.675390625 136.30234375 24.1 131.15 27.3 124.2 34.45 112.55 42.8 98.95 44.65 95.35 49.4 86.6 49.55 81.9
M 91.55 48
Q 91.55 47.35 91.35 46.8 89.35 51.95 88.5 61.55 88.2 66.15 87.85 77.35 87.5 87.75 88.1 95.6 88.25 98.9 89.35 108.4 91.25 125.55 91.25 140.15 91.2 144.6 91.05 148
L 91.2 149.85
Q 91.35 147.3 91.5 144.45 92.5 126.45 90.65 106.95 89.6 96.75 89.25 91.55 88.75 81.9 89.15 69.1 89.2 67.8 90.4 57.9 91 52.85 91.55 48 Z"/>
</g>

<g id="krokodyl_kopia_2_0_Layer0_1_MEMBER_0_MEMBER_1_MEMBER_0_MEMBER_1_MEMBER_0_MEMBER_0_MEMBER_0_MEMBER_1_FILL">
<path fill="#555500" stroke="none" d="
M 34.2 141.45
Q 33.105078125 138.6677734375 33.25 136.35 34.25 130.3 34.4 129.75
L 34.2 129.55
Q 33.25 130.5 32.4 134.9 31.712109375 138.253125 31.6 140.55 32.93046875 140.99921875 34.2 141.45
M 76.6 105.65
Q 76.4 105.1 76.35 104.85 76.05 104.1 75.75 104.05 75.05 104.05 75 104.1 74.65 104.25 74.9 105.8 75 107.05 75.4 107.85 77.1 113.75 77.8 119.55 78.55 128.3 76.05 136.6 71.569140625 149.7357421875 61.05 153.1 65.1041015625 153.82265625 68.25 154.75 74.5671875 149.0095703125 77.75 138.4 79.55 132.15 79.8 125.95 79.8 124.85 79.85 123.8 79.8 121.45 79.65 119.1 78.8 112.25 76.6 105.65 Z"/>
</g>

<g id="krokodyl_kopia_2_0_Layer0_1_MEMBER_0_MEMBER_1_MEMBER_0_MEMBER_1_MEMBER_0_MEMBER_0_MEMBER_0_MEMBER_2_FILL">
<path fill="#8A8A00" stroke="none" d="
M 81.75 71.8
Q 82.2 69.8 82.65 69.1 79.75 71.1 72.65 74.7 63.05 79.7 58.25 80.75 58.25 81.1 58.2 81.7 58.15 82.1 58.15 82.3 58.15 83.6 57.35 87.3 56.5 91.05 56.15 91.65 55.95 91.95 55.7 92.35 55.8 92.5 55.9 92.7 56 92.95 56 93.05 56 93.8 53.85 95.85 53.9 96 53.9 96.2 53.85 97.25 50.85 101.75 44.75 110.6 44.2 111.55 34.45 126.6 34.2 135.8 34.1173828125 138.4033203125 34.65 141 50.6623046875 145.8310546875 64.1 153.65 66.2138671875 152.19765625 68.25 150 72.7 145.25 74.35 141 74.65 140.3 76.5 133.5 78.6 125.8 78.65 124.05 79.4 117.55 79.45 116.75 79.45 115.7 79.45 115.1
L 79.65 109.45 79.45 109.05 79.75 95.75
Q 79.8 94.65 79.95 93.95 79.9 93.75 79.9 93.5 79.9 91.9 80.15 88.85
L 80.3 83.15
Q 80.25 82.7 80.3 81.7 80.4 77.25 81.75 71.8 Z"/>
</g>

<g id="krokodyl_kopia_2_0_Layer0_1_MEMBER_0_MEMBER_1_MEMBER_0_MEMBER_1_MEMBER_0_MEMBER_0_MEMBER_0_MEMBER_2_MEMBER_0_FILL">
<path fill="#1F1513" stroke="none" d="
M 56.9 149.15
Q 54.617578125 149.084765625 52.5 148.65 53.7890625 149.4423828125 55 150.25 55.869140625 150.3248046875 56.75 150.35 60.25 150.45 61.45 148.65
L 61.15 148.65
Q 57.95 149.2 56.9 149.15
M 59 80.6
Q 59.05 80.45 59.05 80.3 59.35 80.3 59.75 80.35 61.25 80.3 65.2 78.55 69.1 76.65 71.1 75 70 75.1 65.8 77.25 61.55 79.4 58.45 80.05 58.45 80.15 58.65 80.2
L 58.6 80.2
Q 58.4 80.25 58.4 80.4 58.15 80.4 58 80.4 57.95 87.4 54.15 95.35 51.7 100.35 45.65 109.15 39.4 118.5 37.2 122.8 33.25 130.6 33 137.1 32.965234375 138.45546875 33.05 139.8 33.6537109375 139.9919921875 34.25 140.2 34.153125 138.815625 34.2 137.35 34.25 136.05 34.45 134.7 34.7 135.4 35.3 136.4 36.8296875 139.41015625 39.15 142 40.2080078125 142.45234375 41.25 142.9 40.4740234375 142.1666015625 39.75 141.35 37.05 138.25 34.75 133.2 35.55 128.95 38 124.1 38.25 123.7 38.45 123.25 40.85 126.45 44.75 129.25 52.5 135.2 60.9 135.3 65 135.4 67.25 134.15 68.55 133.3 69.7 132.2 69.1 132.1 68.55 132.25 67.8 132.8 67.25 133.1 65.1 134.3 60.9 134.2 51.15 134.05 44.45 128.85 40.95 126.15 38.8 122.6 40.75 119.05 44.2 114 46.1 116.45 50.25 118.8 57.65 123 68.1 123.25 70.45 123.25 73.8 121.3 76.65 119.6 77.8 118.4 77.4 118.4 76.6 119 75.5 119.9 74.4 120.4 70.3 122.25 62.15 122.1 56.65 122 50.95 118.3 48.1 116.55 44.45 113.6 45.15 112.4 45.95 111.3 48.8 107.2 50.6 104.35 50.9 104.45 51.3 104.85 51.95 105.55 52.7 105.9 55.95 107.5 64.8 107.7 69.15 107.8 73.6 104.15 76.15 102 77.75 99.6
L 77.65 99.3
Q 76.85 99.9 75.8 101.6 74.65 103.3 73.65 104 69.95 106.9 59.35 106.65 56.5 106.55 53.4 105.15 51.5 104.3 50.95 103.85 52.9 100.75 53.95 98.85 57.55 92.15 57.7 86.9 57.75 85.4 58.2 83.75 59.05 80.65 59.05 80.6
L 59 80.6 Z"/>
</g>

<g id="krokodyl_kopia_2_0_Layer0_1_MEMBER_0_MEMBER_1_MEMBER_0_MEMBER_1_MEMBER_0_MEMBER_0_MEMBER_1_MEMBER_0_MEMBER_0_FILL">
<path fill="#1F1513" stroke="none" d="
M 40.75 46.65
Q 41.25 45 41.35 39.45 41.45 36.55 41.55 34.45 40.85 41.9 39.95 46.35
L 40 46.65 40.75 46.65 Z"/>
</g>

<g id="krokodyl_kopia_2_0_Layer0_1_MEMBER_0_MEMBER_1_MEMBER_0_MEMBER_1_MEMBER_0_MEMBER_0_MEMBER_1_MEMBER_0_MEMBER_0_MEMBER_0_FILL">
<path fill="#1F1513" stroke="none" d="
M 88.8 26.2
Q 88.8 26.3 88 29
L 88.3 29.1
Q 89.8 26.65 89.9 26.2 90.15 25.9 90.15 23.9 90.25 20.85 88.75 18.4 86.25 14.35 80.3 14.2 73.15 14.55 69.75 16.3 68.85 16.75 68 17.5
L 68.05 17.3
Q 67.25 17.3 65.55 18.1 63.8 18.85 63.3 18.85 59.35 18.8 58.35 18.3 57.2 17.85 54.8 17.8 49.15 17.7 46.35 19.7 43.85 21.5 42.8 25.6 42.35 27.25 41.9 30.85 42.05 30.6 42.05 30.3 44 18.9 54.6 19.15 55.9 19.15 57.5 19.65 59.1 20.2 63.55 20.25 64.15 20.25 65.8 19.5 66.3 19.25 66.65 19.1 66.7 19.05 66.9 19 67.3 18.7 67.7 18.35 69.25 17.3 70.2 16.85 74.55 15 80.3 15.1 85.9 15.2 87.95 19.15 89.1 21.3 88.95 24.15 88.95 25.6 88.8 26.2 Z"/>
</g>

<g id="krokodyl_kopia_2_0_Layer0_1_MEMBER_0_MEMBER_1_MEMBER_0_MEMBER_1_MEMBER_0_MEMBER_0_MEMBER_1_MEMBER_0_MEMBER_0_MEMBER_1_FILL">
<path fill="#1F1513" stroke="none" d="
M 43.4 20.9
Q 43.35 22.45 44.05 23.85 45.6 26.8 50.1 26.9 53.7 26.95 56.1 23.7 57.9 21.25 57.95 19.25 58.1 16.2 55.9 14.65 53.85 13.25 50.9 13.6 48 13.85 45.9 15.75 43.55 17.8 43.4 20.9
M 45.6 17.2
Q 47.4 14.65 49.65 14.8 53.3 14.45 55.35 16.6 56.85 18.15 56.75 19.5 56.75 20.8 55.2 22.75 52.8 25.85 48.45 25.8 46.6 25.75 45.25 23.75 44.1 22.15 44.1 21.05 44.25 19.35 45.6 17.2
M 48.15 22.45
Q 48.65 22.6 49.1 22.6 50.5 22.65 51.1 21.55 51.4 21 51.4 20.15 51.4 19.3 51.35 19.3 49.55 18.8 48.75 19.65 48.1 20.7 47.8 21.05
L 47.8 22.4 48.15 22.45 Z"/>
</g>

<g id="krokodyl_kopia_2_0_Layer0_1_MEMBER_0_MEMBER_1_MEMBER_0_MEMBER_1_MEMBER_0_MEMBER_0_MEMBER_1_MEMBER_0_MEMBER_0_MEMBER_2_FILL">
<path fill="#1F1513" stroke="none" d="
M 86.8 18.75
Q 87.5 16.85 87.65 12.85 87.75 8.6 85.5 7.15 83.45 5.95 80.4 7.15 77.4 8.4 75.2 11.1 72.8 14.05 72.75 17.25 72.7 19.1 73.8 20.5 75.75 22.8 80.3 22.85 85.15 23.05 86.8 18.75
M 86.25 15.45
Q 86.2 17 85.2 18.75 83.45 21.65 80.25 21.55 75.7 21.4 74.3 18.9 73.7 17.8 73.8 15.45 73.8 13.95 75.8 11.75 77.9 9.5 80.25 8.55 82.95 7.45 84.5 8.75 86.35 10.45 86.25 15.45
M 80.7 15.25
Q 80.7 14.55 80.65 14.25 79.25 14.1 77.8 14.05 77.75 14.5 77.75 15.15 77.6 15.65 77.75 16 77.9 16.75 78.8 16.8 80.65 16.85 80.7 15.25 Z"/>
</g>

<g id="krokodyl_kopia_2_0_Layer0_1_MEMBER_0_MEMBER_1_MEMBER_0_MEMBER_1_MEMBER_0_MEMBER_0_MEMBER_1_MEMBER_0_MEMBER_0_MEMBER_3_FILL">
<path fill="#1F1513" stroke="none" d="
M 59.45 16.35
Q 59.95 19.15 57.85 23.6 55.3 29.2 50.65 30.35 50.45 30.45 48.25 30.5 46.15 30.65 45.6 30.8 46 31.35 46.55 31.7 47.65 32.4 49.65 31.9 54.45 30.7 57.9 24.85 59.15 22.7 59.85 20.5 60.5 18.35 60.25 17.55 60.15 17.05 60 16.85 59.95 16.7 59.7 16.3
L 59.45 16.35 Z"/>
</g>

<g id="krokodyl_kopia_2_0_Layer0_1_MEMBER_0_MEMBER_1_MEMBER_0_MEMBER_1_MEMBER_0_MEMBER_0_MEMBER_1_MEMBER_0_MEMBER_0_MEMBER_4_FILL">
<path fill="#1F1513" stroke="none" d="
M 69.7 15.8
Q 70.1 18.75 70.1 19 70.3 20.4 71.1 21.85 72.65 24.65 75.3 24.45 76 24.3 76.75 24.2 77.6 24.05 77.75 23.9 71.45 22.4 70.8 18.8 70.65 17.8 70.85 15.6 71.05 13.55 70.85 12.5 69.55 12.95 69.7 15.8 Z"/>
</g>

<g id="krokodyl_kopia_2_0_Layer0_1_MEMBER_0_MEMBER_1_MEMBER_0_MEMBER_1_MEMBER_0_MEMBER_0_MEMBER_1_MEMBER_0_MEMBER_0_MEMBER_5_FILL">
<path fill="#1F1513" stroke="none" d="
M 30.15 82.65
Q 23.65 79.2 22.05 79.05
L 22.05 79.45
Q 22.4 79.6 24.65 81.15 27.05 82.75 29.3 83.85 36.95 87.45 46.55 87.7 52.05 87.8 56.15 85 58.6 83.3 59.25 81.8 57.35 83.55 55.55 84.35 51.45 86.4 46.6 86.3 38 86.1 30.15 82.65
M 90.55 46.35
L 90.7 45.65
Q 90.75 43.85 89.7 42.6 88.75 41.4 87.25 41.3 83.4 41.05 81.2 47.4 80.55 49.45 78.55 53.1 76.2 57.35 75.7 58.65 74.9 60.25 74.2 61.95 75.25 60.35 76.35 58.45 78.95 54.1 83.25 47.3 86.25 42.55 86.85 42.55 88.7 42.6 89.4 44.4 89.8 45.45 90.2 46.65 90.35 46.55 90.55 46.35 Z"/>
</g>

<g id="krokodyl_kopia_2_0_Layer0_1_MEMBER_0_MEMBER_1_MEMBER_0_MEMBER_1_MEMBER_0_MEMBER_0_MEMBER_1_MEMBER_0_MEMBER_0_MEMBER_6_FILL">
<path fill="#1F1513" stroke="none" d="
M 81.4 40
Q 81.45 39.5 81.45 39.45 81.4 39.4 81.25 39.3
L 80.85 39.3
Q 76.4 50.95 70.05 61.5 57.55 82.45 45.15 82.2 37.95 81.95 29.4 78.55 26.6 77.4 24.25 76.15 22.3 75.1 22.3 74.85 40 47.85 40 47.75 40 47.3 39.95 47.3 39.9 47.25 39.6 47.25 35.35 52.65 28.25 63.1 20.75 74.05 20.7 74.9 20.7 75.2 22.4 76.35 24.45 78 27.2 79.4 35.55 83.55 45.15 83.75 62.8 84.15 81.4 40 Z"/>
</g>

<g id="krokodyl_kopia_2_0_Layer0_1_MEMBER_0_MEMBER_1_MEMBER_0_MEMBER_1_MEMBER_0_MEMBER_0_MEMBER_1_MEMBER_0_MEMBER_0_MEMBER_7_FILL">
<path fill="#1F1513" stroke="none" d="
M 66.25 75.2
Q 69.25 72.15 71.5 70 67.25 73.6 64.95 75.65 58.6 81.1 56.05 84.4
L 56.85 84.75
Q 59.35 82.25 66.25 75.2
M 90.75 26.05
Q 90.85 25.55 90.75 25.45 90.75 25.4 90.7 25.3 90 26.1 89.6 29.45 89.1 32.15 89.1 33.85 89 34.15 89.95 39.2 90.85 44.25 90.85 44.6 90.7 49.3 86.35 55.15 91.65 49.05 91.7 46.4 91.8 43.75 90.75 39 89.7 34.2 89.8 30.65 89.8 29.95 90.3 28.4 90.75 26.85 90.75 26.05 Z"/>
</g>

<g id="krokodyl_kopia_2_0_Layer0_1_MEMBER_0_MEMBER_1_MEMBER_0_MEMBER_1_MEMBER_0_MEMBER_0_MEMBER_1_MEMBER_0_MEMBER_0_MEMBER_8_FILL">
<path fill="#1F1513" stroke="none" d="
M 49 10.1
L 47.6 10.15
Q 46.1 10.3 44.65 11.1 40.5 13.75 40.3 21.65 40.2 26.3 44.8 28.3 47.3 29.25 50.4 29.35 53.55 29.35 55.9 26.4 57.9 23.65 58.15 19.9 58.35 16 56.2 13.25 53.85 10.15 49 10.1
M 42.25 17.5
Q 42.35 14.2 45.3 12.5 47.3 11.55 48.95 11.6 49.95 11.6 51.35 11.95 53.4 12.45 54.5 13.35 58.5 17 55.9 22.8 54.85 25.2 53.1 26.65 51.35 28.25 49.65 27.95 46.3 27.65 45.1 26.65 42.05 24.3 42.25 17.5 Z"/>

<path fill="#FFFFFF" stroke="none" d="
M 45.3 12.5
Q 42.35 14.2 42.25 17.5 42.05 24.3 45.1 26.65 46.3 27.65 49.65 27.95 51.35 28.25 53.1 26.65 54.85 25.2 55.9 22.8 58.5 17 54.5 13.35 53.4 12.45 51.35 11.95 49.95 11.6 48.95 11.6 47.3 11.55 45.3 12.5 Z"/>
</g>

<g id="krokodyl_kopia_2_0_Layer0_1_MEMBER_0_MEMBER_1_MEMBER_0_MEMBER_1_MEMBER_0_MEMBER_0_MEMBER_1_MEMBER_0_MEMBER_0_MEMBER_9_FILL">
<path fill="#1F1513" stroke="none" d="
M 89.25 12.85
Q 89.1 9.05 86.3 6.75 83.2 4.4 78 5.2 77.8 5.2 76.55 5.25 75.1 5.75 74.2 6.75 71.1 9.9 72.45 18.65 72.85 21.8 77.4 22.95 79.75 23.45 82.1 23.4 85.45 22.9 87.6 19.6 89.6 16.55 89.25 12.85
M 81.8 7.45
Q 83.9 8.55 84.35 8.45 86.45 8.05 86.9 10.1 87.35 11.85 86.7 14.7 85.9 17.4 84.45 19.5 82.9 22 81.4 22.1 79.65 22.45 77.9 21.5 74.35 19.65 73.6 14.05 73.1 10.95 75 8.7 76.35 6.95 78.15 6.6 79.6 6.4 81.8 7.45 Z"/>

<path fill="#FFFFFF" stroke="none" d="
M 84.35 8.45
Q 83.9 8.55 81.8 7.45 79.6 6.4 78.15 6.6 76.35 6.95 75 8.7 73.1 10.95 73.6 14.05 74.35 19.65 77.9 21.5 79.65 22.45 81.4 22.1 82.9 22 84.45 19.5 85.9 17.4 86.7 14.7 87.35 11.85 86.9 10.1 86.45 8.05 84.35 8.45 Z"/>
</g>

<g id="krokodyl_kopia_2_0_Layer0_1_MEMBER_0_MEMBER_1_MEMBER_0_MEMBER_1_MEMBER_0_MEMBER_0_MEMBER_1_MEMBER_0_MEMBER_0_MEMBER_10_FILL">
<path fill="#1F1513" stroke="none" d="
M 82.35 9.3
Q 81.85 8.05 81.15 7.4 80.4 7.1 79.45 7.1 78.25 7.4 78.2 8.6 78.2 9.25 78.55 9.9 78.95 10.65 79.95 10.75
L 80.9 10.8
Q 81.7 10.9 82.1 10.05 82.3 9.65 82.35 9.3 Z"/>
</g>

<g id="krokodyl_kopia_2_0_Layer0_1_MEMBER_0_MEMBER_1_MEMBER_0_MEMBER_1_MEMBER_0_MEMBER_0_MEMBER_1_MEMBER_0_MEMBER_0_MEMBER_11_FILL">
<path fill="#1F1513" stroke="none" d="
M 48.9 13
Q 47.15 12.65 46.75 14.1 46.55 14.75 46.65 15.35 47.05 16.35 48.85 16.45 49.75 16.45 50.05 16.05 50.3 15.7 50.4 14.6 50.55 13.2 48.9 13 Z"/>
</g>

<g id="krokodyl_kopia_2_0_Layer0_1_MEMBER_0_MEMBER_1_MEMBER_0_MEMBER_1_MEMBER_0_MEMBER_0_MEMBER_1_MEMBER_0_MEMBER_0_MEMBER_12_FILL">
<path fill="#1F1513" stroke="none" d="
M 51.7 79.3
Q 53.35 78.35 53.35 77.4 53.4 76.35 51.7 75.8 50.3 75.25 48.15 75.35 46 75.5 44.55 76.1 42.9 76.9 42.9 78.1 42.7 78.7 42.85 79.2 43.25 80.3 45 80.3 49.5 80.4 51.7 79.3
M 52 77.5
L 51.85 77.65
Q 51.05 78 49.1 78.4 46.55 79.1 45.55 79.1 44.45 79.05 44.25 78.65
L 44.05 78
Q 46.25 76.6 48.05 76.55 49.6 76.5 52 77.5 Z"/>
</g>

<g id="krokodyl_kopia_2_0_Layer0_1_MEMBER_0_MEMBER_1_MEMBER_0_MEMBER_1_MEMBER_0_MEMBER_0_MEMBER_1_MEMBER_0_MEMBER_0_MEMBER_13_FILL">
<path fill="#1F1513" stroke="none" d="
M 32.3 72.3
Q 27.2 71.8 25.05 72.5 23.85 72.85 23.85 73.5 23.85 74.05 25.6 75.3 27.8 76.9 30.6 76.9 31.6 77 32.7 76.75 34.15 76.55 34.15 75.9 34.15 74.75 34.05 74.3 33.65 73.3 32.3 72.3
M 25.2 73.2
Q 25.75 73.05 27.05 73.05 28.4 73 31.85 73.15 32.75 73.65 32.9 74.25 32.9 74.85 33 75.25 32.15 75.6 31.4 75.6 28.95 75.55 27.1 74.7 25.75 74 25.2 73.2 Z"/>
</g>

<g id="krokodyl_kopia_2_0_Layer0_1_MEMBER_0_MEMBER_1_MEMBER_0_MEMBER_1_MEMBER_0_MEMBER_0_MEMBER_1_MEMBER_1_MEMBER_0_FILL">
<path fill="#666600" stroke="none" d="
M 89 22.35
Q 89.1 20.9 88.25 19.4 88.35 19.25 88.35 19.1 88.3 18.2 87.5 18.15 87 18.15 86.3 18.85 85.35 19.8 84.75 20.4 82.4 22.6 79.65 22.55 76.9 22.45 74.6 20.15 72.9 18.35 72.5 16.9 71.8 14.8 68.65 16.45 65 18.85 63.6 19.4
L 59.85 19.3
Q 59.6 19.3 58.75 19.05 58.05 18.65 57.7 18.65 57.5 18.65 57.4 18.7 57.4 18.85 57.4 19.05 57.25 19.7 57.15 20.3 57.4 20.5 57.7 20.7 57.6 20.9 57.45 21.2 56.5 23.25 55.95 24.15 53.3 28.4 48.6 28.3 45.65 28.2 44.6 27.2 43.5 26.2 43.25 26.2 42.7 26.2 42.45 26.45 42.4 26.55 42.35 26.6 42.4 26.75 42.4 27.05 42.4 27.1 42.4 27.2 42.4 27.25 42.4 27.35 42.4 27.75 42.3 28.3 42.35 28.7 42.35 28.85 41.05 34.45 40.85 40.3 41 42.9 39.55 46.15 38.95 47.35 36.3 51.9 35.7 52.95 27.9 64.45 25.2 68.5 23.7 70.95 22.4 71.6 22.1 72.6 22.05 72.6 22 72.65 21.3 73.75 20.8 74.65 20.75 75.05 20.75 75.6 20.75 76.8 21.5 77.9 21.65 78.25 21.9 78.65 22.65 79.75 23.75 80.3 23.95 80.45 24.2 80.7 24.95 81.4 27.55 82.85 30.25 84.3 30.95 84.3 31.1 84.3 31.1 84.2 29.65 83.55 28.65 83.1 30.4 83.65 32.65 84.25 43 87.1 48.65 87.4 50.7 87.5 54.2 85.75 54.95 85.15 55.8 84.45 71.6 71.15 73.65 69.15 83.9 57.05 89.2 51.35 89.6 50.95 89.9 50.55 91.15 48.15 91.15 48.05 91.25 47.25 91.4 46.55 91.35 45.55 91.3 45.1 91.2 44.6 91.05 44.25 91.25 43.95 91.25 43.45 91.25 43.4 90.15 38.2 89.15 32.6 89.3 31.4 89.45 30.25 89.75 28.85 89.95 27.4 90 26.95 90.05 26.55 89.7 25.6 89.2 24.3 89 22.35
M 27.9 72
Q 31.5 71.85 33 73.1 34 73.85 33.95 75.2 33.95 75.55 33.8 75.7 33.2 76 30.7 75.9 28.2 75.85 26.1 74.65 25.15 74.1 24.25 73.3 24.35 73.2 24.45 73.05 25.05 72.75 25.85 72.45 27.2 72.1 27.9 72
M 52.55 77.35
Q 52.55 78.2 51.45 78.4 49.15 78.9 48.3 79.3
L 44.55 79.2
Q 43.8 79.05 43.3 78.75 42.85 78.35 42.85 77.9 42.85 76.9 44.45 76.1 45.8 75.4 47.75 75.2 49.75 75.05 51.1 75.55 52.6 76.1 52.55 77.35 Z"/>

<path fill="#555500" stroke="none" d="
M 51.45 78.4
Q 52.55 78.2 52.55 77.35 52.6 76.1 51.1 75.55 49.75 75.05 47.75 75.2 45.8 75.4 44.45 76.1 42.85 76.9 42.85 77.9 42.85 78.35 43.3 78.75 43.8 79.05 44.55 79.2
L 48.3 79.3
Q 49.15 78.9 51.45 78.4
M 33 73.1
Q 31.5 71.85 27.9 72 27.2 72.1 25.85 72.45 25.05 72.75 24.45 73.05 24.35 73.2 24.25 73.3 25.15 74.1 26.1 74.65 28.2 75.85 30.7 75.9 33.2 76 33.8 75.7 33.95 75.55 33.95 75.2 34 73.85 33 73.1 Z"/>
</g>

<g id="krokodyl_kopia_2_0_Layer0_1_MEMBER_0_MEMBER_1_MEMBER_0_MEMBER_1_MEMBER_0_MEMBER_0_MEMBER_1_MEMBER_1_MEMBER_1_FILL">
<path fill="#1F1513" stroke="none" d="
M 41 39.75
Q 41.1 36.85 41.25 34.7 40.5 42.2 39.6 46.6
L 39.75 46.95 40.45 46.95
Q 40.9 45.3 41 39.75 Z"/>
</g>

<g id="krokodyl_kopia_2_0_Layer0_1_MEMBER_0_MEMBER_1_MEMBER_0_MEMBER_1_MEMBER_0_MEMBER_0_MEMBER_1_MEMBER_1_MEMBER_1_MEMBER_0_FILL">
<path fill="#1F1513" stroke="none" d="
M 88.95 26.35
Q 88.95 26.55 88.2 29.2
L 88.45 29.25
Q 89.95 26.8 90.15 26.35 90.25 26.1 90.3 24.1 90.4 21.05 88.9 18.65 86.45 14.55 80.45 14.35 73.35 14.7 69.95 16.55 69.1 16.9 68.15 17.65
L 68.15 17.5
Q 67.35 17.5 65.7 18.25 64.05 19.05 63.5 19.05 59.55 19 58.5 18.5 57.45 18.1 54.95 18.05 49.4 17.85 46.55 19.9 44 21.65 42.95 25.75 42.5 27.4 42.1 31.1 42.25 30.8 42.25 30.6 44.25 19.1 54.8 19.3 56.05 19.3 57.65 19.8 59.25 20.35 63.7 20.4 64.3 20.4 66 19.65 66.45 19.5 66.9 19.25 66.95 19.2 67.05 19.15 67.55 18.85 67.85 18.55 69.35 17.5 70.35 17.05 74.7 15.2 80.45 15.25 86.1 15.35 88.15 19.35 89.25 21.55 89.15 24.35 89.15 25.8 88.95 26.35 Z"/>
</g>

<g id="krokodyl_kopia_2_0_Layer0_1_MEMBER_0_MEMBER_1_MEMBER_0_MEMBER_1_MEMBER_0_MEMBER_0_MEMBER_1_MEMBER_1_MEMBER_1_MEMBER_1_FILL">
<path fill="#1F1513" stroke="none" d="
M 43.6 21.15
Q 43.55 22.65 44.3 24.1 45.8 26.95 50.25 27.15 53.85 27.15 56.25 23.9 58.1 21.4 58.15 19.5 58.25 16.35 56.05 14.8 54 13.45 51.05 13.8 48.15 14.05 46.05 16 43.75 18 43.6 21.15
M 45.85 17.4
Q 47.55 14.8 49.8 15 53.45 14.6 55.5 16.75 57 18.3 56.95 19.65 56.95 21.05 55.4 22.9 53 26.1 48.65 25.95 46.8 25.9 45.4 23.95 44.35 22.3 44.35 21.2 44.4 19.55 45.85 17.4
M 48.35 22.65
Q 48.85 22.75 49.35 22.75 50.65 22.8 51.3 21.75 51.55 21.15 51.6 20.35 51.6 19.55 51.55 19.55 49.75 19 48.9 19.8 48.3 20.85 48 21.2
L 48 22.6 48.35 22.65 Z"/>
</g>

<g id="krokodyl_kopia_2_0_Layer0_1_MEMBER_0_MEMBER_1_MEMBER_0_MEMBER_1_MEMBER_0_MEMBER_0_MEMBER_1_MEMBER_1_MEMBER_1_MEMBER_2_FILL">
<path fill="#1F1513" stroke="none" d="
M 86.95 18.9
Q 87.7 17.1 87.8 13.05 87.95 8.75 85.75 7.3 83.7 6.05 80.65 7.3 77.6 8.55 75.35 11.25 73 14.25 72.9 17.4 72.85 19.25 74 20.65 75.9 22.95 80.45 23.15 85.3 23.2 86.95 18.9
M 86.45 15.65
Q 86.35 17.2 85.35 18.9 83.65 21.8 80.35 21.7 75.8 21.65 74.5 19.1 73.85 18.05 73.9 15.6 74 14.1 76 11.85 78.05 9.65 80.4 8.7 83.15 7.65 84.7 8.95 86.6 10.65 86.45 15.65
M 77.9 15.3
Q 77.8 15.8 77.9 16.15 78.1 16.9 78.95 17 80.8 17.05 80.85 15.45 80.85 14.7 80.8 14.5 79.4 14.3 78 14.25 77.9 14.65 77.9 15.3 Z"/>
</g>

<g id="krokodyl_kopia_2_0_Layer0_1_MEMBER_0_MEMBER_1_MEMBER_0_MEMBER_1_MEMBER_0_MEMBER_0_MEMBER_1_MEMBER_1_MEMBER_1_MEMBER_3_FILL">
<path fill="#1F1513" stroke="none" d="
M 60.15 17
Q 60.1 16.8 59.9 16.55
L 59.65 16.6
Q 60.05 19.3 58 23.75 55.45 29.35 50.9 30.6 50.6 30.65 48.4 30.7 46.35 30.8 45.8 30.95 46.15 31.6 46.75 31.9 47.9 32.65 49.85 32.1 54.6 30.85 58.1 25.05 59.35 22.85 60 20.65 60.65 18.6 60.45 17.7 60.35 17.25 60.15 17 Z"/>
</g>

<g id="krokodyl_kopia_2_0_Layer0_1_MEMBER_0_MEMBER_1_MEMBER_0_MEMBER_1_MEMBER_0_MEMBER_0_MEMBER_1_MEMBER_1_MEMBER_1_MEMBER_4_FILL">
<path fill="#1F1513" stroke="none" d="
M 69.85 16
Q 70.25 18.9 70.25 19.15 70.55 20.65 71.3 22.05 72.8 24.8 75.55 24.65 76.15 24.55 76.9 24.4 77.8 24.2 77.9 24.1 71.6 22.6 71 19 70.8 18.05 71.05 15.8 71.25 13.7 71.05 12.65 69.75 13.1 69.85 16 Z"/>
</g>

<g id="krokodyl_kopia_2_0_Layer0_1_MEMBER_0_MEMBER_1_MEMBER_0_MEMBER_1_MEMBER_0_MEMBER_0_MEMBER_1_MEMBER_1_MEMBER_1_MEMBER_5_FILL">
<path fill="#1F1513" stroke="none" d="
M 30.35 82.6
Q 23.85 79.15 22.2 78.95
L 22.2 79.35
Q 22.6 79.45 24.8 81.05 27.2 82.7 29.45 83.75 37.15 87.35 46.75 87.65 52.3 87.7 56.25 84.9 58.85 83.25 59.5 81.75 57.5 83.4 55.8 84.25 51.65 86.35 46.8 86.25 38.2 85.95 30.35 82.6 Z"/>
</g>

<g id="krokodyl_kopia_2_0_Layer0_1_MEMBER_0_MEMBER_1_MEMBER_0_MEMBER_1_MEMBER_0_MEMBER_0_MEMBER_1_MEMBER_1_MEMBER_1_MEMBER_6_FILL">
<path fill="#1F1513" stroke="none" d="
M 81.45 39.45
L 81.05 39.45
Q 76.6 51.1 70.2 61.7 57.7 82.65 45.35 82.35 38.15 82.2 29.6 78.75 26.8 77.65 24.4 76.3 22.55 75.25 22.55 75.1 40.2 48.05 40.2 47.9 40.2 47.45 40.1 47.45 40.05 47.4 39.8 47.4 35.55 52.9 28.4 63.25 21 74.2 20.85 75.15 20.85 75.35 22.6 76.6 24.7 78.2 27.35 79.6 35.75 83.75 45.35 83.9 63 84.35 81.6 40.2 81.6 39.75 81.65 39.7 81.6 39.55 81.45 39.45 Z"/>
</g>

<g id="krokodyl_kopia_2_0_Layer0_1_MEMBER_0_MEMBER_1_MEMBER_0_MEMBER_1_MEMBER_0_MEMBER_0_MEMBER_1_MEMBER_1_MEMBER_1_MEMBER_7_FILL">
<path fill="#1F1513" stroke="none" d="
M 66.45 75.35
Q 69.45 72.3 71.65 70.15 67.45 73.75 65.1 75.8 58.7 81.35 56.2 84.6
L 57 84.9
Q 59.55 82.4 66.45 75.35
M 90.95 26.2
Q 91 25.7 90.95 25.65 90.95 25.6 90.9 25.45 90.25 26.25 89.75 29.65 89.25 32.35 89.2 34 89.2 34.3 90.2 39.35 91 44.4 91 44.85 90.9 49.45 86.6 55.35 91.8 49.3 91.85 46.6 91.9 44 90.95 39.2 89.85 34.35 89.95 30.8 89.95 30.2 90.45 28.6 90.95 27.05 90.95 26.2 Z"/>
</g>

<g id="krokodyl_kopia_2_0_Layer0_1_MEMBER_0_MEMBER_1_MEMBER_0_MEMBER_1_MEMBER_0_MEMBER_0_MEMBER_1_MEMBER_1_MEMBER_1_MEMBER_8_FILL">
<path fill="#1F1513" stroke="none" d="
M 49.15 10.25
L 47.8 10.3
Q 46.3 10.5 44.85 11.25 40.75 14 40.45 21.9 40.35 26.55 45 28.45 47.45 29.4 50.55 29.5 53.8 29.5 56.05 26.6 58.1 23.85 58.35 20.1 58.5 16.15 56.4 13.45 54 10.3 49.15 10.25
M 42.4 17.65
Q 42.5 14.35 45.45 12.65 47.45 11.7 49.1 11.75 50.15 11.75 51.55 12.1 53.55 12.6 54.65 13.65 58.6 17.2 56.05 22.95 55 25.4 53.3 26.85 51.55 28.4 49.85 28.15 46.5 27.8 45.3 26.85 42.25 24.45 42.4 17.65 Z"/>

<path fill="#FFFFFF" stroke="none" d="
M 45.45 12.65
Q 42.5 14.35 42.4 17.65 42.25 24.45 45.3 26.85 46.5 27.8 49.85 28.15 51.55 28.4 53.3 26.85 55 25.4 56.05 22.95 58.6 17.2 54.65 13.65 53.55 12.6 51.55 12.1 50.15 11.75 49.1 11.75 47.45 11.7 45.45 12.65 Z"/>
</g>

<g id="krokodyl_kopia_2_0_Layer0_1_MEMBER_0_MEMBER_1_MEMBER_0_MEMBER_1_MEMBER_0_MEMBER_0_MEMBER_1_MEMBER_1_MEMBER_1_MEMBER_9_FILL">
<path fill="#1F1513" stroke="none" d="
M 89.45 13.05
Q 89.25 9.2 86.5 7 83.35 4.55 78.15 5.4 78 5.4 76.7 5.5 75.25 5.95 74.35 7 71.3 10.05 72.65 18.85 73.05 22 77.6 23.15 79.9 23.7 82.25 23.6 85.65 23.1 87.75 19.75 89.75 16.7 89.45 13.05
M 81.95 7.65
Q 84.1 8.7 84.5 8.6 86.65 8.2 87.1 10.25 87.5 12.1 86.85 14.95 86.1 17.6 84.65 19.7 83.1 22.2 81.6 22.3 79.8 22.65 78.05 21.65 74.55 19.85 73.75 14.25 73.25 11.1 75.15 8.9 76.55 7.1 78.3 6.75 79.75 6.55 81.95 7.65 Z"/>

<path fill="#FFFFFF" stroke="none" d="
M 84.5 8.6
Q 84.1 8.7 81.95 7.65 79.75 6.55 78.3 6.75 76.55 7.1 75.15 8.9 73.25 11.1 73.75 14.25 74.55 19.85 78.05 21.65 79.8 22.65 81.6 22.3 83.1 22.2 84.65 19.7 86.1 17.6 86.85 14.95 87.5 12.1 87.1 10.25 86.65 8.2 84.5 8.6 Z"/>
</g>

<g id="krokodyl_kopia_2_0_Layer0_1_MEMBER_0_MEMBER_1_MEMBER_0_MEMBER_1_MEMBER_0_MEMBER_0_MEMBER_1_MEMBER_1_MEMBER_1_MEMBER_10_FILL">
<path fill="#1F1513" stroke="none" d="
M 81.05 17.85
Q 81.4 17.9 81.8 17.85 82.8 17 83.15 16.05 83.15 15.25 82.8 14.35 82.1 13.35 80.95 13.7 80.35 14 79.9 14.5 79.35 15.2 79.6 16.15
L 79.9 17.05
Q 80.15 17.75 81.05 17.85 Z"/>
</g>

<g id="krokodyl_kopia_2_0_Layer0_1_MEMBER_0_MEMBER_1_MEMBER_0_MEMBER_1_MEMBER_0_MEMBER_0_MEMBER_1_MEMBER_1_MEMBER_1_MEMBER_11_FILL">
<path fill="#1F1513" stroke="none" d="
M 50.5 20.85
Q 48.85 20.55 48.4 22 48.15 22.7 48.35 23.25 48.8 24.3 50.5 24.35 51.4 24.35 51.7 23.9 51.95 23.65 52.05 22.45 52.3 21.15 50.5 20.85 Z"/>
</g>

<g id="krokodyl_kopia_2_0_Layer0_1_MEMBER_0_MEMBER_1_MEMBER_0_MEMBER_1_MEMBER_0_MEMBER_0_MEMBER_1_MEMBER_1_MEMBER_1_MEMBER_12_FILL">
<path fill="#1F1513" stroke="none" d="
M 87.3 2.1
Q 88.1 2.45 88.35 2.1 88.45 2 88.5 1.9 88.45 1.7 88.1 1.5 86.4 0.4 81.05 0 75.8 -0.1 75.25 0.75
L 75.05 0.95
Q 77.65 0.85 80.3 0.95 85.7 1.1 87.3 2.1 Z"/>
</g>

<g id="krokodyl_kopia_2_0_Layer0_1_MEMBER_0_MEMBER_1_MEMBER_0_MEMBER_1_MEMBER_0_MEMBER_0_MEMBER_1_MEMBER_1_MEMBER_1_MEMBER_13_FILL">
<path fill="#1F1513" stroke="none" d="
M 52.5 4.9
Q 54.95 4.45 56.05 4.1 54.5 3.55 52.3 4 51.95 4.05 47.1 5.25
L 44.45 6.45
Q 43.9 6.7 42.2 7.65 40.7 8.55 40.85 9 41 9.4 41.45 9.15
L 44.55 7.25 47.45 6
Q 49.65 5.2 52.5 4.9 Z"/>
</g>

<g id="krokodyl_kopia_2_0_Layer0_1_MEMBER_0_MEMBER_1_MEMBER_0_MEMBER_1_MEMBER_0_MEMBER_0_MEMBER_1_MEMBER_1_MEMBER_1_MEMBER_14_FILL">
<path fill="#1F1513" stroke="none" d="
M 51.9 79.45
Q 53.5 78.6 53.5 77.6 53.55 76.55 51.9 76 50.45 75.4 48.35 75.6 46.15 75.7 44.75 76.3 43.05 77.15 43.05 78.25 42.9 78.85 43 79.4 43.4 80.45 45.15 80.45 49.65 80.6 51.9 79.45
M 52.15 77.65
L 52 77.85
Q 51.2 78.15 49.35 78.65 46.75 79.35 45.8 79.3 44.6 79.25 44.4 78.75
L 44.3 78.15
Q 46.45 76.75 48.25 76.7 49.8 76.65 52.15 77.65 Z"/>
</g>

<g id="krokodyl_kopia_2_0_Layer0_1_MEMBER_0_MEMBER_1_MEMBER_0_MEMBER_1_MEMBER_0_MEMBER_0_MEMBER_1_MEMBER_1_MEMBER_1_MEMBER_15_FILL">
<path fill="#1F1513" stroke="none" d="
M 32.45 72.5
Q 27.35 72 25.2 72.65 24.05 73.05 24.05 73.7 24.05 74.2 25.75 75.5 27.95 77.1 30.75 77.2 31.75 77.2 32.85 77 34.25 76.7 34.3 76.1 34.3 75 34.25 74.5 33.8 73.55 32.45 72.5
M 25.4 73.35
Q 25.9 73.2 27.2 73.2 28.6 73.15 32 73.3 32.9 73.85 33.1 74.4 33.1 75.1 33.2 75.4 32.3 75.8 31.6 75.8 29.15 75.75 27.25 74.85 25.9 74.15 25.4 73.35 Z"/>
</g>

<g id="krokodyl_kopia_2_0_Layer0_1_MEMBER_0_MEMBER_1_MEMBER_0_MEMBER_1_MEMBER_0_MEMBER_0_MEMBER_1_MEMBER_2_MEMBER_0_FILL">
<path fill="#555500" stroke="none" d="
M 45.95 44.45
Q 42.8 46.55 42.8 47.25 42.75 48.8 44.9 48.25 47.05 47.75 55.5 48.5 55.55 48.5 55.6 48.5 58.2 49.15 61.55 49.9
L 63.1 50.55
Q 65.1 51.6 66.7 51.65 67.2 51.6 67.6 51.55 69.05 51.6 69.35 50.85 69.45 50.65 69.45 49.9 69.5 49.25 66.7 44.5 63.8 39.8 63.2 39.8 62.95 39.75 62.7 39.7 61.75 38.7 60.95 38.55 59.95 37.4 52.85 40.75 49.05 42.5 45.95 44.45 Z"/>
</g>

<g id="krokodyl_kopia_2_0_Layer0_1_MEMBER_0_MEMBER_1_MEMBER_0_MEMBER_1_MEMBER_0_MEMBER_0_MEMBER_1_MEMBER_3_MEMBER_0_FILL">
<path fill="#1F1513" stroke="none" d="
M 66.2 58.5
Q 65.1 56.35 60.85 53.65 56.05 50.55 52 50.5 49.75 50.45 47.5 50.7 44.65 51.15 44 52.05
L 44.05 52.1
Q 44.65 51.8 47 51.35 49.9 50.9 51.95 50.95 56.65 51 61.05 54 64.2 56.2 65.95 58.75
L 66.2 58.5
M 45.6 48.45
Q 46.15 48.1 48.35 47.55 50.95 46.95 52.45 46.95 56.85 47.1 61.1 49.6 63.3 50.95 65.45 52.55 65.55 52.8 65.55 52.5 65.55 51.5 60.5 48.75 55.05 45.9 52.65 46.6 45.55 47.15 45.55 48.25 45.55 48.5 45.6 48.45 Z"/>
</g>

<g id="krokodyl_kopia_2_0_Layer0_1_MEMBER_0_MEMBER_1_MEMBER_0_MEMBER_1_MEMBER_0_MEMBER_0_MEMBER_1_MEMBER_4_FILL">
<path fill="#1F1513" stroke="none" d="
M 50.65 80.05
Q 52.4 79.95 53.7 79.3 55 78.65 55 77.7 55.15 74.55 49 74.55 42.9 74.6 42.8 78.1
L 42.8 78.65
Q 42.8 79.1 43.2 79.1 43.5 79.1 43.5 78.95 43 78.4 43 78.1 43.05 75.4 47.9 74.85
L 50.95 75
Q 52.35 75.05 53.5 75.85 54.8 76.75 54.7 77.6 54.7 78.55 53.15 79.1 51.35 79.95 48.4 79.65
L 48.65 79.75 50.65 80.05 Z"/>
</g>

<g id="krokodyl_kopia_2_0_Layer0_1_MEMBER_0_MEMBER_1_MEMBER_0_MEMBER_1_MEMBER_0_MEMBER_0_MEMBER_1_MEMBER_5_FILL">
<path fill="#1F1513" stroke="none" d="
M 23.85 74
Q 23.85 73.1 24.65 72.35 26.15 71 30.2 71.05 32.7 71.1 37.25 73.5
L 37.25 73.35
Q 30.2 69.85 26.35 70.85 23.65 71.65 23.6 74.05 23.55 75.85 26.45 76.6
L 29.1 76.65
Q 29.4 76.3 29.6 76.2 26.25 76.7 24.75 75.6 23.75 74.8 23.85 74 Z"/>
</g>

<g id="krokodyl_kopia_2_0_Layer0_1_MEMBER_0_MEMBER_1_MEMBER_0_MEMBER_1_MEMBER_0_MEMBER_0_MEMBER_1_MEMBER_6_MEMBER_0_FILL">
<path fill="#1F1513" stroke="none" d="
M 87.25 42.4
L 87.1 41.95
Q 86.95 41.8 86.65 41.9 86.25 42.05 86.35 42.2 87 45.4 83.2 50.5 79.15 56.25 72.65 59.05
L 72.9 58.85 73.1 58.75
Q 77.2 54 79.3 48.45 80.75 44.45 81.55 39.05 79.9 39.6 79.4 43 78.7 47.75 78.15 48.9 75.3 54.55 70.5 60.65 70.65 61.1 71.75 60.6 78.6 57.85 83.65 51.3 88.35 45.1 87.25 42.4 Z"/>
</g>

<g id="krokodyl_kopia_2_0_Layer0_1_MEMBER_0_MEMBER_1_MEMBER_0_MEMBER_1_MEMBER_0_MEMBER_0_MEMBER_1_MEMBER_6_MEMBER_1_FILL">
<path fill="#1F1513" stroke="none" d="
M 81.7 47.65
Q 81.6 45.45 81.3 44.25 81.15 43.6 81.15 43.55 80.9 43.3 80.8 42.9 80.75 43.05 80.65 43.3
L 80.65 43.35
Q 80.6 43.35 80.6 43.4 80.15 44.2 79.35 46.85 78.55 49.8 78 50.95 77.3 52.8 74.75 56 72.35 58.95 72.35 59.05 72.35 59.35 72.5 59.5
L 72.85 59.5
Q 74.55 59.5 77.7 56.85 79.3 54.7 80.25 53.2 81.95 50.5 81.7 47.65 Z"/>
</g>

<g id="krokodyl_kopia_2_0_Layer0_1_MEMBER_0_MEMBER_1_MEMBER_0_MEMBER_1_MEMBER_0_MEMBER_0_MEMBER_1_MEMBER_7_FILL">
<path fill="#1F1513" stroke="none" d="
M 72.6 58.15
L 73.35 60.5
Q 73.85 63.05 74.2 63.05 74.3 63.05 76.8 54.2 76.85 53.2 74.75 55.6 72.6 57.95 72.6 58.15
M 74.2 61.6
L 74.2 61.55
Q 74.1 61.2 73.65 59.95 73.3 58.6 73.3 58.45 73.3 58 74.55 56.6 75.65 55.4 75.8 55.3 75.65 55.95 75.1 58.55 74.6 60.45 74.2 61.6 Z"/>

<path fill="#FFFFFF" stroke="none" d="
M 74.2 61.55
L 74.2 61.6
Q 74.6 60.45 75.1 58.55 75.65 55.95 75.8 55.3 75.65 55.4 74.55 56.6 73.3 58 73.3 58.45 73.3 58.6 73.65 59.95 74.1 61.2 74.2 61.55 Z"/>
</g>

<g id="krokodyl_kopia_2_0_Layer0_1_MEMBER_0_MEMBER_1_MEMBER_0_MEMBER_1_MEMBER_0_MEMBER_0_MEMBER_1_MEMBER_8_FILL">
<path fill="#1F1513" stroke="none" d="
M 77.6 50.65
Q 76.15 53.1 76.15 53.35
L 77.3 55.15
Q 78.2 57.25 78.45 57.2 78.6 57.2 79.2 49.1 79.1 48.3 77.6 50.65
M 77.6 51.55
Q 78.35 50.35 78.45 50.15 78.4 50.85 78.45 53.1 78.35 54.9 78.2 55.95
L 78.2 55.9
Q 78.05 55.7 77.4 54.6 76.9 53.5 76.85 53.35 76.8 53 77.6 51.55 Z"/>

<path fill="#FFFFFF" stroke="none" d="
M 78.45 50.15
Q 78.35 50.35 77.6 51.55 76.8 53 76.85 53.35 76.9 53.5 77.4 54.6 78.05 55.7 78.2 55.9
L 78.2 55.95
Q 78.35 54.9 78.45 53.1 78.4 50.85 78.45 50.15 Z"/>
</g>

<g id="krokodyl_kopia_2_0_Layer0_1_MEMBER_0_MEMBER_1_MEMBER_0_MEMBER_1_MEMBER_0_MEMBER_0_MEMBER_1_MEMBER_9_FILL">
<path fill="#1F1513" stroke="none" d="
M 87.65 53.15
Q 86.5 54.1 85.3 55.4 79.25 61.55 76.85 63.7 72.5 67.7 68.1 71.85 62.65 77.15 62.65 77.55 62.65 77.85 62.95 78.15
L 86.2 55.5
Q 86.9 54.3 87.65 53.15 Z"/>
</g>

<path id="Layer0_0_1_STROKES" stroke="#8B8BCB" stroke-width="12.2" stroke-linejoin="round" stroke-linecap="round" fill="none" d="
M 222.65 122.35
Q 222.65 157.147265625 201.95 183.4 198.0228515625 188.3771484375 193.35 193.05 182.9947265625 203.4052734375 171.125 210.1 153.0861328125 220.28046875 131.55 222 127.1724609375 222.35 122.65 222.35 95.8810546875 222.35 74.175 210.1 62.3048828125 203.4048828125 51.95 193.05 22.65 163.75 22.65 122.35 22.65 80.95 51.95 51.65 81.25 22.35 122.65 22.35 127.1724609375 22.35 131.55 22.7 167.2505859375 25.5505859375 193.35 51.65 198.0228515625 56.3228515625 201.95 61.3 222.65 87.552734375 222.65 122.35 Z"/>
</defs>

<g transform="matrix( 1.89691162109375, 0, 0, 1.89691162109375, 2.65,-2.5) ">
<g transform="matrix( 1, 0, 0, 1, 0,0) ">
<use xlink:href="#Folder_zduplikowanych_element_w_start_0_Layer3_0_MEMBER_0_MEMBER_0_FILL"/>
</g>

<g transform="matrix( 1, 0, 0, 1, 0,0) ">
<use xlink:href="#Folder_zduplikowanych_element_w_start_0_Layer3_0_MEMBER_0_MEMBER_1_FILL"/>
</g>

<g transform="matrix( 1, 0, 0, 1, 0,0) ">
<use xlink:href="#Folder_zduplikowanych_element_w_start_0_Layer3_0_MEMBER_0_MEMBER_2_FILL"/>
</g>

<g transform="matrix( 1, 0, 0, 1, 0,0) ">
<use xlink:href="#Folder_zduplikowanych_element_w_start_0_Layer3_0_MEMBER_0_MEMBER_3_FILL"/>
</g>

<g filter="url(#Filter_1)" transform="matrix( 0.52716064453125, 0, 0, 0.52716064453125, -1.35,1.3) ">
<g transform="matrix( 1.101470947265625, 0.0617828369140625, -1.976043701171875, 0.96502685546875, 115.7,171.7) ">
<g transform="matrix( 1, 0, 0, 1, 0,0) ">
<use xlink:href="#Folder_zduplikowanych_element_w_shadow_0_Layer0_0_FILL"/>
</g>
</g>
</g>

<g transform="matrix( 1, 0, 0, 1, 0,0) ">
<use xlink:href="#Folder_zduplikowanych_element_w_start_0_Layer2_0_MEMBER_1_MEMBER_0_FILL"/>
</g>

<g filter="url(#Filter_1)" transform="matrix( 0.52716064453125, 0, 0, 0.52716064453125, -1.35,1.3) ">
<g transform="matrix( 1.101470947265625, 0.0617828369140625, -1.976043701171875, 0.96502685546875, 114.65,232.3) ">
<g transform="matrix( 1, 0, 0, 1, 0,0) ">
<use xlink:href="#Folder_zduplikowanych_element_w_shadow_0_Layer0_0_FILL"/>
</g>
</g>
</g>

<g transform="matrix( 1, 0, 0, 1, 0,0) ">
<use xlink:href="#Folder_zduplikowanych_element_w_start_0_Layer2_0_MEMBER_3_MEMBER_0_MEMBER_0_FILL"/>
</g>

<g transform="matrix( 1, 0, 0, 1, 0,0) ">
<use xlink:href="#Folder_zduplikowanych_element_w_start_0_Layer2_0_MEMBER_3_MEMBER_0_MEMBER_1_FILL"/>
</g>
</g>

<g transform="matrix( 1, 0, 0, 1, 34.15,61.5) ">
<g transform="matrix( 1.195281982421875, -0.2758636474609375, 0.2758636474609375, 1.195281982421875, 63.25,105.3) ">
<g transform="matrix( 1, 0, 0, 1, 0,0) ">
<use filter="url(#Filter_2)" xlink:href="#ogon_kopia_0_Layer0_0_MEMBER_0_MEMBER_0_FILL"/>
</g>

<g transform="matrix( 1, 0, 0, 1, 0,0) ">
<use filter="url(#Filter_2)" xlink:href="#ogon_kopia_0_Layer0_0_MEMBER_0_MEMBER_0_MEMBER_0_FILL"/>
</g>

<g transform="matrix( 1, 0, 0, 1, 0,0) ">
<use filter="url(#Filter_2)" xlink:href="#ogon_kopia_0_Layer0_0_MEMBER_0_MEMBER_0_MEMBER_1_FILL"/>
</g>

<g transform="matrix( 1, 0, 0, 1, 0,0) ">
<use filter="url(#Filter_2)" xlink:href="#ogon_kopia_0_Layer0_0_MEMBER_0_MEMBER_0_MEMBER_2_FILL"/>
</g>

<g transform="matrix( 1, 0, 0, 1, 0,0) ">
<use filter="url(#Filter_2)" xlink:href="#ogon_kopia_0_Layer0_0_MEMBER_1_FILL"/>
</g>
</g>

<g transform="matrix( 1, 0, 0, 1, 0,0) ">
<use xlink:href="#krokodyl_kopia_2_0_Layer0_1_MEMBER_0_MEMBER_0_MEMBER_0_FILL"/>
</g>

<g transform="matrix( 1, 0, 0, 1, 0,0) ">
<use xlink:href="#krokodyl_kopia_2_0_Layer0_1_MEMBER_0_MEMBER_0_MEMBER_1_FILL"/>
</g>

<g transform="matrix( 1, 0, 0, 1, 0,0) ">
<use xlink:href="#krokodyl_kopia_2_0_Layer0_1_MEMBER_0_MEMBER_0_MEMBER_1_MEMBER_0_FILL"/>
</g>

<g transform="matrix( 1, 0, 0, 1, 0,0) ">
<use xlink:href="#krokodyl_kopia_2_0_Layer0_1_MEMBER_0_MEMBER_0_MEMBER_2_FILL"/>
</g>

<g transform="matrix( 1, 0, 0, 1, 0,0) ">
<use xlink:href="#krokodyl_kopia_2_0_Layer0_1_MEMBER_0_MEMBER_1_MEMBER_0_MEMBER_0_MEMBER_0_FILL"/>
</g>

<g transform="matrix( 1, 0, 0, 1, 0,0) ">
<use xlink:href="#krokodyl_kopia_2_0_Layer0_1_MEMBER_0_MEMBER_1_MEMBER_0_MEMBER_0_MEMBER_1_FILL"/>
</g>

<g transform="matrix( 1, 0, 0, 1, 0,0) ">
<use xlink:href="#krokodyl_kopia_2_0_Layer0_1_MEMBER_0_MEMBER_1_MEMBER_0_MEMBER_0_MEMBER_2_FILL"/>
</g>

<g transform="matrix( 1, 0, 0, 1, 0,0) ">
<use xlink:href="#krokodyl_kopia_2_0_Layer0_1_MEMBER_0_MEMBER_1_MEMBER_0_MEMBER_0_MEMBER_3_FILL"/>
</g>

<g transform="matrix( 1, 0, 0, 1, 0,0) ">
<use xlink:href="#krokodyl_kopia_2_0_Layer0_1_MEMBER_0_MEMBER_1_MEMBER_0_MEMBER_0_MEMBER_4_FILL"/>
</g>

<g transform="matrix( 1, 0, 0, 1, 0,0) ">
<use xlink:href="#krokodyl_kopia_2_0_Layer0_1_MEMBER_0_MEMBER_1_MEMBER_0_MEMBER_1_MEMBER_0_MEMBER_0_MEMBER_0_MEMBER_0_MEMBER_0_FILL"/>
</g>

<g transform="matrix( 1, 0, 0, 1, 0,0) ">
<use xlink:href="#krokodyl_kopia_2_0_Layer0_1_MEMBER_0_MEMBER_1_MEMBER_0_MEMBER_1_MEMBER_0_MEMBER_0_MEMBER_0_MEMBER_0_MEMBER_1_FILL"/>
</g>

<g transform="matrix( 1, 0, 0, 1, 0,0) ">
<use xlink:href="#krokodyl_kopia_2_0_Layer0_1_MEMBER_0_MEMBER_1_MEMBER_0_MEMBER_1_MEMBER_0_MEMBER_0_MEMBER_0_MEMBER_1_FILL"/>
</g>

<g transform="matrix( 1, 0, 0, 1, 0,0) ">
<use xlink:href="#krokodyl_kopia_2_0_Layer0_1_MEMBER_0_MEMBER_1_MEMBER_0_MEMBER_1_MEMBER_0_MEMBER_0_MEMBER_0_MEMBER_2_FILL"/>
</g>

<g transform="matrix( 1, 0, 0, 1, 0,0) ">
<use xlink:href="#krokodyl_kopia_2_0_Layer0_1_MEMBER_0_MEMBER_1_MEMBER_0_MEMBER_1_MEMBER_0_MEMBER_0_MEMBER_0_MEMBER_2_MEMBER_0_FILL"/>
</g>

<g transform="matrix( 1, 0, 0, 1, 0,0) ">
<use xlink:href="#krokodyl_kopia_2_0_Layer0_1_MEMBER_0_MEMBER_1_MEMBER_0_MEMBER_1_MEMBER_0_MEMBER_0_MEMBER_1_MEMBER_0_MEMBER_0_FILL"/>
</g>

<g transform="matrix( 1, 0, 0, 1, 0,0) ">
<use xlink:href="#krokodyl_kopia_2_0_Layer0_1_MEMBER_0_MEMBER_1_MEMBER_0_MEMBER_1_MEMBER_0_MEMBER_0_MEMBER_1_MEMBER_0_MEMBER_0_MEMBER_0_FILL"/>
</g>

<g transform="matrix( 1, 0, 0, 1, 0,0) ">
<use xlink:href="#krokodyl_kopia_2_0_Layer0_1_MEMBER_0_MEMBER_1_MEMBER_0_MEMBER_1_MEMBER_0_MEMBER_0_MEMBER_1_MEMBER_0_MEMBER_0_MEMBER_1_FILL"/>
</g>

<g transform="matrix( 1, 0, 0, 1, 0,0) ">
<use xlink:href="#krokodyl_kopia_2_0_Layer0_1_MEMBER_0_MEMBER_1_MEMBER_0_MEMBER_1_MEMBER_0_MEMBER_0_MEMBER_1_MEMBER_0_MEMBER_0_MEMBER_2_FILL"/>
</g>

<g transform="matrix( 1, 0, 0, 1, 0,0) ">
<use xlink:href="#krokodyl_kopia_2_0_Layer0_1_MEMBER_0_MEMBER_1_MEMBER_0_MEMBER_1_MEMBER_0_MEMBER_0_MEMBER_1_MEMBER_0_MEMBER_0_MEMBER_3_FILL"/>
</g>

<g transform="matrix( 1, 0, 0, 1, 0,0) ">
<use xlink:href="#krokodyl_kopia_2_0_Layer0_1_MEMBER_0_MEMBER_1_MEMBER_0_MEMBER_1_MEMBER_0_MEMBER_0_MEMBER_1_MEMBER_0_MEMBER_0_MEMBER_4_FILL"/>
</g>

<g transform="matrix( 1, 0, 0, 1, 0,0) ">
<use xlink:href="#krokodyl_kopia_2_0_Layer0_1_MEMBER_0_MEMBER_1_MEMBER_0_MEMBER_1_MEMBER_0_MEMBER_0_MEMBER_1_MEMBER_0_MEMBER_0_MEMBER_5_FILL"/>
</g>

<g transform="matrix( 1, 0, 0, 1, 0,0) ">
<use xlink:href="#krokodyl_kopia_2_0_Layer0_1_MEMBER_0_MEMBER_1_MEMBER_0_MEMBER_1_MEMBER_0_MEMBER_0_MEMBER_1_MEMBER_0_MEMBER_0_MEMBER_6_FILL"/>
</g>

<g transform="matrix( 1, 0, 0, 1, 0,0) ">
<use xlink:href="#krokodyl_kopia_2_0_Layer0_1_MEMBER_0_MEMBER_1_MEMBER_0_MEMBER_1_MEMBER_0_MEMBER_0_MEMBER_1_MEMBER_0_MEMBER_0_MEMBER_7_FILL"/>
</g>

<g transform="matrix( 1, 0, 0, 1, 0,0) ">
<use xlink:href="#krokodyl_kopia_2_0_Layer0_1_MEMBER_0_MEMBER_1_MEMBER_0_MEMBER_1_MEMBER_0_MEMBER_0_MEMBER_1_MEMBER_0_MEMBER_0_MEMBER_8_FILL"/>
</g>

<g transform="matrix( 1, 0, 0, 1, 0,0) ">
<use xlink:href="#krokodyl_kopia_2_0_Layer0_1_MEMBER_0_MEMBER_1_MEMBER_0_MEMBER_1_MEMBER_0_MEMBER_0_MEMBER_1_MEMBER_0_MEMBER_0_MEMBER_9_FILL"/>
</g>

<g transform="matrix( 1, 0, 0, 1, 0,0) ">
<use xlink:href="#krokodyl_kopia_2_0_Layer0_1_MEMBER_0_MEMBER_1_MEMBER_0_MEMBER_1_MEMBER_0_MEMBER_0_MEMBER_1_MEMBER_0_MEMBER_0_MEMBER_10_FILL"/>
</g>

<g transform="matrix( 1, 0, 0, 1, 0,0) ">
<use xlink:href="#krokodyl_kopia_2_0_Layer0_1_MEMBER_0_MEMBER_1_MEMBER_0_MEMBER_1_MEMBER_0_MEMBER_0_MEMBER_1_MEMBER_0_MEMBER_0_MEMBER_11_FILL"/>
</g>

<g transform="matrix( 1, 0, 0, 1, 0,0) ">
<use xlink:href="#krokodyl_kopia_2_0_Layer0_1_MEMBER_0_MEMBER_1_MEMBER_0_MEMBER_1_MEMBER_0_MEMBER_0_MEMBER_1_MEMBER_0_MEMBER_0_MEMBER_12_FILL"/>
</g>

<g transform="matrix( 1, 0, 0, 1, 0,0) ">
<use xlink:href="#krokodyl_kopia_2_0_Layer0_1_MEMBER_0_MEMBER_1_MEMBER_0_MEMBER_1_MEMBER_0_MEMBER_0_MEMBER_1_MEMBER_0_MEMBER_0_MEMBER_13_FILL"/>
</g>

<g transform="matrix( 1, 0, 0, 1, 0,0) ">
<use xlink:href="#krokodyl_kopia_2_0_Layer0_1_MEMBER_0_MEMBER_1_MEMBER_0_MEMBER_1_MEMBER_0_MEMBER_0_MEMBER_1_MEMBER_1_MEMBER_0_FILL"/>
</g>

<g transform="matrix( 1, 0, 0, 1, 0,0) ">
<use xlink:href="#krokodyl_kopia_2_0_Layer0_1_MEMBER_0_MEMBER_1_MEMBER_0_MEMBER_1_MEMBER_0_MEMBER_0_MEMBER_1_MEMBER_1_MEMBER_1_FILL"/>
</g>

<g transform="matrix( 1, 0, 0, 1, 0,0) ">
<use xlink:href="#krokodyl_kopia_2_0_Layer0_1_MEMBER_0_MEMBER_1_MEMBER_0_MEMBER_1_MEMBER_0_MEMBER_0_MEMBER_1_MEMBER_1_MEMBER_1_MEMBER_0_FILL"/>
</g>

<g transform="matrix( 1, 0, 0, 1, 0,0) ">
<use xlink:href="#krokodyl_kopia_2_0_Layer0_1_MEMBER_0_MEMBER_1_MEMBER_0_MEMBER_1_MEMBER_0_MEMBER_0_MEMBER_1_MEMBER_1_MEMBER_1_MEMBER_1_FILL"/>
</g>

<g transform="matrix( 1, 0, 0, 1, 0,0) ">
<use xlink:href="#krokodyl_kopia_2_0_Layer0_1_MEMBER_0_MEMBER_1_MEMBER_0_MEMBER_1_MEMBER_0_MEMBER_0_MEMBER_1_MEMBER_1_MEMBER_1_MEMBER_2_FILL"/>
</g>

<g transform="matrix( 1, 0, 0, 1, 0,0) ">
<use xlink:href="#krokodyl_kopia_2_0_Layer0_1_MEMBER_0_MEMBER_1_MEMBER_0_MEMBER_1_MEMBER_0_MEMBER_0_MEMBER_1_MEMBER_1_MEMBER_1_MEMBER_3_FILL"/>
</g>

<g transform="matrix( 1, 0, 0, 1, 0,0) ">
<use xlink:href="#krokodyl_kopia_2_0_Layer0_1_MEMBER_0_MEMBER_1_MEMBER_0_MEMBER_1_MEMBER_0_MEMBER_0_MEMBER_1_MEMBER_1_MEMBER_1_MEMBER_4_FILL"/>
</g>

<g transform="matrix( 1, 0, 0, 1, 0,0) ">
<use xlink:href="#krokodyl_kopia_2_0_Layer0_1_MEMBER_0_MEMBER_1_MEMBER_0_MEMBER_1_MEMBER_0_MEMBER_0_MEMBER_1_MEMBER_1_MEMBER_1_MEMBER_5_FILL"/>
</g>

<g transform="matrix( 1, 0, 0, 1, 0,0) ">
<use xlink:href="#krokodyl_kopia_2_0_Layer0_1_MEMBER_0_MEMBER_1_MEMBER_0_MEMBER_1_MEMBER_0_MEMBER_0_MEMBER_1_MEMBER_1_MEMBER_1_MEMBER_6_FILL"/>
</g>

<g transform="matrix( 1, 0, 0, 1, 0,0) ">
<use xlink:href="#krokodyl_kopia_2_0_Layer0_1_MEMBER_0_MEMBER_1_MEMBER_0_MEMBER_1_MEMBER_0_MEMBER_0_MEMBER_1_MEMBER_1_MEMBER_1_MEMBER_7_FILL"/>
</g>

<g transform="matrix( 1, 0, 0, 1, 0,0) ">
<use xlink:href="#krokodyl_kopia_2_0_Layer0_1_MEMBER_0_MEMBER_1_MEMBER_0_MEMBER_1_MEMBER_0_MEMBER_0_MEMBER_1_MEMBER_1_MEMBER_1_MEMBER_8_FILL"/>
</g>

<g transform="matrix( 1, 0, 0, 1, 0,0) ">
<use xlink:href="#krokodyl_kopia_2_0_Layer0_1_MEMBER_0_MEMBER_1_MEMBER_0_MEMBER_1_MEMBER_0_MEMBER_0_MEMBER_1_MEMBER_1_MEMBER_1_MEMBER_9_FILL"/>
</g>

<g transform="matrix( 1, 0, 0, 1, 0,0) ">
<use xlink:href="#krokodyl_kopia_2_0_Layer0_1_MEMBER_0_MEMBER_1_MEMBER_0_MEMBER_1_MEMBER_0_MEMBER_0_MEMBER_1_MEMBER_1_MEMBER_1_MEMBER_10_FILL"/>
</g>

<g transform="matrix( 1, 0, 0, 1, 0,0) ">
<use xlink:href="#krokodyl_kopia_2_0_Layer0_1_MEMBER_0_MEMBER_1_MEMBER_0_MEMBER_1_MEMBER_0_MEMBER_0_MEMBER_1_MEMBER_1_MEMBER_1_MEMBER_11_FILL"/>
</g>

<g transform="matrix( 1, 0, 0, 1, 0,0) ">
<use xlink:href="#krokodyl_kopia_2_0_Layer0_1_MEMBER_0_MEMBER_1_MEMBER_0_MEMBER_1_MEMBER_0_MEMBER_0_MEMBER_1_MEMBER_1_MEMBER_1_MEMBER_12_FILL"/>
</g>

<g transform="matrix( 1, 0, 0, 1, 0,0) ">
<use xlink:href="#krokodyl_kopia_2_0_Layer0_1_MEMBER_0_MEMBER_1_MEMBER_0_MEMBER_1_MEMBER_0_MEMBER_0_MEMBER_1_MEMBER_1_MEMBER_1_MEMBER_13_FILL"/>
</g>

<g transform="matrix( 1, 0, 0, 1, 0,0) ">
<use xlink:href="#krokodyl_kopia_2_0_Layer0_1_MEMBER_0_MEMBER_1_MEMBER_0_MEMBER_1_MEMBER_0_MEMBER_0_MEMBER_1_MEMBER_1_MEMBER_1_MEMBER_14_FILL"/>
</g>

<g transform="matrix( 1, 0, 0, 1, 0,0) ">
<use xlink:href="#krokodyl_kopia_2_0_Layer0_1_MEMBER_0_MEMBER_1_MEMBER_0_MEMBER_1_MEMBER_0_MEMBER_0_MEMBER_1_MEMBER_1_MEMBER_1_MEMBER_15_FILL"/>
</g>

<g transform="matrix( 1, 0, 0, 1, 0,0) ">
<use xlink:href="#krokodyl_kopia_2_0_Layer0_1_MEMBER_0_MEMBER_1_MEMBER_0_MEMBER_1_MEMBER_0_MEMBER_0_MEMBER_1_MEMBER_2_MEMBER_0_FILL"/>
</g>

<g transform="matrix( 1, 0, 0, 1, 0,0) ">
<use xlink:href="#krokodyl_kopia_2_0_Layer0_1_MEMBER_0_MEMBER_1_MEMBER_0_MEMBER_1_MEMBER_0_MEMBER_0_MEMBER_1_MEMBER_3_MEMBER_0_FILL"/>
</g>

<g transform="matrix( 1, 0, 0, 1, 0,0) ">
<use xlink:href="#krokodyl_kopia_2_0_Layer0_1_MEMBER_0_MEMBER_1_MEMBER_0_MEMBER_1_MEMBER_0_MEMBER_0_MEMBER_1_MEMBER_4_FILL"/>
</g>

<g transform="matrix( 1, 0, 0, 1, 0,0) ">
<use xlink:href="#krokodyl_kopia_2_0_Layer0_1_MEMBER_0_MEMBER_1_MEMBER_0_MEMBER_1_MEMBER_0_MEMBER_0_MEMBER_1_MEMBER_5_FILL"/>
</g>

<g transform="matrix( 1, 0, 0, 1, 0,0) ">
<use xlink:href="#krokodyl_kopia_2_0_Layer0_1_MEMBER_0_MEMBER_1_MEMBER_0_MEMBER_1_MEMBER_0_MEMBER_0_MEMBER_1_MEMBER_6_MEMBER_0_FILL"/>
</g>

<g transform="matrix( 1, 0, 0, 1, 0,0) ">
<use xlink:href="#krokodyl_kopia_2_0_Layer0_1_MEMBER_0_MEMBER_1_MEMBER_0_MEMBER_1_MEMBER_0_MEMBER_0_MEMBER_1_MEMBER_6_MEMBER_1_FILL"/>
</g>

<g transform="matrix( 1, 0, 0, 1, 0,0) ">
<use xlink:href="#krokodyl_kopia_2_0_Layer0_1_MEMBER_0_MEMBER_1_MEMBER_0_MEMBER_1_MEMBER_0_MEMBER_0_MEMBER_1_MEMBER_7_FILL"/>
</g>

<g transform="matrix( 1, 0, 0, 1, 0,0) ">
<use xlink:href="#krokodyl_kopia_2_0_Layer0_1_MEMBER_0_MEMBER_1_MEMBER_0_MEMBER_1_MEMBER_0_MEMBER_0_MEMBER_1_MEMBER_8_FILL"/>
</g>

<g transform="matrix( 1, 0, 0, 1, 0,0) ">
<use xlink:href="#krokodyl_kopia_2_0_Layer0_1_MEMBER_0_MEMBER_1_MEMBER_0_MEMBER_1_MEMBER_0_MEMBER_0_MEMBER_1_MEMBER_9_FILL"/>
</g>
</g>

<g transform="matrix( 1, 0, 0, 1, 0,0) ">
<use xlink:href="#Layer0_0_1_STROKES"/>
</g>
</svg>
