
<svg xmlns="http://www.w3.org/2000/svg" version="1.1" xmlns:xlink="http://www.w3.org/1999/xlink" preserveAspectRatio="none" x="0px" y="0px" width="53px" height="31px" viewBox="0 0 53 31">
<defs>
<g id="Layer1_0_MEMBER_0_FILL">
<path fill="#AAAAAA" stroke="none" d="
M 52.9 31.1
L 52.9 0.1 16.9 0.1 16.9 0.15
Q 16.6 0.1 16.25 0.1 9.85 0.1 5.3 4.6 0.75 9.2 0.75 15.6 0.75 22 5.3 26.55 9.85 31.1 16.25 31.1 16.6 31.1 16.9 31.1
L 52.9 31.1
M 51.9 1.1
L 51.9 30.1 17.9 30.1 17.9 30 17.35 30.05
Q 16.8 30.1 16.25 30.1 10.25 30.1 6 25.85 1.75 21.6 1.75 15.6 1.75 9.6 6 5.3 10.25 1.1 16.25 1.1 16.8 1.1 17.35 1.15
L 17.9 1.2 17.9 1.1 51.9 1.1 Z"/>

<path fill="#DDDDDD" stroke="none" d="
M 51.9 30.1
L 51.9 1.1 17.9 1.1 17.9 1.2 17.35 1.15
Q 16.8 1.1 16.25 1.1 10.25 1.1 6 5.3 1.75 9.6 1.75 15.6 1.75 21.6 6 25.85 10.25 30.1 16.25 30.1 16.8 30.1 17.35 30.05
L 17.9 30 17.9 30.1 51.9 30.1 Z"/>
</g>

<g id="Layer1_0_MEMBER_1_FILL">
<path fill="#CCCCCC" stroke="none" d="
M 28.55 15.65
Q 28.55 10.75 25.1 7.25 21.65 3.8 16.75 3.8 11.85 3.8 8.35 7.25 4.9 10.75 4.9 15.65 4.9 20.55 8.35 24 11.85 27.45 16.75 27.45 21.65 27.45 25.1 24 28.55 20.55 28.55 15.65
M 27.55 15.65
Q 27.55 20.15 24.4 23.3 21.25 26.45 16.75 26.45 12.25 26.45 9.05 23.3 5.9 20.15 5.9 15.65 5.9 11.15 9.05 7.95 12.25 4.8 16.75 4.8 21.25 4.8 24.4 7.95 27.55 11.15 27.55 15.65 Z"/>

<path fill="#F4F4F4" stroke="none" d="
M 24.4 23.3
Q 27.55 20.15 27.55 15.65 27.55 11.15 24.4 7.95 21.25 4.8 16.75 4.8 12.25 4.8 9.05 7.95 5.9 11.15 5.9 15.65 5.9 20.15 9.05 23.3 12.25 26.45 16.75 26.45 21.25 26.45 24.4 23.3 Z"/>
</g>

<g id="Layer0_0_MEMBER_0_FILL">
<path fill="#AAAAAA" stroke="none" d="
M 52.15 31
L 52.15 0 16.15 0 16.15 0.05
Q 15.85 0 15.5 0 9.1 0 4.55 4.5 0 9.1 0 15.5 0 21.9 4.55 26.45 9.1 31 15.5 31 15.85 31 16.15 31
L 52.15 31
M 51.15 1
L 51.15 30 17.15 30 17.15 29.9 16.6 29.95
Q 16.05 30 15.5 30 9.5 30 5.25 25.75 1 21.5 1 15.5 1 9.5 5.25 5.2 9.5 1 15.5 1 16.05 1 16.6 1.05
L 17.15 1.1 17.15 1 51.15 1 Z"/>

<path fill="#DDDDDD" stroke="none" d="
M 51.15 30
L 51.15 1 17.15 1 17.15 1.1 16.6 1.05
Q 16.05 1 15.5 1 9.5 1 5.25 5.2 1 9.5 1 15.5 1 21.5 5.25 25.75 9.5 30 15.5 30 16.05 30 16.6 29.95
L 17.15 29.9 17.15 30 51.15 30 Z"/>
</g>

<g id="Layer0_0_MEMBER_1_FILL">
<path fill="#CCCCCC" stroke="none" d="
M 24.35 23.9
Q 27.8 20.45 27.8 15.55 27.8 10.65 24.35 7.15 20.9 3.7 16 3.7 11.1 3.7 7.6 7.15 4.15 10.65 4.15 15.55 4.15 20.45 7.6 23.9 11.1 27.35 16 27.35 20.9 27.35 24.35 23.9
M 23.65 7.85
Q 26.8 11.05 26.8 15.55 26.8 20.05 23.65 23.2 20.5 26.35 16 26.35 11.5 26.35 8.3 23.2 5.15 20.05 5.15 15.55 5.15 11.05 8.3 7.85 11.5 4.7 16 4.7 20.5 4.7 23.65 7.85 Z"/>

<path fill="#F4F4F4" stroke="none" d="
M 26.8 15.55
Q 26.8 11.05 23.65 7.85 20.5 4.7 16 4.7 11.5 4.7 8.3 7.85 5.15 11.05 5.15 15.55 5.15 20.05 8.3 23.2 11.5 26.35 16 26.35 20.5 26.35 23.65 23.2 26.8 20.05 26.8 15.55 Z"/>
</g>

<g id="Layer0_1_FILL">
<path fill="#4A951A" stroke="none" d="
M 21 7.3
Q 20.7 7.3 20.35 7.5 19.7 7.85 19.2 8.5 18.75 9.15 18.45 10.15
L 15.4 20.1 13.1 12.75
Q 12.85 12 12.55 11.8 12.15 11.6 11.6 11.85 10.95 12.2 10.55 12.85 10.2 13.4 10.2 14.05 10.2 14.2 10.2 14.35 10.25 14.5 10.3 14.6
L 13.6 22.8
Q 13.8 23.45 14.5 23.45 14.8 23.45 15.25 23.35 16 23.05 16.35 22.7 16.7 22.35 17.1 21.35
L 21.6 9.1
Q 21.65 8.8 21.75 8.65 21.8 8.4 21.85 8.2 21.85 7.55 21.5 7.35 21.25 7.25 21 7.3 Z"/>
</g>
</defs>

<g transform="matrix( 1, 0, 0, 1, 0,-0.1) ">
<use xlink:href="#Layer1_0_MEMBER_0_FILL"/>
</g>

<g transform="matrix( 1, 0, 0, 1, 0,-0.1) ">
<use xlink:href="#Layer1_0_MEMBER_1_FILL"/>
</g>

<g transform="matrix( 1, 0, 0, 1, 0.75,0) ">
<use xlink:href="#Layer0_0_MEMBER_0_FILL"/>
</g>

<g transform="matrix( 1, 0, 0, 1, 0.75,0) ">
<use xlink:href="#Layer0_0_MEMBER_1_FILL"/>
</g>

<g transform="matrix( 1, 0, 0, 1, 0.75,0) ">
<use xlink:href="#Layer0_1_FILL"/>
</g>
</svg>
