
<svg xmlns="http://www.w3.org/2000/svg" version="1.1" xmlns:xlink="http://www.w3.org/1999/xlink" preserveAspectRatio="xMinYMin meet" x="0px" y="0px" width="53px" height="31px" viewBox="0 0 53 31">
<defs>
<g id="Layer1_0_MEMBER_0_FILL">
<path fill="#AAAAAA" stroke="none" d="
M 52.9 31.1
L 52.9 0.1 16.9 0.1 16.9 0.15
Q 16.6 0.1 16.25 0.1 9.85 0.1 5.3 4.6 0.75 9.2 0.75 15.6 0.75 22 5.3 26.55 9.85 31.1 16.25 31.1 16.6 31.1 16.9 31.1
L 52.9 31.1
M 51.9 1.1
L 51.9 30.1 17.9 30.1 17.9 30 17.35 30.05
Q 16.8 30.1 16.25 30.1 10.25 30.1 6 25.85 1.75 21.6 1.75 15.6 1.75 9.6 6 5.3 10.25 1.1 16.25 1.1 16.8 1.1 17.35 1.15
L 17.9 1.2 17.9 1.1 51.9 1.1 Z"/>

<path fill="#DDDDDD" stroke="none" d="
M 51.9 30.1
L 51.9 1.1 17.9 1.1 17.9 1.2 17.35 1.15
Q 16.8 1.1 16.25 1.1 10.25 1.1 6 5.3 1.75 9.6 1.75 15.6 1.75 21.6 6 25.85 10.25 30.1 16.25 30.1 16.8 30.1 17.35 30.05
L 17.9 30 17.9 30.1 51.9 30.1 Z"/>
</g>

<g id="Layer1_0_MEMBER_1_FILL">
<path fill="#CCCCCC" stroke="none" d="
M 28.55 15.65
Q 28.55 10.75 25.1 7.25 21.65 3.8 16.75 3.8 11.85 3.8 8.35 7.25 4.9 10.75 4.9 15.65 4.9 20.55 8.35 24 11.85 27.45 16.75 27.45 21.65 27.45 25.1 24 28.55 20.55 28.55 15.65
M 27.55 15.65
Q 27.55 20.15 24.4 23.3 21.25 26.45 16.75 26.45 12.25 26.45 9.05 23.3 5.9 20.15 5.9 15.65 5.9 11.15 9.05 7.95 12.25 4.8 16.75 4.8 21.25 4.8 24.4 7.95 27.55 11.15 27.55 15.65 Z"/>

<path fill="#F4F4F4" stroke="none" d="
M 24.4 23.3
Q 27.55 20.15 27.55 15.65 27.55 11.15 24.4 7.95 21.25 4.8 16.75 4.8 12.25 4.8 9.05 7.95 5.9 11.15 5.9 15.65 5.9 20.15 9.05 23.3 12.25 26.45 16.75 26.45 21.25 26.45 24.4 23.3 Z"/>
</g>
</defs>

<g transform="matrix( 1, 0, 0, 1, 0,-0.1) ">
<use xlink:href="#Layer1_0_MEMBER_0_FILL"/>
</g>

<g transform="matrix( 1, 0, 0, 1, 0,-0.1) ">
<use xlink:href="#Layer1_0_MEMBER_1_FILL"/>
</g>
</svg>
