
<svg xmlns="http://www.w3.org/2000/svg" version="1.1" xmlns:xlink="http://www.w3.org/1999/xlink" preserveAspectRatio="none" x="0px" y="0px" width="50px" height="50px" viewBox="0 0 50 50">
<defs>
<g id="g_0_Layer1_0_FILL">
<path fill="#FFFFFF" fill-opacity="0" stroke="none" d="
M -24 -21.5
L -24 21.5 24 21.5 24 -21.5 -24 -21.5 Z"/>
</g>

<g id="g_0_Layer0_0_MEMBER_0_FILL">
<path fill="#474B8A" stroke="none" d="
M -12.55 -4.7
Q -13.35 -4.7 -13.85 -4.25 -14.4 -3.7 -14.4 -3
L -14.4 3.05
Q -14.4 3.65 -13.85 4.4 -13.35 4.95 -12.55 4.95
L -11.1 4.95
Q -10.55 4.95 -9.95 4.4 -9.5 3.65 -9.5 3.05
L -9.5 -3
Q -9.5 -3.7 -9.95 -4.25 -10.55 -4.7 -11.1 -4.7
L -12.55 -4.7
M -2.45 -12.95
L -9.35 -4.5 -9.35 4.65 -2.45 12.95 -2.45 -12.95
M 3.55 -4.05
Q 2.2 -5.25 0.6 -5.55
L -0.45 -3.7 0.15 -3.7
Q 1.2 -3.5 2.15 -2.7 3.35 -1.4 3.4 0.05
L 3.4 0.1
Q 3.35 1.6 2.15 2.65 1.2 3.6 0.15 3.75
L -0.45 3.95 0.6 5.75
Q 2.2 5.35 3.55 4.15 5.3 2.45 5.35 0.1
L 5.35 0.05
Q 5.3 -2.3 3.55 -4.05
M 6.95 -6.45
Q 4.95 -8.3 2.6 -8.8
L 1.55 -7.05 1.75 -7.05
Q 3.9 -6.65 5.55 -5.05 7.75 -2.8 7.85 0.05
L 7.85 0.1
Q 7.75 3.05 5.55 5.15 3.9 6.8 1.75 7.3
L 1.55 7.3 2.6 8.95
Q 4.95 8.4 6.95 6.4 9.7 3.95 9.7 0.1
L 9.7 0.05
Q 9.7 -3.7 6.95 -6.45
M 3.8 -10.7
Q 6.85 -10.05 9.2 -7.65 12.45 -4.5 12.5 0.05
L 12.5 0.1
Q 12.45 4.6 9.2 7.8 6.85 10.15 3.8 10.85
L 4.9 12.65
Q 8.1 11.75 10.6 9.2 14.4 5.4 14.45 0.1
L 14.45 0.05
Q 14.4 -5.3 10.6 -9.05 8.1 -11.5 4.9 -12.55
L 3.8 -10.7 Z"/>
</g>
</defs>

<g id="instructionButton" transform="matrix( 1, 0, 0, 1, 25,25) ">
<g transform="matrix( 1, 0, 0, 1, 0,0) ">
<use xlink:href="#g_0_Layer1_0_FILL"/>
</g>

<g transform="matrix( 1, 0, 0, 1, 0,0) ">
<use xlink:href="#g_0_Layer0_0_MEMBER_0_FILL"/>
</g>
</g>
</svg>
