
<svg xmlns="http://www.w3.org/2000/svg" version="1.1" xmlns:xlink="http://www.w3.org/1999/xlink" preserveAspectRatio="none" x="0px" y="0px" viewBox="0 0 1020 95">
<defs>
<linearGradient id="Gradient_1" gradientUnits="userSpaceOnUse" x1="-374.87500000000006" y1="-3.25" x2="507.27500000000003" y2="-3.25" spreadMethod="pad">
<stop  offset="0%" stop-color="#F9A200"/>

<stop  offset="100%" stop-color="#FFC53C"/>
</linearGradient>

<g id="okno_zadania_assets_naglowek_zadania_0_Layer0_0_MEMBER_0_MEMBER_0_FILL">
<path fill="#FF9E0D" stroke="none" d="
M -488.25 -27.3
L -507.3 -27
Q -504.05 -11.45 -506.6 45.65
L -487.05 43.6 -488.25 -27.3 Z"/>
</g>

<g id="okno_zadania_assets_naglowek_zadania_0_Layer0_0_MEMBER_0_MEMBER_1_FILL">
<path fill="url(#Gradient_1)" stroke="none" d="
M 231.7 27.6
Q 232.4509765625 27.594921875 233.2 27.6 370.0763671875 28.5390625 507.3 31.25 498.35 -3.75 503.3 -38.75
L -374.85 -38.75 -374.85 32.25
Q -72.4375 25.5375 231.7 27.6 Z"/>
</g>

<g id="okno_zadania_assets_naglowek_zadania_0_Layer0_0_MEMBER_0_MEMBER_2_FILL">
<path fill="#294E61" stroke="none" d="
M -367 25.65
L -376.15 25.9 -375.8 33.2
Q -371.2 30.6 -366.9 25.95
L -367 25.65 Z"/>
</g>

<g id="okno_zadania_assets_naglowek_zadania_0_Layer0_0_MEMBER_0_MEMBER_3_FILL">
<path fill="#2E576D" stroke="none" d="
M -486.15 36.55
L -497.7 38.25 -497.75 38.6 -486.05 44.35 -486.15 36.55 Z"/>
</g>

<g id="okno_zadania_assets_naglowek_zadania_0_Layer0_0_MEMBER_0_MEMBER_4_FILL">
<path fill="#FFBD22" stroke="none" d="
M -374.65 -45.6
Q -438.4 -46.5 -503.7 -33.15 -497.45 2.2 -496.9 37.5 -424.65 25.3 -367.85 25.05 -367.3 -10.25 -374.65 -45.6 Z"/>
</g>

<path id="okno_zadania_assets_naglowek_zadania_0_Layer0_0_MEMBER_0_MEMBER_0_1_STROKES" stroke="#918E6F" stroke-width="2" stroke-linejoin="miter" stroke-linecap="square" stroke-miterlimit="3" fill="none" d="
M -488.25 -27.3
L -487.05 43.6 -506.6 45.65
Q -504.05 -11.45 -507.3 -27
L -488.25 -27.3 Z"/>

<path id="okno_zadania_assets_naglowek_zadania_0_Layer0_0_MEMBER_0_MEMBER_1_1_STROKES" stroke="#918E6F" stroke-width="2" stroke-linejoin="miter" stroke-linecap="square" stroke-miterlimit="3" fill="none" d="
M 231.7 27.6
Q -72.4375 25.5375 -374.85 32.25
L -374.85 -38.75 503.3 -38.75
Q 498.35 -3.75 507.3 31.25 370.0763671875 28.5390625 233.2 27.6 232.4509765625 27.594921875 231.7 27.6 Z"/>

<path id="okno_zadania_assets_naglowek_zadania_0_Layer0_0_MEMBER_0_MEMBER_4_1_STROKES" stroke="#928D6D" stroke-width="2" stroke-linejoin="miter" stroke-linecap="square" stroke-miterlimit="3" fill="none" d="
M -374.65 -45.6
Q -367.3 -10.25 -367.85 25.05 -424.65 25.3 -496.9 37.5 -497.45 2.2 -503.7 -33.15 -438.4 -46.5 -374.65 -45.6 Z"/>
</defs>

<g transform="matrix( 1, 0, 0, 1, 510.5,48.5) ">
<g transform="matrix( 1, 0, 0, 1, 0,0) ">
<use xlink:href="#okno_zadania_assets_naglowek_zadania_0_Layer0_0_MEMBER_0_MEMBER_0_FILL"/>

<use xlink:href="#okno_zadania_assets_naglowek_zadania_0_Layer0_0_MEMBER_0_MEMBER_0_1_STROKES"/>
</g>

<g transform="matrix( 1, 0, 0, 1, 0,0) ">
<use xlink:href="#okno_zadania_assets_naglowek_zadania_0_Layer0_0_MEMBER_0_MEMBER_1_FILL"/>

<use xlink:href="#okno_zadania_assets_naglowek_zadania_0_Layer0_0_MEMBER_0_MEMBER_1_1_STROKES"/>
</g>

<g transform="matrix( 1, 0, 0, 1, 0,0) ">
<use xlink:href="#okno_zadania_assets_naglowek_zadania_0_Layer0_0_MEMBER_0_MEMBER_2_FILL"/>
</g>

<g transform="matrix( 1, 0, 0, 1, 0,0) ">
<use xlink:href="#okno_zadania_assets_naglowek_zadania_0_Layer0_0_MEMBER_0_MEMBER_3_FILL"/>
</g>

<g transform="matrix( 1, 0, 0, 1, 0,0) ">
<use xlink:href="#okno_zadania_assets_naglowek_zadania_0_Layer0_0_MEMBER_0_MEMBER_4_FILL"/>

<use xlink:href="#okno_zadania_assets_naglowek_zadania_0_Layer0_0_MEMBER_0_MEMBER_4_1_STROKES"/>
</g>
</g>
</svg>
